<svg width="197" height="48" viewBox="0 0 197 48" fill="none" xmlns="http://www.w3.org/2000/svg">
<path fill-rule="evenodd" clip-rule="evenodd" d="M22.6724 35.4041C22.6027 35.664 22.7986 35.9193 23.0677 35.9193H25.4244C25.6934 35.9193 25.8893 35.664 25.8196 35.4041L24.6413 31.0064C24.5329 30.602 23.9591 30.602 23.8507 31.0064L22.6724 35.4041Z" fill="#0364FF"/>
<path fill-rule="evenodd" clip-rule="evenodd" d="M20.3269 38.2187C20.1464 38.8922 19.5361 39.3606 18.8388 39.3606H15.6489C14.6359 39.3606 13.8986 38.3997 14.1608 37.4212L20.7047 12.9989C20.9021 12.2622 21.5697 11.75 22.3323 11.75H26.1287C26.8914 11.75 27.5589 12.2622 27.7563 12.9989L34.3003 37.4212C34.5624 38.3997 33.8251 39.3606 32.8121 39.3606H29.6222C28.9249 39.3606 28.3146 38.8922 28.1341 38.2187L24.9513 26.3403C24.7537 25.6028 23.7073 25.6028 23.5097 26.3403L20.3269 38.2187Z" fill="#0364FF"/>
<path fill-rule="evenodd" clip-rule="evenodd" d="M36.3717 33.6167C36.1677 34.378 35.0876 34.378 34.8836 33.6167L32.5079 24.7503C32.4619 24.5789 32.4619 24.3984 32.5079 24.227L35.5355 12.9276C35.7216 12.233 36.3511 11.75 37.0701 11.75H40.1604C41.205 11.75 41.9654 12.7409 41.695 13.75L36.3717 33.6167ZM15.9882 24.7356C16.0341 24.5641 16.0341 24.3836 15.9882 24.2122L12.9645 12.9276C12.7783 12.233 12.1489 11.75 11.4298 11.75H8.33962C7.29498 11.75 6.53464 12.7409 6.80501 13.75L12.1243 33.6019C12.3283 34.3632 13.4085 34.3632 13.6124 33.6019L15.9882 24.7356Z" fill="#0364FF"/>
<path fill-rule="evenodd" clip-rule="evenodd" d="M103.167 36.4534C101.915 36.4534 100.767 36.1925 99.7234 35.6708C99.1345 35.3697 98.623 35.012 98.1886 34.5976C97.9141 34.3358 97.3579 34.5135 97.3579 34.8886V35.4484C97.3579 35.7028 97.1471 35.909 96.8871 35.909H94.6285C94.3685 35.909 94.1577 35.7028 94.1577 35.4484V12.0065C94.1577 11.7521 94.3685 11.5459 94.6285 11.5459H96.8765C97.1365 11.5459 97.3473 11.7521 97.3473 12.0065V20.2571C97.3473 20.6322 97.9049 20.8109 98.1801 20.5499C98.6179 20.1347 99.1337 19.7764 99.7234 19.4749C100.767 18.9532 101.915 18.6923 103.167 18.6923C105.417 18.6923 107.318 19.5543 108.872 21.2782C110.472 23.0249 111.272 25.1231 111.272 27.5729C111.272 30.0453 110.472 32.1435 108.872 33.8675C107.318 35.5914 105.417 36.4534 103.167 36.4534ZM102.645 33.5953C104.176 33.5953 105.463 33.0282 106.507 31.894C107.55 30.7825 108.072 29.3421 108.072 27.5729C108.072 25.8262 107.55 24.3858 106.507 23.2517C105.463 22.1175 104.176 21.5504 102.645 21.5504C101.092 21.5504 99.7929 22.1175 98.7494 23.2517C97.729 24.3858 97.2188 25.8262 97.2188 27.5729C97.2188 29.3421 97.729 30.7939 98.7494 31.928C99.7929 33.0395 101.092 33.5953 102.645 33.5953ZM83.1608 36.4534C80.6563 36.4534 78.5923 35.6141 76.969 33.9355C75.3457 32.2569 74.534 30.1361 74.534 27.5728C74.534 25.0323 75.3225 22.9228 76.8994 21.2442C78.4764 19.543 80.4939 18.6923 82.9521 18.6923C85.4799 18.6923 87.4858 19.4976 88.97 21.1081C90.5695 22.7929 91.3342 25.3269 91.234 27.6317C91.2211 27.9272 90.966 28.1513 90.6636 28.1513H78.3787C78.0638 28.1513 77.8086 28.4061 77.8412 28.7124C77.9877 30.0885 78.5318 31.2171 79.4735 32.0982C80.5403 33.0962 81.8158 33.5953 83.3 33.5953C85.1935 33.5953 86.7077 32.736 87.8425 31.0175C87.9943 30.7878 88.2961 30.6945 88.5475 30.8144L90.4596 31.7267C90.7291 31.8553 90.8372 32.1779 90.681 32.4284C89.9419 33.6138 88.9657 34.5585 87.7525 35.2625C86.4075 36.0564 84.8769 36.4534 83.1608 36.4534ZM78.2325 24.9083C78.1193 25.2403 78.3867 25.5654 78.7444 25.5654H87.2174C87.5434 25.5654 87.804 25.2922 87.7378 24.9799C87.5479 24.0831 87.089 23.3256 86.3611 22.7073C85.5031 21.936 84.3435 21.5504 82.8825 21.5504C81.6766 21.5504 80.6331 21.9134 79.7518 22.6392C79.0532 23.2302 78.5468 23.9866 78.2325 24.9083ZM73.5529 19.8763C73.6571 19.5603 73.4162 19.2367 73.0767 19.2367H70.8681C70.6462 19.2367 70.4508 19.3797 70.3881 19.5878L67.1305 30.4042C66.9998 30.838 66.375 30.847 66.2312 30.4172L62.606 19.574C62.5387 19.3728 62.3468 19.2367 62.1304 19.2367H59.5504C59.3345 19.2367 59.1429 19.3723 59.0753 19.5729L55.4172 30.4243C55.2726 30.8533 54.6488 30.8435 54.5183 30.4103L51.2588 19.5878C51.1961 19.3797 51.0008 19.2367 50.7789 19.2367H48.5007C48.1612 19.2367 47.9203 19.5603 48.0245 19.8763L53.198 35.5698C53.2646 35.7719 53.457 35.909 53.6741 35.909H56.1803C56.3976 35.909 56.59 35.7718 56.6565 35.5695L60.3075 24.4724C60.4475 24.0469 61.0626 24.0462 61.2036 24.4713L64.8855 35.5706C64.9524 35.7724 65.1446 35.909 65.3614 35.909H67.9033C68.1204 35.909 68.3128 35.7719 68.3794 35.5698L73.5529 19.8763ZM172.706 34.9222C173.633 35.7615 174.793 36.1812 176.184 36.1812C177.105 36.1812 177.931 36.0803 178.661 35.8785C178.91 35.8097 179.037 35.5462 178.95 35.3075L178.267 33.4184C178.176 33.1652 177.883 33.0429 177.621 33.1239C177.55 33.1459 177.477 33.1669 177.402 33.187C177.17 33.2323 176.926 33.255 176.671 33.255C176.115 33.255 175.616 33.0622 175.176 32.6766C174.735 32.2683 174.515 31.5084 174.515 30.3969V22.5554C174.515 22.301 174.725 22.0948 174.986 22.0948H178.218C178.478 22.0948 178.689 21.8886 178.689 21.6343V19.6973C178.689 19.4429 178.478 19.2367 178.218 19.2367H174.986C174.725 19.2367 174.515 19.0305 174.515 18.7762V12.0065C174.515 11.7521 174.304 11.5459 174.044 11.5459H171.785C171.525 11.5459 171.314 11.7521 171.314 12.0065V18.7762C171.314 19.0305 171.104 19.2367 170.844 19.2367H168.794C168.534 19.2367 168.323 19.4429 168.323 19.6973V21.6343C168.323 21.8886 168.534 22.0948 168.794 22.0948H170.843C171.104 22.0948 171.314 22.301 171.314 22.5554V31.4177C171.338 32.9148 171.801 34.083 172.706 34.9222ZM127.001 34.4119C128.555 33.0509 129.332 31.3496 129.332 29.3081C129.332 28.0605 128.973 26.9377 128.254 25.9397C127.923 25.4651 127.448 24.8619 126.054 24.0975C125.759 23.9359 125.751 23.5057 126.03 23.3189C127.698 22.2008 128.532 20.5078 128.532 18.5222C128.532 16.6395 127.825 15.1084 126.41 13.9289C124.972 12.704 123.198 12.0915 121.088 12.0915C119.395 12.0915 117.922 12.5338 116.67 13.4185C115.554 14.2068 114.724 15.2112 114.179 16.4317C114.066 16.6846 114.195 16.9735 114.455 17.0811L116.433 17.9003C116.713 18.0163 117.033 17.8769 117.158 17.606C117.937 15.9258 119.247 15.0857 121.088 15.0857C122.34 15.0857 123.349 15.4033 124.114 16.0384C124.879 16.6735 125.262 17.5015 125.262 18.5222C125.262 19.6337 124.856 20.541 124.045 21.2442C123.233 21.9247 122.189 22.265 120.914 22.265H119.635C119.342 22.265 119.105 22.4969 119.105 22.7831V24.673C119.105 24.9591 119.342 25.1911 119.635 25.1911H121.157C122.502 25.1911 123.65 25.5881 124.601 26.382C125.575 27.1759 126.062 28.1513 126.062 29.3081C126.062 30.465 125.598 31.4517 124.671 32.2683C123.72 33.0622 122.595 33.4592 121.297 33.4592C120.114 33.4592 119.093 33.1189 118.235 32.4384C117.525 31.8399 116.982 31.0277 116.608 30.0018C116.501 29.7089 116.168 29.5496 115.874 29.6692L113.94 30.4578C113.692 30.5589 113.559 30.8264 113.646 31.0751C114.186 32.6213 115.125 33.8923 116.461 34.8882C117.899 35.9316 119.511 36.4534 121.297 36.4534C123.569 36.4534 125.471 35.7729 127.001 34.4119ZM135.011 30.8052C135.011 29.8979 135.44 29.138 136.298 28.5255C137.179 27.9131 138.269 27.6069 139.568 27.6069C141.234 27.6069 142.557 27.9426 143.536 28.614C143.669 28.7049 143.744 28.8563 143.735 29.0145C143.671 30.2254 143.14 31.2873 142.142 32.2002C141.098 33.1756 139.904 33.6633 138.559 33.6633C137.608 33.6633 136.773 33.3911 136.054 32.8467C135.359 32.3023 135.011 31.6218 135.011 30.8052ZM144.751 20.5637C143.382 19.3161 141.516 18.6923 139.15 18.6923C136.298 18.6923 134.101 19.6518 132.557 21.5707C132.39 21.7773 132.453 22.076 132.68 22.2161L134.699 23.4591C134.912 23.5905 135.192 23.5326 135.349 23.3401C136.363 22.1016 137.688 21.4824 139.324 21.4824C140.507 21.4824 141.539 21.868 142.42 22.6392C143.307 23.3925 143.621 24.2979 143.711 25.3206C143.742 25.6721 143.349 25.8994 143.017 25.7635C141.915 25.3139 140.592 25.089 139.046 25.089C136.82 25.089 135.034 25.5994 133.689 26.6202C132.367 27.6409 131.706 29.0132 131.706 30.7372C131.706 32.3704 132.332 33.7314 133.585 34.8202C134.86 35.909 136.437 36.4534 138.315 36.4534C140.518 36.4534 142.281 35.5007 143.603 33.5953V35.4484C143.603 35.7028 143.814 35.909 144.074 35.909H146.332C146.592 35.909 146.803 35.7028 146.803 35.4484V25.6334C146.803 23.4785 146.119 21.7886 144.751 20.5637ZM165.37 35.4196C165.37 35.6899 165.146 35.909 164.87 35.909H162.67C162.394 35.909 162.17 35.6899 162.17 35.4196V34.873C162.17 34.5204 161.625 34.3513 161.368 34.5987C160.964 34.9871 160.478 35.3331 159.909 35.6368C158.912 36.1812 157.868 36.4534 156.778 36.4534C154.691 36.4534 153.079 35.8749 151.943 34.7181C150.83 33.5386 150.273 31.8713 150.273 29.7164V19.7261C150.273 19.4558 150.497 19.2367 150.774 19.2367H152.973C153.25 19.2367 153.474 19.4558 153.474 19.7261V29.5123C153.543 32.2343 154.946 33.5953 157.683 33.5953C158.958 33.5953 160.025 33.0962 160.883 32.0982C161.741 31.0774 162.17 29.8639 162.17 28.4575V19.7261C162.17 19.4558 162.394 19.2367 162.67 19.2367H164.87C165.146 19.2367 165.37 19.4558 165.37 19.7261V35.4196ZM181.903 12.0065C181.903 11.7521 182.114 11.5459 182.374 11.5459H184.632C184.893 11.5459 185.103 11.7521 185.103 12.0065V20.2727C185.103 20.6253 185.647 20.793 185.902 20.544C186.299 20.1568 186.775 19.8118 187.33 19.5089C188.35 18.9645 189.405 18.6923 190.495 18.6923C192.582 18.6923 194.182 19.2821 195.296 20.4616C196.432 21.6185 197 23.2744 197 25.4293V35.4484C197 35.7028 196.789 35.909 196.529 35.909H194.271C194.011 35.909 193.8 35.7028 193.8 35.4484V26.0417C193.8 23.0475 192.443 21.5504 189.73 21.5504C188.431 21.5504 187.33 22.0835 186.425 23.1496C185.544 24.193 185.103 25.4179 185.103 26.8243V35.4484C185.103 35.7028 184.893 35.909 184.632 35.909H182.374C182.114 35.909 181.903 35.7028 181.903 35.4484V12.0065Z" fill="#0F1222"/>
</svg>
