<svg width="202" height="48" viewBox="0 0 202 48" fill="none" xmlns="http://www.w3.org/2000/svg">
<path fill-rule="evenodd" clip-rule="evenodd" d="M22.9229 33.8494C22.8532 34.1093 23.0491 34.3645 23.3182 34.3645H25.6749C25.9439 34.3645 26.1398 34.1093 26.0702 33.8494L24.8918 29.4517C24.7834 29.0473 24.2096 29.0473 24.1012 29.4517L22.9229 33.8494Z" fill="white"/>
<path fill-rule="evenodd" clip-rule="evenodd" d="M20.5762 36.6642C20.3957 37.3377 19.7854 37.8061 19.0881 37.8061H15.8982C14.8852 37.8061 14.1479 36.8452 14.4101 35.8667L20.954 11.4444C21.1514 10.7078 21.8189 10.1955 22.5816 10.1955H26.378C27.1407 10.1955 27.8082 10.7078 28.0056 11.4444L34.5495 35.8667C34.8117 36.8452 34.0744 37.8061 33.0614 37.8061H29.8715C29.1742 37.8061 28.5639 37.3377 28.3834 36.6642L25.2006 24.7858C25.003 24.0483 23.9566 24.0483 23.759 24.7858L20.5762 36.6642Z" fill="white"/>
<path fill-rule="evenodd" clip-rule="evenodd" d="M36.6217 32.062C36.4177 32.8233 35.3376 32.8233 35.1336 32.062L32.7579 23.1957C32.7119 23.0242 32.7119 22.8437 32.7579 22.6723L35.7855 11.3729C35.9716 10.6783 36.6011 10.1953 37.3202 10.1953H40.4104C41.455 10.1953 42.2154 11.1862 41.945 12.1953L36.6217 32.062ZM16.2382 23.1809C16.2841 23.0094 16.2841 22.8289 16.2382 22.6575L13.2145 11.3729C13.0283 10.6783 12.3989 10.1953 11.6798 10.1953H8.58962C7.54498 10.1953 6.78464 11.1862 7.05501 12.1953L12.3743 32.0472C12.5783 32.8085 13.6585 32.8085 13.8624 32.0472L16.2382 23.1809Z" fill="white"/>
<path fill-rule="evenodd" clip-rule="evenodd" d="M107.667 36.4543C106.415 36.4543 105.267 36.1935 104.223 35.6718C103.635 35.3707 103.123 35.013 102.689 34.5986C102.414 34.3368 101.858 34.5145 101.858 34.8895V35.4494C101.858 35.7037 101.647 35.9099 101.387 35.9099H99.1285C98.8685 35.9099 98.6577 35.7037 98.6577 35.4494V12.0074C98.6577 11.7531 98.8685 11.5469 99.1285 11.5469H101.376C101.637 11.5469 101.847 11.7531 101.847 12.0074V20.2581C101.847 20.6332 102.405 20.8119 102.68 20.5508C103.118 20.1357 103.634 19.7774 104.223 19.4759C105.267 18.9542 106.415 18.6933 107.667 18.6933C109.917 18.6933 111.818 19.5553 113.372 21.2792C114.972 23.0258 115.772 25.124 115.772 27.5738C115.772 30.0463 114.972 32.1445 113.372 33.8684C111.818 35.5924 109.917 36.4543 107.667 36.4543ZM107.145 33.5962C108.676 33.5962 109.963 33.0292 111.007 31.895C112.05 30.7835 112.572 29.3431 112.572 27.5738C112.572 25.8272 112.05 24.3868 111.007 23.2527C109.963 22.1185 108.676 21.5514 107.145 21.5514C105.592 21.5514 104.293 22.1185 103.249 23.2527C102.229 24.3868 101.719 25.8272 101.719 27.5738C101.719 29.3431 102.229 30.7949 103.249 31.929C104.293 33.0405 105.592 33.5962 107.145 33.5962ZM87.6608 36.4543C85.1563 36.4543 83.0923 35.615 81.469 33.9365C79.8457 32.2579 79.034 30.137 79.034 27.5738C79.034 25.0333 79.8225 22.9237 81.3994 21.2452C82.9764 19.5439 84.9939 18.6933 87.4521 18.6933C89.9799 18.6933 91.9858 19.4986 93.47 21.1091C95.0695 22.7939 95.8342 25.3279 95.734 27.6327C95.7211 27.9282 95.466 28.1522 95.1636 28.1522H82.8787C82.5638 28.1522 82.3086 28.4071 82.3412 28.7134C82.4877 30.0895 83.0318 31.2181 83.9735 32.0991C85.0403 33.0972 86.3158 33.5962 87.8 33.5962C89.6935 33.5962 91.2077 32.737 92.3425 31.0185C92.4943 30.7887 92.7961 30.6954 93.0475 30.8154L94.9596 31.7277C95.2291 31.8563 95.3372 32.1789 95.181 32.4293C94.4419 33.6148 93.4657 34.5595 92.2525 35.2635C90.9075 36.0574 89.3769 36.4543 87.6608 36.4543ZM82.7325 24.9093C82.6193 25.2412 82.8867 25.5663 83.2444 25.5663H91.7174C92.0434 25.5663 92.304 25.2932 92.2378 24.9809C92.0479 24.0841 91.589 23.3265 90.8611 22.7083C90.0031 21.937 88.8435 21.5514 87.3825 21.5514C86.1766 21.5514 85.1331 21.9143 84.2518 22.6402C83.5532 23.2312 83.0468 23.9876 82.7325 24.9093ZM78.0529 19.8773C78.1571 19.5613 77.9162 19.2377 77.5767 19.2377H75.3681C75.1462 19.2377 74.9508 19.3806 74.8881 19.5888L71.6305 30.4051C71.4998 30.839 70.875 30.848 70.7312 30.4182L67.106 19.575C67.0387 19.3738 66.8468 19.2377 66.6304 19.2377H64.0504C63.8345 19.2377 63.6429 19.3732 63.5753 19.5738L59.9172 30.4253C59.7726 30.8543 59.1488 30.8445 59.0183 30.4112L55.7588 19.5888C55.6961 19.3806 55.5008 19.2377 55.2789 19.2377H53.0007C52.6612 19.2377 52.4203 19.5613 52.5245 19.8773L57.698 35.5708C57.7646 35.7729 57.957 35.9099 58.1741 35.9099H60.6803C60.8976 35.9099 61.09 35.7728 61.1565 35.5705L64.8075 24.4734C64.9475 24.0479 65.5626 24.0472 65.7036 24.4723L69.3855 35.5716C69.4524 35.7733 69.6446 35.9099 69.8614 35.9099H72.4033C72.6204 35.9099 72.8128 35.7729 72.8794 35.5708L78.0529 19.8773ZM177.206 34.9232C178.133 35.7625 179.293 36.1821 180.684 36.1821C181.605 36.1821 182.431 36.0813 183.161 35.8795C183.41 35.8107 183.537 35.5471 183.45 35.3085L182.767 33.4194C182.676 33.1662 182.383 33.0439 182.121 33.1249C182.05 33.1469 181.977 33.1679 181.902 33.1879C181.67 33.2333 181.426 33.256 181.171 33.256C180.615 33.256 180.116 33.0632 179.676 32.6776C179.235 32.2693 179.015 31.5094 179.015 30.3979V22.5564C179.015 22.302 179.225 22.0958 179.486 22.0958H182.718C182.978 22.0958 183.189 21.8896 183.189 21.6352V19.6983C183.189 19.4439 182.978 19.2377 182.718 19.2377H179.486C179.225 19.2377 179.015 19.0315 179.015 18.7771V12.0074C179.015 11.7531 178.804 11.5469 178.544 11.5469H176.285C176.025 11.5469 175.814 11.7531 175.814 12.0074V18.7771C175.814 19.0315 175.604 19.2377 175.344 19.2377H173.294C173.034 19.2377 172.823 19.4439 172.823 19.6983V21.6352C172.823 21.8896 173.034 22.0958 173.294 22.0958H175.343C175.604 22.0958 175.814 22.302 175.814 22.5564V31.4186C175.838 32.9157 176.301 34.0839 177.206 34.9232ZM131.501 34.4128C133.055 33.0518 133.832 31.3506 133.832 29.3091C133.832 28.0615 133.473 26.9387 132.754 25.9406C132.423 25.4661 131.948 24.8629 130.554 24.0984C130.259 23.9369 130.251 23.5066 130.53 23.3199C132.198 22.2018 133.032 20.5088 133.032 18.5232C133.032 16.6405 132.325 15.1094 130.91 13.9298C129.472 12.7049 127.698 12.0925 125.588 12.0925C123.895 12.0925 122.422 12.5348 121.17 13.4195C120.054 14.2077 119.224 15.2121 118.679 16.4327C118.566 16.6856 118.695 16.9745 118.955 17.0821L120.933 17.9013C121.213 18.0173 121.533 17.8779 121.658 17.607C122.437 15.9268 123.747 15.0867 125.588 15.0867C126.84 15.0867 127.849 15.4042 128.614 16.0394C129.379 16.6745 129.762 17.5024 129.762 18.5232C129.762 19.6347 129.356 20.542 128.545 21.2452C127.733 21.9257 126.689 22.2659 125.414 22.2659H124.135C123.842 22.2659 123.605 22.4979 123.605 22.7841V24.6739C123.605 24.9601 123.842 25.1921 124.135 25.1921H125.657C127.002 25.1921 128.15 25.589 129.101 26.383C130.075 27.1769 130.562 28.1523 130.562 29.3091C130.562 30.4659 130.098 31.4527 129.171 32.2693C128.22 33.0632 127.095 33.4601 125.797 33.4601C124.614 33.4601 123.593 33.1199 122.735 32.4394C122.025 31.8408 121.482 31.0286 121.108 30.0028C121.001 29.7099 120.668 29.5506 120.374 29.6702L118.44 30.4587C118.192 30.5599 118.059 30.8273 118.146 31.0761C118.686 32.6223 119.625 33.8933 120.961 34.8892C122.399 35.9326 124.011 36.4543 125.797 36.4543C128.069 36.4543 129.971 35.7738 131.501 34.4128ZM139.511 30.8062C139.511 29.8989 139.94 29.139 140.798 28.5265C141.679 27.9141 142.769 27.6079 144.068 27.6079C145.734 27.6079 147.057 27.9435 148.036 28.6149C148.169 28.7059 148.244 28.8572 148.235 29.0155C148.171 30.2264 147.64 31.2883 146.642 32.2012C145.598 33.1766 144.404 33.6643 143.059 33.6643C142.108 33.6643 141.273 33.3921 140.554 32.8477C139.859 32.3033 139.511 31.6228 139.511 30.8062ZM149.251 20.5647C147.882 19.3171 146.016 18.6933 143.65 18.6933C140.798 18.6933 138.601 19.6528 137.057 21.5717C136.89 21.7783 136.953 22.0769 137.18 22.217L139.199 23.4601C139.412 23.5914 139.692 23.5336 139.849 23.3411C140.863 22.1026 142.188 21.4834 143.824 21.4834C145.007 21.4834 146.039 21.869 146.92 22.6402C147.807 23.3935 148.121 24.2989 148.211 25.3215C148.242 25.673 147.849 25.9004 147.517 25.7645C146.415 25.3148 145.092 25.09 143.546 25.09C141.32 25.09 139.534 25.6004 138.189 26.6211C136.867 27.6419 136.206 29.0142 136.206 30.7381C136.206 32.3713 136.832 33.7323 138.085 34.8211C139.36 35.9099 140.937 36.4543 142.815 36.4543C145.018 36.4543 146.781 35.5016 148.103 33.5962V35.4494C148.103 35.7037 148.314 35.9099 148.574 35.9099H150.832C151.092 35.9099 151.303 35.7037 151.303 35.4494V25.6344C151.303 23.4795 150.619 21.7896 149.251 20.5647ZM169.87 35.4206C169.87 35.6908 169.646 35.9099 169.37 35.9099H167.17C166.894 35.9099 166.67 35.6908 166.67 35.4206V34.874C166.67 34.5214 166.125 34.3523 165.868 34.5997C165.464 34.988 164.978 35.3341 164.409 35.6377C163.412 36.1821 162.368 36.4543 161.278 36.4543C159.191 36.4543 157.579 35.8759 156.443 34.7191C155.33 33.5395 154.773 31.8723 154.773 29.7174V19.7271C154.773 19.4568 154.997 19.2377 155.274 19.2377H157.473C157.75 19.2377 157.974 19.4568 157.974 19.7271V29.5133C158.043 32.2352 159.446 33.5962 162.183 33.5962C163.458 33.5962 164.525 33.0972 165.383 32.0991C166.241 31.0784 166.67 29.8648 166.67 28.4585V19.7271C166.67 19.4568 166.894 19.2377 167.17 19.2377H169.37C169.646 19.2377 169.87 19.4568 169.87 19.7271V35.4206ZM186.403 12.0074C186.403 11.7531 186.614 11.5469 186.874 11.5469H189.132C189.393 11.5469 189.603 11.7531 189.603 12.0074V20.2737C189.603 20.6263 190.147 20.7939 190.402 20.545C190.799 20.1578 191.275 19.8128 191.83 19.5099C192.85 18.9655 193.905 18.6933 194.995 18.6933C197.082 18.6933 198.682 19.2831 199.796 20.4626C200.932 21.6195 201.5 23.2753 201.5 25.4303V35.4494C201.5 35.7037 201.289 35.9099 201.029 35.9099H198.771C198.511 35.9099 198.3 35.7037 198.3 35.4494V26.0427C198.3 23.0485 196.943 21.5514 194.23 21.5514C192.931 21.5514 191.83 22.0845 190.925 23.1506C190.044 24.194 189.603 25.4189 189.603 26.8253V35.4494C189.603 35.7037 189.393 35.9099 189.132 35.9099H186.874C186.614 35.9099 186.403 35.7037 186.403 35.4494V12.0074Z" fill="white"/>
</svg>
