<svg width="21" height="20" viewBox="0 0 21 20" fill="none" xmlns="http://www.w3.org/2000/svg">
<path d="M6.5 10C6.5 10.5304 6.28929 11.0391 5.91421 11.4142C5.53914 11.7893 5.03043 12 4.5 12C3.96957 12 3.46086 11.7893 3.08579 11.4142C2.71071 11.0391 2.5 10.5304 2.5 10C2.5 9.46957 2.71071 8.96086 3.08579 8.58579C3.46086 8.21071 3.96957 8 4.5 8C5.03043 8 5.53914 8.21071 5.91421 8.58579C6.28929 8.96086 6.5 9.46957 6.5 10ZM12.5 10C12.5 10.5304 12.2893 11.0391 11.9142 11.4142C11.5391 11.7893 11.0304 12 10.5 12C9.96957 12 9.46086 11.7893 9.08579 11.4142C8.71071 11.0391 8.5 10.5304 8.5 10C8.5 9.46957 8.71071 8.96086 9.08579 8.58579C9.46086 8.21071 9.96957 8 10.5 8C11.0304 8 11.5391 8.21071 11.9142 8.58579C12.2893 8.96086 12.5 9.46957 12.5 10ZM16.5 12C17.0304 12 17.5391 11.7893 17.9142 11.4142C18.2893 11.0391 18.5 10.5304 18.5 10C18.5 9.46957 18.2893 8.96086 17.9142 8.58579C17.5391 8.21071 17.0304 8 16.5 8C15.9696 8 15.4609 8.21071 15.0858 8.58579C14.7107 8.96086 14.5 9.46957 14.5 10C14.5 10.5304 14.7107 11.0391 15.0858 11.4142C15.4609 11.7893 15.9696 12 16.5 12Z" fill="#374151"/>
</svg>
