<svg width="172" height="153" viewBox="0 0 172 153" fill="none" xmlns="http://www.w3.org/2000/svg">
<g id="Frame 427320711">
<g id="Group 427320715">
<g id="Vector 321">
<path d="M44 104.931V68.4155C44 65.6621 45.438 63.1087 47.7924 61.6813L84.0948 39.673C85.2657 38.9632 86.7342 38.9632 87.9052 39.673L124.208 61.6813C126.562 63.1087 128 65.6621 128 68.4155V104.931C128 106.96 126.355 108.606 124.325 108.606H47.675C45.6454 108.606 44 106.96 44 104.931Z" fill="white"/>
<path d="M44 104.931V68.4155C44 65.6621 45.438 63.1087 47.7924 61.6813L84.0948 39.673C85.2657 38.9632 86.7342 38.9632 87.9052 39.673L124.208 61.6813C126.562 63.1087 128 65.6621 128 68.4155V104.931C128 106.96 126.355 108.606 124.325 108.606H47.675C45.6454 108.606 44 106.96 44 104.931Z" fill="url(#paint0_linear_4233_7225)" fill-opacity="0.4"/>
</g>
<g id="Group 427320714">
<g id="Rectangle 11993">
<path d="M50.8242 52.6938C50.8242 48.6345 54.1149 45.3438 58.1742 45.3438H113.824C117.884 45.3438 121.174 48.6345 121.174 52.6937V86.2937C121.174 90.353 117.884 93.6437 113.824 93.6437H58.1742C54.1149 93.6437 50.8242 90.353 50.8242 86.2937V52.6938Z" fill="url(#paint1_linear_4233_7225)" fill-opacity="0.1"/>
<path d="M50.8242 52.6938C50.8242 48.6345 54.1149 45.3438 58.1742 45.3438H113.824C117.884 45.3438 121.174 48.6345 121.174 52.6937V86.2937C121.174 90.353 117.884 93.6437 113.824 93.6437H58.1742C54.1149 93.6437 50.8242 90.353 50.8242 86.2937V52.6938Z" fill="white"/>
</g>
<path id="Rectangle 11993 (Stroke)" fill-rule="evenodd" clip-rule="evenodd" d="M113.824 46.9187H58.1742C54.9848 46.9187 52.3992 49.5043 52.3992 52.6938V86.2937C52.3992 89.4832 54.9848 92.0687 58.1742 92.0687H113.824C117.014 92.0687 119.599 89.4832 119.599 86.2937V52.6937C119.599 49.5043 117.014 46.9187 113.824 46.9187ZM58.1742 45.3438C54.1149 45.3438 50.8242 48.6345 50.8242 52.6938V86.2937C50.8242 90.353 54.1149 93.6437 58.1742 93.6437H113.824C117.884 93.6437 121.174 90.353 121.174 86.2937V52.6937C121.174 48.6345 117.884 45.3438 113.824 45.3438H58.1742Z" fill="url(#paint2_linear_4233_7225)"/>
<g id="Vector 319 (Stroke)">
<path fill-rule="evenodd" clip-rule="evenodd" d="M57.125 53.7453C57.125 53.1654 57.5951 52.6953 58.175 52.6953H67.8875C68.4674 52.6953 68.9375 53.1654 68.9375 53.7453C68.9375 54.3252 68.4674 54.7953 67.8875 54.7953H58.175C57.5951 54.7953 57.125 54.3252 57.125 53.7453ZM72.0875 53.7453C72.0875 53.1654 72.5576 52.6953 73.1375 52.6953H77.8625C78.4424 52.6953 78.9125 53.1654 78.9125 53.7453C78.9125 54.3252 78.4424 54.7953 77.8625 54.7953H73.1375C72.5576 54.7953 72.0875 54.3252 72.0875 53.7453ZM81.8 53.7453C81.8 53.1654 82.2701 52.6953 82.85 52.6953H92.5625C93.1424 52.6953 93.6125 53.1654 93.6125 53.7453C93.6125 54.3252 93.1424 54.7953 92.5625 54.7953H82.85C82.2701 54.7953 81.8 54.3252 81.8 53.7453ZM96.5 53.7453C96.5 53.1654 96.9701 52.6953 97.55 52.6953H101.75C102.33 52.6953 102.8 53.1654 102.8 53.7453C102.8 54.3252 102.33 54.7953 101.75 54.7953H97.55C96.9701 54.7953 96.5 54.3252 96.5 53.7453ZM104.9 53.7453C104.9 53.1654 105.37 52.6953 105.95 52.6953H113.3C113.88 52.6953 114.35 53.1654 114.35 53.7453C114.35 54.3252 113.88 54.7953 113.3 54.7953H105.95C105.37 54.7953 104.9 54.3252 104.9 53.7453ZM57.125 58.4703C57.125 57.8904 57.5951 57.4203 58.175 57.4203H64.475C65.0549 57.4203 65.525 57.8904 65.525 58.4703C65.525 59.0502 65.0549 59.5203 64.475 59.5203H58.175C57.5951 59.5203 57.125 59.0502 57.125 58.4703ZM68.15 58.4703C68.15 57.8904 68.6201 57.4203 69.2 57.4203H79.9625C80.5424 57.4203 81.0125 57.8904 81.0125 58.4703C81.0125 59.0502 80.5424 59.5203 79.9625 59.5203H69.2C68.6201 59.5203 68.15 59.0502 68.15 58.4703ZM83.6375 58.4703C83.6375 57.8904 84.1076 57.4203 84.6875 57.4203H90.9875C91.5674 57.4203 92.0375 57.8904 92.0375 58.4703C92.0375 59.0502 91.5674 59.5203 90.9875 59.5203H84.6875C84.1076 59.5203 83.6375 59.0502 83.6375 58.4703ZM94.6625 58.4703C94.6625 57.8904 95.1326 57.4203 95.7125 57.4203H105.95C106.53 57.4203 107 57.8904 107 58.4703C107 59.0502 106.53 59.5203 105.95 59.5203H95.7125C95.1326 59.5203 94.6625 59.0502 94.6625 58.4703ZM108.838 58.4703C108.838 57.8904 109.308 57.4203 109.888 57.4203H113.3C113.88 57.4203 114.35 57.8904 114.35 58.4703C114.35 59.0502 113.88 59.5203 113.3 59.5203H109.888C109.308 59.5203 108.838 59.0502 108.838 58.4703ZM57.125 63.9828C57.125 63.4029 57.5951 62.9328 58.175 62.9328H66.05C66.6299 62.9328 67.1 63.4029 67.1 63.9828C67.1 64.5627 66.6299 65.0328 66.05 65.0328H58.175C57.5951 65.0328 57.125 64.5627 57.125 63.9828ZM68.15 63.9828C68.15 63.4029 68.6201 62.9328 69.2 62.9328H75.2375C75.8174 62.9328 76.2875 63.4029 76.2875 63.9828C76.2875 64.5627 75.8174 65.0328 75.2375 65.0328H69.2C68.6201 65.0328 68.15 64.5627 68.15 63.9828ZM77.8625 63.9828C77.8625 63.4029 78.3326 62.9328 78.9125 62.9328H88.1C88.6799 62.9328 89.15 63.4029 89.15 63.9828C89.15 64.5627 88.6799 65.0328 88.1 65.0328H78.9125C78.3326 65.0328 77.8625 64.5627 77.8625 63.9828ZM91.5125 63.9828C91.5125 63.4029 91.9826 62.9328 92.5625 62.9328H97.55C98.1299 62.9328 98.6 63.4029 98.6 63.9828C98.6 64.5627 98.1299 65.0328 97.55 65.0328H92.5625C91.9826 65.0328 91.5125 64.5627 91.5125 63.9828ZM100.7 63.9828C100.7 63.4029 101.17 62.9328 101.75 62.9328H113.3C113.88 62.9328 114.35 63.4029 114.35 63.9828C114.35 64.5627 113.88 65.0328 113.3 65.0328H101.75C101.17 65.0328 100.7 64.5627 100.7 63.9828ZM57.125 69.4953C57.125 68.9154 57.5951 68.4453 58.175 68.4453H62.9C63.4799 68.4453 63.95 68.9154 63.95 69.4953C63.95 70.0752 63.4799 70.5453 62.9 70.5453H58.175C57.5951 70.5453 57.125 70.0752 57.125 69.4953Z" fill="black"/>
<path fill-rule="evenodd" clip-rule="evenodd" d="M57.125 53.7453C57.125 53.1654 57.5951 52.6953 58.175 52.6953H67.8875C68.4674 52.6953 68.9375 53.1654 68.9375 53.7453C68.9375 54.3252 68.4674 54.7953 67.8875 54.7953H58.175C57.5951 54.7953 57.125 54.3252 57.125 53.7453ZM72.0875 53.7453C72.0875 53.1654 72.5576 52.6953 73.1375 52.6953H77.8625C78.4424 52.6953 78.9125 53.1654 78.9125 53.7453C78.9125 54.3252 78.4424 54.7953 77.8625 54.7953H73.1375C72.5576 54.7953 72.0875 54.3252 72.0875 53.7453ZM81.8 53.7453C81.8 53.1654 82.2701 52.6953 82.85 52.6953H92.5625C93.1424 52.6953 93.6125 53.1654 93.6125 53.7453C93.6125 54.3252 93.1424 54.7953 92.5625 54.7953H82.85C82.2701 54.7953 81.8 54.3252 81.8 53.7453ZM96.5 53.7453C96.5 53.1654 96.9701 52.6953 97.55 52.6953H101.75C102.33 52.6953 102.8 53.1654 102.8 53.7453C102.8 54.3252 102.33 54.7953 101.75 54.7953H97.55C96.9701 54.7953 96.5 54.3252 96.5 53.7453ZM104.9 53.7453C104.9 53.1654 105.37 52.6953 105.95 52.6953H113.3C113.88 52.6953 114.35 53.1654 114.35 53.7453C114.35 54.3252 113.88 54.7953 113.3 54.7953H105.95C105.37 54.7953 104.9 54.3252 104.9 53.7453ZM57.125 58.4703C57.125 57.8904 57.5951 57.4203 58.175 57.4203H64.475C65.0549 57.4203 65.525 57.8904 65.525 58.4703C65.525 59.0502 65.0549 59.5203 64.475 59.5203H58.175C57.5951 59.5203 57.125 59.0502 57.125 58.4703ZM68.15 58.4703C68.15 57.8904 68.6201 57.4203 69.2 57.4203H79.9625C80.5424 57.4203 81.0125 57.8904 81.0125 58.4703C81.0125 59.0502 80.5424 59.5203 79.9625 59.5203H69.2C68.6201 59.5203 68.15 59.0502 68.15 58.4703ZM83.6375 58.4703C83.6375 57.8904 84.1076 57.4203 84.6875 57.4203H90.9875C91.5674 57.4203 92.0375 57.8904 92.0375 58.4703C92.0375 59.0502 91.5674 59.5203 90.9875 59.5203H84.6875C84.1076 59.5203 83.6375 59.0502 83.6375 58.4703ZM94.6625 58.4703C94.6625 57.8904 95.1326 57.4203 95.7125 57.4203H105.95C106.53 57.4203 107 57.8904 107 58.4703C107 59.0502 106.53 59.5203 105.95 59.5203H95.7125C95.1326 59.5203 94.6625 59.0502 94.6625 58.4703ZM108.838 58.4703C108.838 57.8904 109.308 57.4203 109.888 57.4203H113.3C113.88 57.4203 114.35 57.8904 114.35 58.4703C114.35 59.0502 113.88 59.5203 113.3 59.5203H109.888C109.308 59.5203 108.838 59.0502 108.838 58.4703ZM57.125 63.9828C57.125 63.4029 57.5951 62.9328 58.175 62.9328H66.05C66.6299 62.9328 67.1 63.4029 67.1 63.9828C67.1 64.5627 66.6299 65.0328 66.05 65.0328H58.175C57.5951 65.0328 57.125 64.5627 57.125 63.9828ZM68.15 63.9828C68.15 63.4029 68.6201 62.9328 69.2 62.9328H75.2375C75.8174 62.9328 76.2875 63.4029 76.2875 63.9828C76.2875 64.5627 75.8174 65.0328 75.2375 65.0328H69.2C68.6201 65.0328 68.15 64.5627 68.15 63.9828ZM77.8625 63.9828C77.8625 63.4029 78.3326 62.9328 78.9125 62.9328H88.1C88.6799 62.9328 89.15 63.4029 89.15 63.9828C89.15 64.5627 88.6799 65.0328 88.1 65.0328H78.9125C78.3326 65.0328 77.8625 64.5627 77.8625 63.9828ZM91.5125 63.9828C91.5125 63.4029 91.9826 62.9328 92.5625 62.9328H97.55C98.1299 62.9328 98.6 63.4029 98.6 63.9828C98.6 64.5627 98.1299 65.0328 97.55 65.0328H92.5625C91.9826 65.0328 91.5125 64.5627 91.5125 63.9828ZM100.7 63.9828C100.7 63.4029 101.17 62.9328 101.75 62.9328H113.3C113.88 62.9328 114.35 63.4029 114.35 63.9828C114.35 64.5627 113.88 65.0328 113.3 65.0328H101.75C101.17 65.0328 100.7 64.5627 100.7 63.9828ZM57.125 69.4953C57.125 68.9154 57.5951 68.4453 58.175 68.4453H62.9C63.4799 68.4453 63.95 68.9154 63.95 69.4953C63.95 70.0752 63.4799 70.5453 62.9 70.5453H58.175C57.5951 70.5453 57.125 70.0752 57.125 69.4953Z" fill="#D4E0FF"/>
</g>
</g>
<g id="Vector 320">
<path d="M44 105.98V69.9258C44 67.1939 46.875 65.4171 49.3185 66.6388L82.4782 83.2187C84.6952 84.3272 87.3048 84.3272 89.5218 83.2187L122.681 66.6388C125.125 65.4171 128 67.1939 128 69.9258V105.98C128 110.329 124.474 113.855 120.125 113.855H51.875C47.5258 113.855 44 110.329 44 105.98Z" fill="white"/>
<path d="M44 105.98V69.9258C44 67.1939 46.875 65.4171 49.3185 66.6388L82.4782 83.2187C84.6952 84.3272 87.3048 84.3272 89.5218 83.2187L122.681 66.6388C125.125 65.4171 128 67.1939 128 69.9258V105.98C128 110.329 124.474 113.855 120.125 113.855H51.875C47.5258 113.855 44 110.329 44 105.98Z" fill="url(#paint3_linear_4233_7225)"/>
</g>
</g>
</g>
<defs>
<linearGradient id="paint0_linear_4233_7225" x1="53.0763" y1="22.11" x2="200.805" y2="123.121" gradientUnits="userSpaceOnUse">
<stop stop-color="#66D4F7"/>
<stop offset="0.322917" stop-color="#4D92FF"/>
<stop offset="1" stop-color="#BB65FF"/>
</linearGradient>
<linearGradient id="paint1_linear_4233_7225" x1="68.6706" y1="32.6315" x2="89.8651" y2="115.096" gradientUnits="userSpaceOnUse">
<stop stop-color="#66D4F7"/>
<stop offset="0.322917" stop-color="#4D92FF"/>
<stop offset="1" stop-color="#BB65FF"/>
</linearGradient>
<linearGradient id="paint2_linear_4233_7225" x1="68.6706" y1="32.6315" x2="89.8651" y2="115.096" gradientUnits="userSpaceOnUse">
<stop stop-color="#66D4F7"/>
<stop offset="0.322917" stop-color="#4D92FF"/>
<stop offset="1" stop-color="#BB65FF"/>
</linearGradient>
<linearGradient id="paint3_linear_4233_7225" x1="53.0763" y1="22.1092" x2="200.805" y2="123.12" gradientUnits="userSpaceOnUse">
<stop stop-color="#66D4F7"/>
<stop offset="0.322917" stop-color="#4D92FF"/>
<stop offset="1" stop-color="#BB65FF"/>
</linearGradient>
</defs>
</svg>
