<svg width="24" height="24" viewBox="0 0 24 24" fill="none" xmlns="http://www.w3.org/2000/svg">
<g id="polygon-logo">
<path id="Vector" d="M18.1723 7.95431C17.7337 7.70366 17.1697 7.70366 16.6684 7.95431L13.1593 10.0222L10.7781 11.3381L7.33159 13.406C6.89295 13.6567 6.32898 13.6567 5.82768 13.406L3.13316 11.7768C2.69452 11.5261 2.3812 11.0248 2.3812 10.4608V7.32768C2.3812 6.82637 2.63185 6.32507 3.13316 6.01175L5.82768 4.44517C6.26632 4.19452 6.83029 4.19452 7.33159 4.44517L10.0261 6.07441C10.4648 6.32507 10.7781 6.82637 10.7781 7.39034V9.45823L13.1593 8.07963V5.94909C13.1593 5.44778 12.9086 4.94648 12.4073 4.63316L7.39426 1.68799C6.95561 1.43734 6.39164 1.43734 5.89034 1.68799L0.751958 4.69582C0.250653 4.94648 0 5.44778 0 5.94909V11.8394C0 12.3407 0.250653 12.842 0.751958 13.1554L5.82768 16.1005C6.26632 16.3512 6.83029 16.3512 7.33159 16.1005L10.7781 14.0953L13.1593 12.7167L16.6057 10.7115C17.0444 10.4608 17.6084 10.4608 18.1097 10.7115L20.8042 12.2781C21.2428 12.5287 21.5561 13.03 21.5561 13.594V16.7272C21.5561 17.2285 21.3055 17.7298 20.8042 18.0431L18.1723 19.6097C17.7337 19.8603 17.1697 19.8603 16.6684 19.6097L13.9739 18.0431C13.5352 17.7924 13.2219 17.2911 13.2219 16.7272V14.7219L10.8407 16.1005V18.1684C10.8407 18.6697 11.0914 19.171 11.5927 19.4843L16.6684 22.4295C17.107 22.6802 17.671 22.6802 18.1723 22.4295L23.248 19.4843C23.6867 19.2337 24 18.7324 24 18.1684V12.2154C24 11.7141 23.7493 11.2128 23.248 10.8995L18.1723 7.95431Z" fill="white"/>
</g>
</svg>
