<svg width="170" height="152" viewBox="0 0 170 152" fill="none" xmlns="http://www.w3.org/2000/svg">
<g id="Frame 427320809">
<g id="Group 427320736">
<g id="Rectangle 11976">
<path d="M57.6816 31.6509C57.6816 25.7686 62.4502 21 68.3325 21H102.652C108.534 21 113.303 25.7686 113.303 31.6509V110.349C113.303 116.231 108.534 121 102.652 121H68.3325C62.4502 121 57.6816 116.231 57.6816 110.349V31.6509Z" fill="url(#paint0_linear_4233_7414)" fill-opacity="0.1"/>
<path d="M57.6816 31.6509C57.6816 25.7686 62.4502 21 68.3325 21H102.652C108.534 21 113.303 25.7686 113.303 31.6509V110.349C113.303 116.231 108.534 121 102.652 121H68.3325C62.4502 121 57.6816 116.231 57.6816 110.349V31.6509Z" fill="white"/>
</g>
<path id="Rectangle 11976 (Stroke)" fill-rule="evenodd" clip-rule="evenodd" d="M102.652 22.7751H68.3325C63.4306 22.7751 59.4568 26.749 59.4568 31.6509V110.349C59.4568 115.251 63.4306 119.225 68.3325 119.225H102.652C107.554 119.225 111.528 115.251 111.528 110.349V31.6509C111.528 26.749 107.554 22.7751 102.652 22.7751ZM68.3325 21C62.4502 21 57.6816 25.7686 57.6816 31.6509V110.349C57.6816 116.231 62.4502 121 68.3325 121H102.652C108.534 121 113.303 116.231 113.303 110.349V31.6509C113.303 25.7686 108.534 21 102.652 21H68.3325Z" fill="url(#paint1_linear_4233_7414)"/>
<path id="Rectangle 11977" d="M76.0254 28.1037C76.0254 26.6916 77.1701 25.5469 78.5822 25.5469H92.4035C93.8156 25.5469 94.9603 26.6916 94.9603 28.1037C94.9603 29.5158 93.8156 30.6605 92.4035 30.6605H78.5822C77.1701 30.6605 76.0254 29.5158 76.0254 28.1037Z" fill="#D0E1FF"/>
<g id="Rectangle 11857">
<path d="M52.3574 98.8406C52.3574 93.1922 56.9363 88.6133 62.5847 88.6133H108.402C114.051 88.6133 118.63 93.1922 118.63 98.8406C118.63 104.489 114.051 109.068 108.402 109.068H62.5847C56.9363 109.068 52.3574 104.489 52.3574 98.8406Z" fill="white"/>
<path d="M52.3574 98.8406C52.3574 93.1922 56.9363 88.6133 62.5847 88.6133H108.402C114.051 88.6133 118.63 93.1922 118.63 98.8406C118.63 104.489 114.051 109.068 108.402 109.068H62.5847C56.9363 109.068 52.3574 104.489 52.3574 98.8406Z" fill="url(#paint2_linear_4233_7414)"/>
</g>
<g id="****">
<path d="M65.6774 102.25C65.5042 102.25 65.368 102.102 65.3826 101.929L65.5054 100.472C65.526 100.229 65.2583 100.067 65.0517 100.198L63.6839 101.069C63.5445 101.157 63.3593 101.115 63.2729 100.974L62.5926 99.8643C62.499 99.7117 62.5613 99.5115 62.7251 99.4391L64.1089 98.827C64.3438 98.7231 64.3438 98.3898 64.1089 98.2859L62.7251 97.6738C62.5613 97.6014 62.499 97.4012 62.5926 97.2486L63.2729 96.1392C63.3593 95.9983 63.5445 95.9555 63.6839 96.0443L65.0517 96.9149C65.2583 97.0464 65.526 96.8844 65.5054 96.6405L65.3826 95.184C65.368 95.0114 65.5042 94.8633 65.6774 94.8633H67.0694C67.2426 94.8633 67.3788 95.0114 67.3642 95.184L67.2413 96.6405C67.2208 96.8844 67.4885 97.0464 67.695 96.9149L69.0628 96.0443C69.2023 95.9555 69.3875 95.9983 69.4739 96.1392L70.1542 97.2486C70.2478 97.4012 70.1854 97.6014 70.0217 97.6738L68.6379 98.2859C68.403 98.3898 68.403 98.7231 68.6379 98.827L70.0217 99.4391C70.1854 99.5115 70.2478 99.7117 70.1542 99.8643L69.4739 100.974C69.3875 101.115 69.2023 101.157 69.0628 101.069L67.695 100.198C67.4885 100.067 67.2208 100.229 67.2413 100.472L67.3642 101.929C67.3788 102.102 67.2426 102.25 67.0694 102.25H65.6774Z" fill="#F1F3FF"/>
<path d="M80.9505 102.25C80.7773 102.25 80.6411 102.102 80.6557 101.929L80.7785 100.472C80.7991 100.229 80.5314 100.067 80.3248 100.198L78.957 101.069C78.8176 101.157 78.6324 101.115 78.546 100.974L77.8657 99.8643C77.7721 99.7117 77.8344 99.5115 77.9982 99.4391L79.382 98.827C79.6169 98.7231 79.6169 98.3898 79.382 98.2859L77.9982 97.6738C77.8344 97.6014 77.7721 97.4012 77.8657 97.2486L78.546 96.1392C78.6324 95.9983 78.8176 95.9555 78.957 96.0443L80.3248 96.9149C80.5314 97.0464 80.7991 96.8844 80.7785 96.6405L80.6557 95.184C80.6411 95.0114 80.7773 94.8633 80.9505 94.8633H82.3425C82.5157 94.8633 82.6519 95.0114 82.6373 95.184L82.5144 96.6405C82.4939 96.8844 82.7616 97.0464 82.9681 96.9149L84.3359 96.0443C84.4754 95.9555 84.6606 95.9983 84.747 96.1392L85.4273 97.2486C85.5209 97.4012 85.4585 97.6014 85.2948 97.6738L83.911 98.2859C83.6761 98.3898 83.6761 98.7231 83.911 98.827L85.2948 99.4391C85.4585 99.5115 85.5209 99.7117 85.4273 99.8643L84.747 100.974C84.6606 101.115 84.4754 101.157 84.3359 101.069L82.9681 100.198C82.7616 100.067 82.4939 100.229 82.5144 100.472L82.6373 101.929C82.6519 102.102 82.5157 102.25 82.3425 102.25H80.9505Z" fill="#F1F3FF"/>
<path d="M96.2236 102.25C96.0503 102.25 95.9142 102.102 95.9287 101.929L96.0516 100.472C96.0722 100.229 95.8045 100.067 95.5979 100.198L94.2301 101.069C94.0907 101.157 93.9055 101.115 93.8191 100.974L93.1388 99.8643C93.0451 99.7117 93.1075 99.5115 93.2713 99.4391L94.6551 98.827C94.89 98.7231 94.89 98.3898 94.6551 98.2859L93.2713 97.6738C93.1075 97.6014 93.0451 97.4012 93.1388 97.2486L93.8191 96.1392C93.9055 95.9983 94.0907 95.9555 94.2301 96.0443L95.5979 96.9149C95.8045 97.0464 96.0722 96.8844 96.0516 96.6405L95.9287 95.184C95.9142 95.0114 96.0503 94.8633 96.2236 94.8633H97.6156C97.7888 94.8633 97.925 95.0114 97.9104 95.184L97.7875 96.6405C97.767 96.8844 98.0347 97.0464 98.2412 96.9149L99.609 96.0443C99.7485 95.9555 99.9337 95.9983 100.02 96.1392L100.7 97.2486C100.794 97.4012 100.732 97.6014 100.568 97.6738L99.1841 98.2859C98.9492 98.3898 98.9492 98.7231 99.1841 98.827L100.568 99.4391C100.732 99.5115 100.794 99.7117 100.7 99.8643L100.02 100.974C99.9337 101.115 99.7485 101.157 99.609 101.069L98.2412 100.198C98.0347 100.067 97.767 100.229 97.7875 100.472L97.9104 101.929C97.925 102.102 97.7888 102.25 97.6156 102.25H96.2236Z" fill="#F1F3FF"/>
</g>
<path id="Rectangle 11964" d="M107.979 93.1855C107.979 92.8587 108.243 92.5938 108.57 92.5938C108.897 92.5938 109.162 92.8587 109.162 93.1855V104.502C109.162 104.829 108.897 105.094 108.57 105.094C108.243 105.094 107.979 104.829 107.979 104.502V93.1855Z" fill="#F1F3FF"/>
</g>
</g>
<defs>
<linearGradient id="paint0_linear_4233_7414" x1="71.7917" y1="-5.31937" x2="156.101" y2="119.951" gradientUnits="userSpaceOnUse">
<stop stop-color="#66D4F7"/>
<stop offset="0.322917" stop-color="#4D92FF"/>
<stop offset="1" stop-color="#BB65FF"/>
</linearGradient>
<linearGradient id="paint1_linear_4233_7414" x1="71.7917" y1="-5.31937" x2="156.101" y2="119.951" gradientUnits="userSpaceOnUse">
<stop stop-color="#66D4F7"/>
<stop offset="0.322917" stop-color="#4D92FF"/>
<stop offset="1" stop-color="#BB65FF"/>
</linearGradient>
<linearGradient id="paint2_linear_4233_7414" x1="64.7835" y1="79.5224" x2="92.4775" y2="134.383" gradientUnits="userSpaceOnUse">
<stop stop-color="#66D4F7"/>
<stop offset="0.322917" stop-color="#4D92FF"/>
<stop offset="1" stop-color="#BB65FF"/>
</linearGradient>
</defs>
</svg>
