<svg width="323" height="187" viewBox="0 0 323 187" fill="none" xmlns="http://www.w3.org/2000/svg">
<path d="M64.0162 30.6988C64.0515 30.8257 64.0271 30.9683 63.9326 31.0886C63.6203 31.4842 62.1831 32.2993 59.5207 33.5875C59.7557 35.9498 59.7952 37.2877 59.6604 37.6773C59.6003 37.8294 59.4749 37.9306 59.3247 37.943C59.0721 37.9552 58.7683 37.9673 56.9698 34.3561C51.2846 34.6714 51.0811 34.2621 50.9509 34.0241C50.9438 33.9987 50.9248 33.9765 50.9142 33.9384C50.8789 33.8115 50.9032 33.6689 50.9978 33.5486C51.3269 33.1213 53.0004 32.1894 55.9741 30.7781C55.6613 26.8021 55.9298 26.6632 56.1542 26.5495C56.2867 26.4736 56.4474 26.4993 56.5816 26.6137C56.9 26.8838 57.5631 28.0707 58.5922 30.2507C63.6564 30.0038 63.8457 30.3624 63.9676 30.6163C63.9901 30.6512 64.0091 30.6734 64.0162 30.6988Z" fill="#9D4492"/>
<path d="M266.956 5.81103C266.991 5.93791 266.967 6.08053 266.872 6.20082C266.56 6.59651 265.123 7.41172 262.46 8.70015C262.695 11.0625 262.735 12.4004 262.6 12.7901C262.54 12.9422 262.414 13.0434 262.264 13.0558C262.012 13.068 261.708 13.0801 259.909 9.46886C254.224 9.78458 254.021 9.37522 253.891 9.1372C253.884 9.11182 253.865 9.0896 253.854 9.05153C253.819 8.92465 253.843 8.78203 253.938 8.66174C254.267 8.23437 255.94 7.30231 258.914 5.89084C258.601 1.91465 258.87 1.77567 259.094 1.66197C259.227 1.58613 259.388 1.6118 259.522 1.72619C259.84 1.99627 260.503 3.18323 261.532 5.3632C266.596 5.11604 266.785 5.47465 266.907 5.72851C266.93 5.76342 266.949 5.78565 266.956 5.81103Z" fill="#9D4492"/>
<path d="M44.4102 119.043L40.5606 116.668L45.7706 106.846L49.6201 109.221L44.4102 119.043Z" fill="#9BEC7D"/>
<path d="M104.769 13.6536L105.63 9.93488L114.537 12.5983L113.676 16.317L104.769 13.6536Z" fill="#FFBF19"/>
<path d="M71.2409 71.2248L74.0961 67.8708L82.374 75.7244L79.5187 79.0784L71.2409 71.2248Z" fill="#9D4492"/>
<path d="M20.4189 67.8711L23.561 70.0362L18.7837 78.015L15.6416 75.8498L20.4189 67.8711Z" fill="#FFBF19"/>
<path d="M148.564 8.41479L149.82 4.07095L160.272 7.84544L159.016 12.1893L148.564 8.41479Z" fill="#9D4492"/>
<path d="M41.0911 10.9243L38.6374 14.6186L29.5954 7.77877L32.0492 4.08439L41.0911 10.9243Z" fill="#9BEC7D"/>
<path d="M70.1852 180.485C70.2099 180.574 70.1953 180.66 70.1378 180.729C69.9401 180.986 69.3283 181.671 67.6095 182.493C67.753 184.021 67.4594 184.732 67.3762 184.986C67.3412 185.09 67.2563 185.154 67.1538 185.153C66.988 185.156 66.5488 185.415 65.3744 183.083C61.7034 183.289 61.8157 182.776 61.734 182.62C61.7305 182.607 61.7234 182.582 61.7199 182.569C61.6951 182.481 61.7098 182.395 61.7673 182.325C61.9853 182.05 62.716 181.356 64.6391 180.44C64.4386 177.878 64.9493 177.876 65.0974 177.81C65.1858 177.759 65.2919 177.772 65.3763 177.845C65.5795 178.023 66.0344 178.479 66.7101 179.894C69.985 179.738 70.0739 180.269 70.1591 180.438C70.1627 180.45 70.1817 180.473 70.1852 180.485Z" fill="#9BEC7D"/>
<path d="M0.241035 142.096L2.03255 139.104L9.3145 144.122L7.52299 147.114L0.241035 142.096Z" fill="#FF623A"/>
<path d="M272.34 74.1264C272.304 74.2554 272.329 74.4004 272.425 74.5227C272.742 74.9249 274.203 75.7536 276.91 77.0633C276.671 79.4648 276.631 80.8249 276.768 81.2211C276.829 81.3757 276.957 81.4786 277.109 81.4911C277.366 81.5035 277.675 81.5158 279.503 77.8446C285.283 78.1653 285.49 77.7491 285.622 77.5071C285.629 77.4813 285.649 77.4587 285.659 77.42C285.695 77.291 285.671 77.1461 285.575 77.0238C285.24 76.5893 283.539 75.6419 280.515 74.2072C280.833 70.165 280.56 70.0237 280.332 69.9082C280.198 69.8311 280.034 69.8572 279.898 69.9735C279.574 70.248 278.9 71.4547 277.854 73.6709C272.706 73.4199 272.513 73.7845 272.389 74.0426C272.366 74.0781 272.347 74.1006 272.34 74.1264Z" fill="#9D4492"/>
<path d="M264.924 150.156L268.837 147.742L263.541 137.756L259.627 140.171L264.924 150.156Z" fill="#9BEC7D"/>
<path d="M317.916 118.941L314.725 121.15L319.567 129.275L322.758 127.066L317.916 118.941Z" fill="#FFBF19"/>
<path d="M200.67 39.2434L199.795 35.4628L190.74 38.1707L191.615 41.9513L200.67 39.2434Z" fill="#FFBF19"/>
<path d="M241.952 19.756L239.05 16.3462L230.634 24.3305L233.537 27.7403L241.952 19.756Z" fill="#9D4492"/>
<path d="M312.407 18.0319L311.129 13.6158L300.504 17.4533L301.781 21.8694L312.407 18.0319Z" fill="#9D4492"/>
<path d="M199.867 11.018L202.361 14.774L211.553 7.81992L209.059 4.06398L199.867 11.018Z" fill="#9BEC7D"/>
<path d="M296.931 175.172C296.906 175.263 296.921 175.35 296.979 175.421C297.18 175.681 297.802 176.379 299.55 177.214C299.404 178.768 299.702 179.491 299.787 179.749C299.823 179.855 299.909 179.919 300.013 179.919C300.182 179.922 300.628 180.185 301.822 177.813C305.555 178.023 305.44 177.501 305.523 177.343C305.527 177.33 305.534 177.304 305.538 177.292C305.563 177.201 305.548 177.114 305.49 177.043C305.268 176.763 304.525 176.058 302.57 175.127C302.774 172.521 302.254 172.519 302.104 172.452C302.014 172.401 301.906 172.414 301.82 172.488C301.614 172.669 301.151 173.132 300.464 174.571C297.135 174.412 297.044 174.953 296.958 175.124C296.954 175.137 296.935 175.159 296.931 175.172Z" fill="#9BEC7D"/>
<path d="M252.489 113.92L250.668 110.878L243.265 115.979L245.086 119.021L252.489 113.92Z" fill="#FF623A"/>
<path d="M251.274 59.8086L247.529 61.9749L253.225 69.9597L256.971 67.7934L251.274 59.8086Z" fill="#FFBF19"/>
<circle opacity="0.05" cx="161" cy="101" r="60" fill="#0E9F6E"/>
<circle opacity="0.1" cx="161" cy="100.999" r="51.4286" fill="#0E9F6E"/>
<circle opacity="0.2" cx="161" cy="100.998" r="39.6429" fill="#0E9F6E"/>
<circle cx="161" cy="101.001" r="31.0714" fill="#0E9F6E"/>
<path d="M149.75 102.604L156.179 109.032L172.25 92.9609" stroke="white" stroke-width="4.28571" stroke-linecap="round" stroke-linejoin="round"/>
</svg>
