<svg width="24" height="24" viewBox="0 0 24 24" fill="none" xmlns="http://www.w3.org/2000/svg">
<g id="View">
<path id="Vector" d="M6.00156 3.60156C5.36504 3.60156 4.75459 3.85442 4.30451 4.30451C3.85442 4.75459 3.60156 5.36504 3.60156 6.00156V8.40156C3.60156 9.03808 3.85442 9.64853 4.30451 10.0986C4.75459 10.5487 5.36504 10.8016 6.00156 10.8016H8.40156C9.03808 10.8016 9.64853 10.5487 10.0986 10.0986C10.5487 9.64853 10.8016 9.03808 10.8016 8.40156V6.00156C10.8016 5.36504 10.5487 4.75459 10.0986 4.30451C9.64853 3.85442 9.03808 3.60156 8.40156 3.60156H6.00156ZM6.00156 13.2016C5.36504 13.2016 4.75459 13.4544 4.30451 13.9045C3.85442 14.3546 3.60156 14.965 3.60156 15.6016V18.0016C3.60156 18.6381 3.85442 19.2485 4.30451 19.6986C4.75459 20.1487 5.36504 20.4016 6.00156 20.4016H8.40156C9.03808 20.4016 9.64853 20.1487 10.0986 19.6986C10.5487 19.2485 10.8016 18.6381 10.8016 18.0016V15.6016C10.8016 14.965 10.5487 14.3546 10.0986 13.9045C9.64853 13.4544 9.03808 13.2016 8.40156 13.2016H6.00156ZM13.2016 6.00156C13.2016 5.36504 13.4544 4.75459 13.9045 4.30451C14.3546 3.85442 14.965 3.60156 15.6016 3.60156H18.0016C18.6381 3.60156 19.2485 3.85442 19.6986 4.30451C20.1487 4.75459 20.4016 5.36504 20.4016 6.00156V8.40156C20.4016 9.03808 20.1487 9.64853 19.6986 10.0986C19.2485 10.5487 18.6381 10.8016 18.0016 10.8016H15.6016C14.965 10.8016 14.3546 10.5487 13.9045 10.0986C13.4544 9.64853 13.2016 9.03808 13.2016 8.40156V6.00156ZM13.2016 15.6016C13.2016 14.965 13.4544 14.3546 13.9045 13.9045C14.3546 13.4544 14.965 13.2016 15.6016 13.2016H18.0016C18.6381 13.2016 19.2485 13.4544 19.6986 13.9045C20.1487 14.3546 20.4016 14.965 20.4016 15.6016V18.0016C20.4016 18.6381 20.1487 19.2485 19.6986 19.6986C19.2485 20.1487 18.6381 20.4016 18.0016 20.4016H15.6016C14.965 20.4016 14.3546 20.1487 13.9045 19.6986C13.4544 19.2485 13.2016 18.6381 13.2016 18.0016V15.6016Z" fill="#D1D5DB"/>
</g>
</svg>
