<svg width="24" height="24" viewBox="0 0 24 24" fill="none" xmlns="http://www.w3.org/2000/svg">
<g id="View">
<path id="Vector" d="M5.99961 3.60156C5.36309 3.60156 4.75264 3.85442 4.30255 4.30451C3.85247 4.75459 3.59961 5.36504 3.59961 6.00156V8.40156C3.59961 9.03808 3.85247 9.64853 4.30255 10.0986C4.75264 10.5487 5.36309 10.8016 5.99961 10.8016H8.39961C9.03613 10.8016 9.64658 10.5487 10.0967 10.0986C10.5468 9.64853 10.7996 9.03808 10.7996 8.40156V6.00156C10.7996 5.36504 10.5468 4.75459 10.0967 4.30451C9.64658 3.85442 9.03613 3.60156 8.39961 3.60156H5.99961ZM5.99961 13.2016C5.36309 13.2016 4.75264 13.4544 4.30255 13.9045C3.85247 14.3546 3.59961 14.965 3.59961 15.6016V18.0016C3.59961 18.6381 3.85247 19.2485 4.30255 19.6986C4.75264 20.1487 5.36309 20.4016 5.99961 20.4016H8.39961C9.03613 20.4016 9.64658 20.1487 10.0967 19.6986C10.5468 19.2485 10.7996 18.6381 10.7996 18.0016V15.6016C10.7996 14.965 10.5468 14.3546 10.0967 13.9045C9.64658 13.4544 9.03613 13.2016 8.39961 13.2016H5.99961ZM13.1996 6.00156C13.1996 5.36504 13.4525 4.75459 13.9026 4.30451C14.3526 3.85442 14.9631 3.60156 15.5996 3.60156H17.9996C18.6361 3.60156 19.2466 3.85442 19.6967 4.30451C20.1468 4.75459 20.3996 5.36504 20.3996 6.00156V8.40156C20.3996 9.03808 20.1468 9.64853 19.6967 10.0986C19.2466 10.5487 18.6361 10.8016 17.9996 10.8016H15.5996C14.9631 10.8016 14.3526 10.5487 13.9026 10.0986C13.4525 9.64853 13.1996 9.03808 13.1996 8.40156V6.00156ZM13.1996 15.6016C13.1996 14.965 13.4525 14.3546 13.9026 13.9045C14.3526 13.4544 14.9631 13.2016 15.5996 13.2016H17.9996C18.6361 13.2016 19.2466 13.4544 19.6967 13.9045C20.1468 14.3546 20.3996 14.965 20.3996 15.6016V18.0016C20.3996 18.6381 20.1468 19.2485 19.6967 19.6986C19.2466 20.1487 18.6361 20.4016 17.9996 20.4016H15.5996C14.9631 20.4016 14.3526 20.1487 13.9026 19.6986C13.4525 19.2485 13.1996 18.6381 13.1996 18.0016V15.6016Z" fill="#374151"/>
</g>
</svg>
