<svg width="57" height="31" viewBox="0 0 57 31" fill="none" xmlns="http://www.w3.org/2000/svg">
<path d="M0.819726 12.2V5.04H1.57973L1.65973 5.86C1.81973 5.62 2.04639 5.40333 2.33973 5.21C2.63973 5.01667 3.01973 4.92 3.47973 4.92C3.97306 4.92 4.40306 5.03333 4.76973 5.26C5.13639 5.48667 5.41973 5.79667 5.61973 6.19C5.82639 6.58333 5.92973 7.03 5.92973 7.53C5.92973 8.03 5.82639 8.47667 5.61973 8.87C5.41973 9.25667 5.13306 9.56333 4.75973 9.79C4.39306 10.01 3.96306 10.12 3.46973 10.12C3.06306 10.12 2.69973 10.0367 2.37973 9.87C2.06639 9.70333 1.82639 9.47 1.65973 9.17V12.2H0.819726ZM3.37973 9.39C3.71306 9.39 4.00639 9.31333 4.25973 9.16C4.51306 9 4.71306 8.78 4.85973 8.5C5.00639 8.22 5.07973 7.89333 5.07973 7.52C5.07973 7.14667 5.00639 6.82 4.85973 6.54C4.71306 6.26 4.51306 6.04333 4.25973 5.89C4.00639 5.73 3.71306 5.65 3.37973 5.65C3.04639 5.65 2.75306 5.73 2.49973 5.89C2.24639 6.04333 2.04639 6.26 1.89973 6.54C1.75306 6.82 1.67973 7.14667 1.67973 7.52C1.67973 7.89333 1.75306 8.22 1.89973 8.5C2.04639 8.78 2.24639 9 2.49973 9.16C2.75306 9.31333 3.04639 9.39 3.37973 9.39ZM9.37902 10.12C8.91236 10.12 8.49236 10.0133 8.11902 9.8C7.74569 9.58667 7.44902 9.28667 7.22902 8.9C7.01569 8.50667 6.90902 8.04667 6.90902 7.52C6.90902 6.99333 7.01902 6.53667 7.23902 6.15C7.45902 5.75667 7.75569 5.45333 8.12902 5.24C8.50902 5.02667 8.93236 4.92 9.39902 4.92C9.86569 4.92 10.2857 5.02667 10.659 5.24C11.0324 5.45333 11.3257 5.75667 11.539 6.15C11.759 6.53667 11.869 6.99333 11.869 7.52C11.869 8.04667 11.759 8.50667 11.539 8.9C11.319 9.28667 11.019 9.58667 10.639 9.8C10.2657 10.0133 9.84569 10.12 9.37902 10.12ZM9.37902 9.4C9.66569 9.4 9.93236 9.33 10.179 9.19C10.4257 9.05 10.6257 8.84 10.779 8.56C10.9324 8.28 11.009 7.93333 11.009 7.52C11.009 7.10667 10.9324 6.76 10.779 6.48C10.6324 6.2 10.4357 5.99 10.189 5.85C9.94236 5.71 9.67902 5.64 9.39902 5.64C9.11236 5.64 8.84569 5.71 8.59902 5.85C8.35236 5.99 8.15236 6.2 7.99902 6.48C7.84569 6.76 7.76902 7.10667 7.76902 7.52C7.76902 7.93333 7.84569 8.28 7.99902 8.56C8.15236 8.84 8.34902 9.05 8.58902 9.19C8.83569 9.33 9.09902 9.4 9.37902 9.4ZM13.8714 10L12.4214 5.04H13.2614L14.3114 8.93L15.4714 5.04H16.4214L17.5914 8.93L18.6314 5.04H19.4814L18.0314 10H17.1714L15.9514 5.91L14.7314 10H13.8714ZM22.475 10.12C22.0016 10.12 21.5816 10.0133 21.215 9.8C20.8483 9.58 20.5583 9.27667 20.345 8.89C20.1383 8.50333 20.035 8.04667 20.035 7.52C20.035 7 20.1383 6.54667 20.345 6.16C20.5516 5.76667 20.8383 5.46333 21.205 5.25C21.5783 5.03 22.0083 4.92 22.495 4.92C22.975 4.92 23.3883 5.03 23.735 5.25C24.0883 5.46333 24.3583 5.74667 24.545 6.1C24.7316 6.45333 24.825 6.83333 24.825 7.24C24.825 7.31333 24.8216 7.38667 24.815 7.46C24.815 7.53333 24.815 7.61667 24.815 7.71H20.865C20.885 8.09 20.9716 8.40667 21.125 8.66C21.285 8.90667 21.4816 9.09333 21.715 9.22C21.955 9.34667 22.2083 9.41 22.475 9.41C22.8216 9.41 23.1116 9.33 23.345 9.17C23.5783 9.01 23.7483 8.79333 23.855 8.52H24.685C24.5516 8.98 24.295 9.36333 23.915 9.67C23.5416 9.97 23.0616 10.12 22.475 10.12ZM22.475 5.63C22.075 5.63 21.7183 5.75333 21.405 6C21.0983 6.24 20.9216 6.59333 20.875 7.06H23.995C23.975 6.61333 23.8216 6.26333 23.535 6.01C23.2483 5.75667 22.895 5.63 22.475 5.63ZM25.9583 10V5.04H26.7183L26.7883 5.99C26.9417 5.66333 27.175 5.40333 27.4883 5.21C27.8017 5.01667 28.1883 4.92 28.6483 4.92V5.8H28.4183C28.125 5.8 27.855 5.85333 27.6083 5.96C27.3617 6.06 27.165 6.23333 27.0183 6.48C26.8717 6.72667 26.7983 7.06667 26.7983 7.5V10H25.9583ZM31.6556 10.12C31.1823 10.12 30.7623 10.0133 30.3956 9.8C30.0289 9.58 29.7389 9.27667 29.5256 8.89C29.3189 8.50333 29.2156 8.04667 29.2156 7.52C29.2156 7 29.3189 6.54667 29.5256 6.16C29.7323 5.76667 30.0189 5.46333 30.3856 5.25C30.7589 5.03 31.1889 4.92 31.6756 4.92C32.1556 4.92 32.5689 5.03 32.9156 5.25C33.2689 5.46333 33.5389 5.74667 33.7256 6.1C33.9123 6.45333 34.0056 6.83333 34.0056 7.24C34.0056 7.31333 34.0023 7.38667 33.9956 7.46C33.9956 7.53333 33.9956 7.61667 33.9956 7.71H30.0456C30.0656 8.09 30.1523 8.40667 30.3056 8.66C30.4656 8.90667 30.6623 9.09333 30.8956 9.22C31.1356 9.34667 31.3889 9.41 31.6556 9.41C32.0023 9.41 32.2923 9.33 32.5256 9.17C32.7589 9.01 32.9289 8.79333 33.0356 8.52H33.8656C33.7323 8.98 33.4756 9.36333 33.0956 9.67C32.7223 9.97 32.2423 10.12 31.6556 10.12ZM31.6556 5.63C31.2556 5.63 30.8989 5.75333 30.5856 6C30.2789 6.24 30.1023 6.59333 30.0556 7.06H33.1756C33.1556 6.61333 33.0023 6.26333 32.7156 6.01C32.4289 5.75667 32.0756 5.63 31.6556 5.63ZM37.3889 10.12C36.8956 10.12 36.4623 10.0067 36.0889 9.78C35.7223 9.55333 35.4356 9.24333 35.2289 8.85C35.0289 8.45667 34.9289 8.01 34.9289 7.51C34.9289 7.01 35.0323 6.56667 35.2389 6.18C35.4456 5.78667 35.7323 5.48 36.0989 5.26C36.4656 5.03333 36.8989 4.92 37.3989 4.92C37.8056 4.92 38.1656 5.00333 38.4789 5.17C38.7923 5.33667 39.0356 5.57 39.2089 5.87V2.8H40.0489V10H39.2889L39.2089 9.18C39.0489 9.42 38.8189 9.63667 38.5189 9.83C38.2189 10.0233 37.8423 10.12 37.3889 10.12ZM37.4789 9.39C37.8123 9.39 38.1056 9.31333 38.3589 9.16C38.6189 9 38.8189 8.78 38.9589 8.5C39.1056 8.22 39.1789 7.89333 39.1789 7.52C39.1789 7.14667 39.1056 6.82 38.9589 6.54C38.8189 6.26 38.6189 6.04333 38.3589 5.89C38.1056 5.73 37.8123 5.65 37.4789 5.65C37.1523 5.65 36.8589 5.73 36.5989 5.89C36.3456 6.04333 36.1456 6.26 35.9989 6.54C35.8589 6.82 35.7889 7.14667 35.7889 7.52C35.7889 7.89333 35.8589 8.22 35.9989 8.5C36.1456 8.78 36.3456 9 36.5989 9.16C36.8589 9.31333 37.1523 9.39 37.4789 9.39ZM46.7547 10.12C46.3481 10.12 45.9847 10.0367 45.6647 9.87C45.3514 9.70333 45.1114 9.47 44.9447 9.17L44.8647 10H44.1047V2.8H44.9447V5.86C45.1047 5.62 45.3314 5.40333 45.6247 5.21C45.9247 5.01667 46.3047 4.92 46.7647 4.92C47.2581 4.92 47.6881 5.03333 48.0547 5.26C48.4214 5.48667 48.7047 5.79667 48.9047 6.19C49.1114 6.58333 49.2147 7.03 49.2147 7.53C49.2147 8.03 49.1114 8.47667 48.9047 8.87C48.7047 9.25667 48.4181 9.56333 48.0447 9.79C47.6781 10.01 47.2481 10.12 46.7547 10.12ZM46.6647 9.39C46.9981 9.39 47.2914 9.31333 47.5447 9.16C47.7981 9 47.9981 8.78 48.1447 8.5C48.2914 8.22 48.3647 7.89333 48.3647 7.52C48.3647 7.14667 48.2914 6.82 48.1447 6.54C47.9981 6.26 47.7981 6.04333 47.5447 5.89C47.2914 5.73 46.9981 5.65 46.6647 5.65C46.3314 5.65 46.0381 5.73 45.7847 5.89C45.5314 6.04333 45.3314 6.26 45.1847 6.54C45.0381 6.82 44.9647 7.14667 44.9647 7.52C44.9647 7.89333 45.0381 8.22 45.1847 8.5C45.3314 8.78 45.5314 9 45.7847 9.16C46.0381 9.31333 46.3314 9.39 46.6647 9.39ZM50.5436 12.2L51.7736 9.52H51.4836L49.5136 5.04H50.4236L52.0636 8.9L53.8036 5.04H54.6736L51.4236 12.2H50.5436Z" fill="#C3C3C3"/>
<path fill-rule="evenodd" clip-rule="evenodd" d="M25.1235 26.2281C25.431 25.3527 25.582 24.4293 25.5694 23.5008C25.5815 22.5754 25.4306 21.6551 25.1235 20.7828C24.8495 20.006 24.4225 19.2932 23.868 18.6871C23.3236 18.1038 22.661 17.6454 21.9253 17.3428C21.1316 17.0208 20.2825 16.8606 19.427 16.8714C18.5727 16.8602 17.7249 17.0224 16.9342 17.3483C16.2013 17.6534 15.5406 18.1109 14.9952 18.6908C14.4403 19.2952 14.0132 20.0069 13.7396 20.7828C13.4326 21.6551 13.2816 22.5754 13.2937 23.5008C13.2811 24.4293 13.4321 25.3527 13.7396 26.2281C14.0132 27.0039 14.4403 27.7156 14.9952 28.3201C15.5398 28.9 16.2008 29.3564 16.9342 29.6588C18.5394 30.2874 20.3201 30.2874 21.9253 29.6588C22.66 29.3569 23.3223 28.9005 23.868 28.3201C24.4228 27.7156 24.85 27.0039 25.1235 26.2281ZM24.2332 21.0609C24.4894 21.848 24.6129 22.6727 24.5987 23.5009C24.6138 24.3303 24.4902 25.1564 24.2332 25.9446C24.0083 26.6206 23.6482 27.243 23.175 27.7732C22.7195 28.2755 22.1572 28.6677 21.5302 28.9204C20.1772 29.4436 18.6799 29.4436 17.3268 28.9204C16.7007 28.6661 16.1387 28.2742 15.682 27.7732C15.2066 27.2434 14.844 26.621 14.6166 25.9446C14.3549 25.1573 14.2276 24.331 14.2401 23.5009C14.23 22.675 14.3579 21.8533 14.6184 21.0701C14.8443 20.389 15.207 19.7622 15.6838 19.2286C16.1414 18.7277 16.703 18.3347 17.3287 18.0776C18.6803 17.5472 20.1804 17.5472 21.5321 18.0776C22.1585 18.3331 22.7205 18.7263 23.1769 19.2286C23.6498 19.76 24.0093 20.3837 24.2332 21.0609Z" fill="#0364FF"/>
<path fill-rule="evenodd" clip-rule="evenodd" d="M35.1358 30.1299C35.4412 30.1299 35.6139 29.7796 35.4279 29.5373L31.4781 24.3917C31.3712 24.2451 31.2391 24.1203 31.0884 24.0234C31.6104 23.9656 32.1217 23.8304 32.6064 23.6219C33.0314 23.4375 33.4208 23.1755 33.7561 22.8485C34.0701 22.5363 34.3179 22.16 34.484 21.7435C34.6575 21.3035 34.744 20.832 34.7385 20.3569C34.7349 19.2139 34.3659 18.3471 33.6315 17.7566C32.8971 17.1661 31.7937 16.8708 30.3214 16.8708H27.4115C27.2081 16.8708 27.0432 17.0358 27.0432 17.2392V29.7616C27.0432 29.965 27.2081 30.1299 27.4115 30.1299H27.6074C27.8109 30.1299 27.9758 29.965 27.9758 29.7616V24.5022C27.9758 24.2988 28.1407 24.1339 28.3441 24.1339H29.6558C29.7635 24.1328 29.8711 24.1396 29.9779 24.1541C30.0557 24.1625 30.1319 24.1829 30.2039 24.2149C30.2696 24.2419 30.3299 24.2813 30.3819 24.3309C30.4368 24.3876 30.4868 24.4492 30.5314 24.515L34.6424 29.8942C34.6904 29.972 34.7573 30.0355 34.8364 30.0783C34.9175 30.1153 35.0057 30.133 35.0944 30.1299H35.1358ZM31.7133 23.2094C31.2178 23.3575 30.7039 23.4288 30.1882 23.4212H28.3444C28.1409 23.4212 27.976 23.2563 27.976 23.0529V17.9979C27.976 17.7945 28.1409 17.6296 28.3444 17.6296H30.3234C31.4612 17.6308 32.3267 17.8592 32.9199 18.3146C33.5132 18.7701 33.8098 19.4693 33.8098 20.4121C33.8162 20.841 33.733 21.2663 33.566 21.6589C33.4029 22.0273 33.1592 22.3514 32.8541 22.6054C32.5162 22.8829 32.1285 23.0882 31.7133 23.2094Z" fill="#0364FF"/>
<path d="M42.2668 29.2856C42.8422 29.2962 43.4133 29.1846 43.9432 28.9581C44.42 28.749 44.8464 28.4383 45.1932 28.0472C45.5426 27.6465 45.809 27.1791 45.9767 26.6727C46.1591 26.1231 46.249 25.5466 46.2427 24.967V17.3382C46.2427 17.0801 46.452 16.8708 46.7101 16.8708C46.9682 16.8708 47.1775 17.0801 47.1775 17.3382V24.967C47.1834 25.6566 47.0687 26.3418 46.8386 26.9911C46.6242 27.5971 46.2921 28.1539 45.8619 28.6287C45.4295 29.1032 44.9022 29.4795 44.3149 29.7327C43 30.2627 41.5337 30.2627 40.2188 29.7327C39.6312 29.48 39.1038 29.1037 38.6718 28.6287C38.2409 28.1544 37.9088 27.5975 37.6951 26.9911C37.465 26.3418 37.3502 25.6566 37.3562 24.967V17.34C37.3562 17.0809 37.5662 16.8708 37.8254 16.8708C38.0845 16.8708 38.2946 17.0809 38.2946 17.34V24.956C38.2893 25.5364 38.3805 26.1136 38.5643 26.6635C38.732 27.1691 38.9971 27.6362 39.3441 28.038C39.6879 28.4324 40.1125 28.7463 40.5886 28.9581C41.1186 29.1866 41.6907 29.2982 42.2668 29.2856Z" fill="#0364FF"/>
<path d="M56.4254 18.593C56.3854 18.6881 56.2933 18.7497 56.1915 18.7495C56.0745 18.7297 55.9676 18.67 55.8886 18.5801C55.7312 18.4447 55.5639 18.3216 55.3881 18.2119C55.1398 18.0549 54.8745 17.9277 54.5975 17.8326C53.8179 17.5884 52.9831 17.5948 52.2074 17.851C51.8783 17.9717 51.5771 18.1597 51.3224 18.4034C51.087 18.6302 50.9016 18.905 50.7784 19.2098C50.6564 19.515 50.5948 19.8416 50.597 20.171C50.5816 20.5536 50.6768 20.9326 50.8709 21.261C51.0597 21.5549 51.3067 21.8057 51.5962 21.9975C51.9165 22.2079 52.2605 22.3785 52.6208 22.5057C53.0016 22.6419 53.3952 22.7782 53.7977 22.9126C54.2003 23.047 54.5938 23.1961 54.9747 23.3563C55.3424 23.5103 55.6872 23.7154 55.9992 23.9658C56.3002 24.212 56.5473 24.5193 56.7246 24.868C56.9199 25.2836 57.0138 25.7408 56.9984 26.2011C57.0032 26.7249 56.9115 27.2451 56.7282 27.7348C56.5508 28.2038 56.2783 28.6297 55.9285 28.985C55.5626 29.3502 55.1269 29.6353 54.6482 29.8228C54.0947 30.0356 53.5064 30.1394 52.9146 30.1285C52.1646 30.1488 51.4201 29.9938 50.7385 29.6755C50.2718 29.4427 49.8437 29.1395 49.4681 28.777C49.2654 28.5814 49.2449 28.2699 49.3947 28.0313C49.4523 27.9472 49.5459 27.8959 49.6468 27.8932C49.7265 27.9055 49.7998 27.9443 49.8553 28.0037L50.1618 28.2725C50.2815 28.3811 50.4266 28.4971 50.5952 28.6223C50.7789 28.7574 50.975 28.8739 51.181 28.9703C51.7298 29.2275 52.3283 29.3571 52.9327 29.3496C53.3947 29.3577 53.854 29.2784 54.2874 29.1158C54.6612 28.9722 55.0024 28.753 55.2902 28.4713C55.564 28.2015 55.7774 27.8749 55.9158 27.5139C56.0626 27.1364 56.1364 26.7339 56.1334 26.3281C56.1489 25.9318 56.0533 25.5391 55.8578 25.1957C55.6714 24.8998 55.4239 24.6485 55.1324 24.4592C54.8124 24.2519 54.469 24.0843 54.1096 23.9603C53.727 23.8259 53.3353 23.6951 52.9309 23.5662C52.5265 23.4373 52.1366 23.2956 51.754 23.1354C51.385 22.9849 51.0397 22.7802 50.7294 22.5278C50.4257 22.2769 50.1784 21.963 50.004 21.6071C49.8062 21.1727 49.7118 20.6971 49.7284 20.2188C49.7283 19.7882 49.8108 19.3617 49.9714 18.9631C50.134 18.5617 50.3767 18.1987 50.6841 17.897C51.0193 17.5762 51.4138 17.3259 51.8447 17.1605C52.347 16.963 52.8819 16.8649 53.4205 16.8714C54.0294 16.8618 54.6345 16.9706 55.2031 17.1918C55.5987 17.3553 55.9669 17.578 56.2958 17.8518C56.5128 18.0324 56.5545 18.3419 56.4254 18.593Z" fill="#0364FF"/>
<path fill-rule="evenodd" clip-rule="evenodd" d="M1.27502 16.8701C0.589453 16.8701 0.0336914 17.4259 0.0336914 18.1114V19.5575C0.0336914 20.2431 0.589452 20.7988 1.27502 20.7988H3.47126V28.8882C3.47126 29.5737 4.02702 30.1295 4.71259 30.1295H6.15864C6.8442 30.1295 7.39997 29.5737 7.39997 28.8882V19.568C7.39999 19.5645 7.40001 19.561 7.40001 19.5575V18.1114C7.40001 17.4259 6.84425 16.8701 6.15868 16.8701H4.71259H1.27502Z" fill="#0364FF"/>
<path d="M10.3464 20.7996C11.4313 20.7996 12.3108 19.9201 12.3108 18.8352C12.3108 17.7503 11.4313 16.8708 10.3464 16.8708C9.26155 16.8708 8.38208 17.7503 8.38208 18.8352C8.38208 19.9201 9.26155 20.7996 10.3464 20.7996Z" fill="#0364FF"/>
</svg>
