<svg width="162" height="49" viewBox="0 0 162 49" fill="none" xmlns="http://www.w3.org/2000/svg">
<path fill-rule="evenodd" clip-rule="evenodd" d="M81.7895 25.1288C80.7235 25.1288 79.7464 24.9055 78.8581 24.4589C78.3569 24.2012 77.9214 23.8951 77.5517 23.5404C77.318 23.3162 76.8446 23.4683 76.8446 23.7894V24.2686C76.8446 24.4863 76.6652 24.6628 76.4438 24.6628H74.5214C74.3 24.6628 74.1205 24.4863 74.1205 24.2686V4.20284C74.1205 3.9851 74.3 3.80859 74.5214 3.80859H76.4348C76.6562 3.80859 76.8356 3.9851 76.8356 4.20283V11.2652C76.8356 11.5863 77.3102 11.7393 77.5445 11.5158C77.9171 11.1604 78.3561 10.8537 78.8581 10.5957C79.7464 10.1491 80.7235 9.92579 81.7895 9.92579C83.7042 9.92579 85.3229 10.6636 86.6454 12.1393C88.0075 13.6343 88.6885 15.4303 88.6885 17.5273C88.6885 19.6437 88.0075 21.4397 86.6454 22.9153C85.3229 24.391 83.7042 25.1288 81.7895 25.1288ZM81.3453 22.6823C82.6481 22.6823 83.7437 22.1969 84.632 21.2261C85.5203 20.2747 85.9644 19.0418 85.9644 17.5273C85.9644 16.0322 85.5203 14.7993 84.632 13.8285C83.7437 12.8577 82.6481 12.3723 81.3453 12.3723C80.0227 12.3723 78.9173 12.8577 78.029 13.8285C77.1605 14.7993 76.7262 16.0322 76.7262 17.5273C76.7262 19.0418 77.1605 20.2844 78.029 21.2552C78.9173 22.2066 80.0227 22.6823 81.3453 22.6823ZM64.76 25.1288C62.6281 25.1288 60.8712 24.4104 59.4895 22.9736C58.1077 21.5368 57.4168 19.7213 57.4168 17.5273C57.4168 15.3527 58.0879 13.5469 59.4302 12.1101C60.7725 10.6539 62.4899 9.92578 64.5823 9.92578C66.7339 9.92578 68.4414 10.6151 69.7048 11.9936C71.0663 13.4358 71.7172 15.6049 71.6319 17.5777C71.6209 17.8307 71.4038 18.0224 71.1464 18.0224H60.6894C60.4214 18.0224 60.2041 18.2405 60.2319 18.5028C60.3566 19.6806 60.8197 20.6467 61.6213 21.4009C62.5294 22.2552 63.6151 22.6823 64.8784 22.6823C66.4902 22.6823 67.7791 21.9468 68.7451 20.4759C68.8742 20.2792 69.1312 20.1993 69.3451 20.302L70.9727 21.0829C71.2021 21.193 71.2941 21.4691 71.1612 21.6835C70.532 22.6982 69.7011 23.5069 68.6684 24.1094C67.5235 24.789 66.2207 25.1288 64.76 25.1288ZM60.565 15.2465C60.4686 15.5307 60.6962 15.8089 61.0007 15.8089H68.2129C68.4904 15.8089 68.7123 15.5751 68.6559 15.3078C68.4943 14.5402 68.1036 13.8917 67.4841 13.3625C66.7537 12.7023 65.7667 12.3722 64.5231 12.3722C63.4966 12.3722 62.6083 12.6829 61.8582 13.3042C61.2636 13.8101 60.8325 14.4575 60.565 15.2465ZM56.5817 10.9392C56.6703 10.6687 56.4653 10.3918 56.1764 10.3918H54.2963C54.1075 10.3918 53.9412 10.5141 53.8878 10.6923L51.1149 19.9508C51.0036 20.3222 50.4718 20.3299 50.3494 19.962L47.2636 10.6805C47.2063 10.5083 47.043 10.3918 46.8588 10.3918H44.6627C44.4789 10.3918 44.3158 10.5078 44.2582 10.6795L41.1445 19.9681C41.0214 20.3353 40.4904 20.3269 40.3794 19.9561L37.6049 10.6923C37.5515 10.5141 37.3852 10.3918 37.1963 10.3918H35.2571C34.9682 10.3918 34.7631 10.6687 34.8518 10.9392L39.2555 24.3725C39.3122 24.5455 39.4759 24.6628 39.6608 24.6628H41.794C41.979 24.6628 42.1428 24.5454 42.1994 24.3722L45.3071 14.8734C45.4263 14.5092 45.9499 14.5086 46.0699 14.8725L49.204 24.3732C49.2609 24.5459 49.4245 24.6628 49.609 24.6628H51.7727C51.9575 24.6628 52.1212 24.5455 52.178 24.3725L56.5817 10.9392ZM140.981 23.8182C141.771 24.5366 142.758 24.8958 143.942 24.8958C144.726 24.8958 145.429 24.8095 146.05 24.6367C146.262 24.5778 146.37 24.3523 146.297 24.148L145.715 22.531C145.637 22.3142 145.388 22.2095 145.165 22.2789C145.105 22.2977 145.042 22.3157 144.978 22.3329C144.781 22.3717 144.574 22.3911 144.357 22.3911C143.883 22.3911 143.458 22.2261 143.083 21.896C142.708 21.5465 142.521 20.896 142.521 19.9446V13.2325C142.521 13.0148 142.7 12.8382 142.922 12.8382H145.673C145.895 12.8382 146.074 12.6617 146.074 12.444V10.786C146.074 10.5683 145.895 10.3918 145.673 10.3918H142.922C142.7 10.3918 142.521 10.2153 142.521 9.99754V4.20283C142.521 3.9851 142.341 3.80859 142.12 3.80859H140.197C139.976 3.80859 139.797 3.9851 139.797 4.20283V9.99754C139.797 10.2153 139.617 10.3918 139.396 10.3918H137.651C137.43 10.3918 137.25 10.5683 137.25 10.786V12.444C137.25 12.6617 137.43 12.8382 137.651 12.8382H139.396C139.617 12.8382 139.797 13.0148 139.797 13.2325V20.8184C139.816 22.0999 140.211 23.0998 140.981 23.8182ZM102.077 23.3813C103.4 22.2164 104.061 20.7601 104.061 19.0127C104.061 17.9447 103.755 16.9836 103.143 16.1293C102.862 15.7231 102.457 15.2068 101.27 14.5524C101.02 14.4142 101.013 14.0459 101.25 13.8861C102.67 12.929 103.38 11.4798 103.38 9.78016C103.38 8.1686 102.778 6.858 101.574 5.84835C100.35 4.79986 98.8399 4.27562 97.0436 4.27562C95.6026 4.27562 94.3491 4.65424 93.2832 5.41148C92.3333 6.08623 91.6264 6.94598 91.1625 7.99072C91.0663 8.20721 91.1768 8.45449 91.3979 8.54662L93.0811 9.24783C93.3195 9.34713 93.5919 9.22777 93.6988 8.99589C94.3619 7.55769 95.4769 6.83858 97.0436 6.83858C98.1095 6.83858 98.9682 7.11041 99.6196 7.65407C100.271 8.19773 100.597 8.90643 100.597 9.78016C100.597 10.7316 100.251 11.5082 99.5604 12.1101C98.8695 12.6926 97.9812 12.9839 96.8955 12.9839H95.8067C95.5577 12.9839 95.3558 13.1824 95.3558 13.4274V15.0451C95.3558 15.29 95.5577 15.4886 95.8067 15.4886H97.1028C98.2477 15.4886 99.2248 15.8284 100.034 16.5079C100.863 17.1875 101.278 18.0224 101.278 19.0127C101.278 20.0029 100.883 20.8475 100.093 21.5465C99.2841 22.2261 98.3267 22.5658 97.2213 22.5658C96.2145 22.5658 95.346 22.2746 94.6156 21.6921C94.0107 21.1798 93.5488 20.4845 93.23 19.6064C93.139 19.3557 92.8558 19.2194 92.6059 19.3218L90.959 19.9967C90.7479 20.0833 90.6347 20.3122 90.7087 20.5251C91.1691 21.8486 91.968 22.9366 93.1055 23.7891C94.3294 24.6822 95.7013 25.1288 97.2213 25.1288C99.1557 25.1288 100.774 24.5463 102.077 23.3813ZM108.895 20.2941C108.895 19.5175 109.26 18.867 109.99 18.3428C110.741 17.8185 111.668 17.5564 112.774 17.5564C114.192 17.5564 115.318 17.8438 116.152 18.4185C116.265 18.4963 116.328 18.6259 116.321 18.7613C116.267 19.7978 115.815 20.7068 114.965 21.4882C114.077 22.3231 113.06 22.7406 111.915 22.7406C111.106 22.7406 110.395 22.5076 109.783 22.0416C109.191 21.5756 108.895 20.9931 108.895 20.2941ZM117.186 11.5276C116.021 10.4597 114.432 9.92579 112.418 9.92579C109.991 9.92579 108.12 10.7471 106.806 12.3896C106.664 12.5665 106.718 12.8221 106.911 12.942L108.629 14.006C108.811 14.1185 109.049 14.069 109.183 13.9042C110.046 12.8441 111.173 12.314 112.566 12.314C113.573 12.314 114.452 12.6441 115.202 13.3042C115.957 13.9491 116.224 14.7241 116.3 15.5994C116.327 15.9003 115.993 16.0948 115.709 15.9785C114.772 15.5936 113.645 15.4012 112.33 15.4012C110.435 15.4012 108.915 15.8381 107.77 16.7118C106.645 17.5855 106.082 18.7602 106.082 20.2359C106.082 21.6339 106.615 22.7988 107.681 23.7308C108.767 24.6628 110.109 25.1288 111.708 25.1288C113.583 25.1288 115.083 24.3133 116.208 22.6823V24.2686C116.208 24.4863 116.388 24.6628 116.609 24.6628H118.532C118.753 24.6628 118.933 24.4863 118.933 24.2686V15.8672C118.933 14.0226 118.35 12.5761 117.186 11.5276ZM134.737 24.2439C134.737 24.4753 134.546 24.6628 134.311 24.6628H132.439C132.204 24.6628 132.013 24.4753 132.013 24.2439V23.776C132.013 23.4742 131.549 23.3295 131.33 23.5413C130.987 23.8737 130.573 24.1699 130.088 24.4298C129.24 24.8958 128.351 25.1288 127.424 25.1288C125.647 25.1288 124.275 24.6337 123.308 23.6435C122.36 22.6338 121.887 21.2067 121.887 19.3621V10.8107C121.887 10.5793 122.077 10.3918 122.312 10.3918H124.185C124.42 10.3918 124.611 10.5793 124.611 10.8107V19.1874C124.67 21.5174 125.864 22.6823 128.193 22.6823C129.279 22.6823 130.187 22.2552 130.917 21.4009C131.648 20.5271 132.013 19.4884 132.013 18.2845V10.8107C132.013 10.5793 132.204 10.3918 132.439 10.3918H134.311C134.546 10.3918 134.737 10.5793 134.737 10.8107V24.2439ZM148.81 4.20284C148.81 3.9851 148.989 3.80859 149.211 3.80859H151.133C151.354 3.80859 151.534 3.9851 151.534 4.20283V11.2785C151.534 11.5804 151.997 11.7239 152.214 11.5107C152.552 11.1794 152.957 10.884 153.429 10.6248C154.297 10.1588 155.196 9.92579 156.123 9.92579C157.9 9.92579 159.262 10.4306 160.21 11.4403C161.177 12.4305 161.66 13.8479 161.66 15.6925V24.2686C161.66 24.4863 161.481 24.6628 161.26 24.6628H159.337C159.116 24.6628 158.936 24.4863 158.936 24.2686V16.2167C158.936 13.6537 157.782 12.3723 155.472 12.3723C154.367 12.3723 153.429 12.8285 152.659 13.7411C151.909 14.6343 151.534 15.6827 151.534 16.8866V24.2686C151.534 24.4863 151.354 24.6628 151.133 24.6628H149.211C148.989 24.6628 148.81 24.4863 148.81 24.2686V4.20284Z" fill="#0F1222"/>
<path d="M24.145 22.4006C24.3036 22.9925 25.1432 22.9925 25.3018 22.4006L29.8664 5.3634C30.0766 4.57894 29.4856 3.80859 28.6735 3.80859H25.8592C25.3002 3.80859 24.8109 4.18407 24.6662 4.72405L22.0922 14.3316C22.0565 14.4649 22.0565 14.6052 22.0922 14.7385L24.145 22.4006Z" fill="#0364FF"/>
<path d="M8.19245 14.3192C8.22816 14.4524 8.22816 14.5928 8.19245 14.726L6.13959 22.3882C5.98103 22.98 5.14138 22.98 4.98282 22.3882L0.421515 5.3634C0.211341 4.57894 0.802388 3.80859 1.61444 3.80859H4.42879C4.98776 3.80859 5.47704 4.18407 5.62171 4.72405L8.19245 14.3192Z" fill="#0364FF"/>
<path d="M12.0403 26.1457C11.9006 26.6687 11.4281 27.0324 10.8883 27.0324H8.00821C7.22398 27.0324 6.65318 26.2862 6.85615 25.5264L12.3983 4.77848C12.5511 4.20639 13.068 3.80859 13.6584 3.80859H17.0081C17.5985 3.80859 18.1154 4.20639 18.2682 4.77847L23.8104 25.5264C24.0133 26.2862 23.4425 27.0324 22.6583 27.0324H19.7782C19.2384 27.0324 18.7659 26.6687 18.6262 26.1457L15.8913 15.9071C15.7383 15.3344 14.9282 15.3344 14.7752 15.9071L12.0403 26.1457Z" fill="#0364FF"/>
<path d="M14.3218 23.9867C14.1157 23.9867 13.9657 23.8007 14.019 23.6113L15.0305 20.0198C15.1135 19.7251 15.553 19.7251 15.636 20.0198L16.6475 23.6113C16.7008 23.8007 16.5508 23.9867 16.3448 23.9867H14.3218Z" fill="#0364FF"/>
<path d="M120.716 39.108C120.716 41.488 122.326 43.126 124.356 43.126C125.616 43.126 126.54 42.538 127.03 41.838V43H128.64V32.64H127.03V36.364C126.442 35.636 125.378 35.16 124.37 35.16C122.326 35.16 120.716 36.728 120.716 39.108ZM127.03 39.136C127.03 40.802 125.896 41.74 124.692 41.74C123.502 41.74 122.354 40.774 122.354 39.108C122.354 37.442 123.502 36.546 124.692 36.546C125.896 36.546 127.03 37.484 127.03 39.136ZM133.985 36.504C135.175 36.504 136.113 37.26 136.141 38.45H131.871C132.039 37.232 132.907 36.504 133.985 36.504ZM137.597 40.704H135.875C135.581 41.306 135.035 41.782 134.055 41.782C132.879 41.782 131.969 41.012 131.857 39.738H137.751C137.793 39.472 137.807 39.22 137.807 38.954C137.807 36.686 136.253 35.16 134.055 35.16C131.773 35.16 130.205 36.714 130.205 39.136C130.205 41.558 131.843 43.126 134.055 43.126C135.945 43.126 137.163 42.048 137.597 40.704ZM150.311 43H151.893V38.45C151.893 36.294 150.521 35.16 148.715 35.16C147.595 35.16 146.503 35.748 146.027 36.686C145.495 35.678 144.473 35.16 143.255 35.16C142.331 35.16 141.491 35.538 140.973 36.168V35.286H139.377V43H140.973V38.688C140.973 37.274 141.743 36.546 142.919 36.546C144.081 36.546 144.851 37.274 144.851 38.688V43H146.433V38.688C146.433 37.274 147.203 36.546 148.379 36.546C149.541 36.546 150.311 37.274 150.311 38.688V43ZM161.274 39.136C161.274 36.714 159.538 35.16 157.34 35.16C155.142 35.16 153.406 36.714 153.406 39.136C153.406 41.558 155.072 43.126 157.27 43.126C159.482 43.126 161.274 41.558 161.274 39.136ZM155.03 39.136C155.03 37.386 156.108 36.546 157.312 36.546C158.502 36.546 159.636 37.386 159.636 39.136C159.636 40.886 158.46 41.74 157.27 41.74C156.066 41.74 155.03 40.886 155.03 39.136Z" fill="black"/>
</svg>
