<svg width="33" height="32" viewBox="0 0 33 32" fill="none" xmlns="http://www.w3.org/2000/svg">
<g clip-path="url(#clip0)">
<path d="M16.4056 0C7.33363 0 0 7.33363 0 16.4056C0 23.6577 4.69896 29.7963 11.2177 31.9692C12.0326 32.1322 12.3314 31.6161 12.3314 31.1815C12.3314 30.8013 12.3042 29.4975 12.3042 28.1394C7.74106 29.1172 6.7904 26.1838 6.7904 26.1838C6.05704 24.2825 4.97057 23.7936 4.97057 23.7936C3.47669 22.7886 5.07922 22.7886 5.07922 22.7886C6.73608 22.8972 7.60525 24.4726 7.60525 24.4726C9.07198 26.9715 11.435 26.2653 12.3857 25.8307C12.5215 24.7714 12.9561 24.038 13.4178 23.6306C9.77818 23.2503 5.94839 21.8379 5.94839 15.5364C5.94839 13.7438 6.60027 12.277 7.63241 11.1363C7.46944 10.7288 6.89905 9.04481 7.79538 6.7904C7.79538 6.7904 9.18062 6.35581 12.3042 8.47442C13.608 8.12132 15.0204 7.93119 16.4056 7.93119C17.7909 7.93119 19.2033 8.12132 20.507 8.47442C23.6306 6.35581 25.0158 6.7904 25.0158 6.7904C25.9122 9.04481 25.3418 10.7288 25.1788 11.1363C26.2381 12.277 26.8628 13.7438 26.8628 15.5364C26.8628 21.8379 23.033 23.2232 19.3662 23.6306C19.9638 24.1467 20.4799 25.1245 20.4799 26.6727C20.4799 28.8728 20.4527 30.6383 20.4527 31.1815C20.4527 31.6161 20.7515 32.1322 21.5663 31.9692C28.0851 29.7963 32.7841 23.6577 32.7841 16.4056C32.8112 7.33363 25.4504 0 16.4056 0Z" fill="#191717"/>
<path d="M6.22159 23.5491C6.19443 23.6306 6.05862 23.6577 5.94997 23.6034C5.84133 23.5491 5.75984 23.4404 5.81417 23.359C5.84133 23.2775 5.97714 23.2503 6.08578 23.3046C6.19443 23.359 6.24875 23.4676 6.22159 23.5491ZM6.87347 24.2824C6.79198 24.3639 6.62901 24.3096 6.54753 24.201C6.43888 24.0923 6.41172 23.9293 6.49321 23.8479C6.57469 23.7664 6.7105 23.8207 6.81915 23.9293C6.92779 24.0652 6.95495 24.2281 6.87347 24.2824ZM7.52535 25.2331C7.4167 25.3146 7.25373 25.2331 7.17225 25.0973C7.0636 24.9615 7.0636 24.7714 7.17225 24.717C7.28089 24.6355 7.44386 24.717 7.52535 24.8528C7.63399 24.9887 7.63399 25.1516 7.52535 25.2331ZM8.42168 26.1566C8.34019 26.2652 8.15006 26.2381 7.98709 26.1023C7.85129 25.9665 7.79696 25.7763 7.90561 25.6949C7.98709 25.5862 8.17722 25.6134 8.34019 25.7492C8.476 25.8578 8.50316 26.048 8.42168 26.1566ZM9.64395 26.6727C9.61679 26.8085 9.42666 26.8628 9.23653 26.8085C9.0464 26.7542 8.93775 26.5912 8.96491 26.4825C8.99207 26.3467 9.1822 26.2924 9.37233 26.3467C9.56247 26.4011 9.67111 26.5369 9.64395 26.6727ZM10.9749 26.7813C10.9749 26.9171 10.8119 27.0258 10.6218 27.0258C10.4316 27.0258 10.2687 26.9171 10.2687 26.7813C10.2687 26.6455 10.4316 26.5369 10.6218 26.5369C10.8119 26.5369 10.9749 26.6455 10.9749 26.7813ZM12.2243 26.564C12.2515 26.6998 12.1157 26.8356 11.9255 26.8628C11.7354 26.89 11.5724 26.8085 11.5453 26.6727C11.5181 26.5369 11.6539 26.4011 11.844 26.3739C12.0342 26.3467 12.1971 26.4282 12.2243 26.564Z" fill="#191717"/>
</g>
<defs>
<clipPath id="clip0">
<rect width="32.7812" height="32" fill="white"/>
</clipPath>
</defs>
</svg>
