<svg width="32" height="32" viewBox="0 0 32 32" fill="none" xmlns="http://www.w3.org/2000/svg">
<path fill-rule="evenodd" clip-rule="evenodd" d="M6.93333 32H25.0667C28.9067 32 32 28.9067 32 25.0667V6.93333C32 3.09333 28.9067 0 25.0667 0H6.93333C3.09333 0 0 3.09333 0 6.93333V25.0667C0 28.9067 3.09333 32 6.93333 32ZM15.9424 5.12012C22.3691 5.12012 27.5957 9.36012 27.5957 14.5868C27.5957 16.6668 26.7957 18.5601 25.0624 20.4268C22.6357 23.2534 17.1691 26.6668 15.9157 27.2001C14.6933 27.6943 14.8407 26.8947 14.8982 26.5828L14.9024 26.5601C14.9291 26.4001 15.0624 25.5734 15.0624 25.5734C15.1157 25.2534 15.1424 24.8001 15.0357 24.5068C14.9291 24.1601 14.3957 24.0001 14.0224 23.9201C8.4224 23.1734 4.28906 19.2535 4.28906 14.5868C4.28906 9.36012 9.51573 5.12012 15.9424 5.12012ZM13.5628 12.0799H12.7361C12.6028 12.0799 12.4961 12.1865 12.4961 12.2932V17.3599C12.4961 17.4932 12.6028 17.5732 12.7361 17.5732H13.5628C13.6961 17.5732 13.8028 17.4665 13.8028 17.3599V12.2932C13.8028 12.1865 13.6961 12.0799 13.5628 12.0799ZM18.3903 12.0799H19.1903C19.3236 12.0799 19.4303 12.1865 19.4303 12.2932V17.3599C19.4303 17.4665 19.3236 17.5732 19.1903 17.5732H18.4703H18.4169H18.3903H18.3636C18.3471 17.5732 18.3408 17.563 18.3321 17.5489C18.3267 17.5402 18.3204 17.5301 18.3103 17.5199L15.9903 14.3732V17.3865C15.9903 17.4932 15.8836 17.5999 15.7503 17.5999H14.9236C14.7903 17.5999 14.6836 17.5199 14.6836 17.3865V12.3199C14.6836 12.2132 14.7903 12.1065 14.9236 12.1065H15.7503H15.7769L15.8036 12.1332C15.8303 12.1332 15.8303 12.1599 15.8303 12.1599L18.1503 15.3065V12.2932C18.1503 12.1865 18.2569 12.0799 18.3903 12.0799ZM11.589 16.32H9.37568V12.2933C9.37568 12.16 9.26901 12.0533 9.13568 12.0533H8.30901C8.17568 12.0533 8.06901 12.16 8.06901 12.2933V17.36C8.06901 17.4133 8.09568 17.4667 8.12234 17.52C8.17568 17.5467 8.22901 17.5733 8.28234 17.5733H11.5357C11.669 17.5733 11.749 17.4667 11.749 17.3333V16.5067C11.829 16.4267 11.7223 16.32 11.589 16.32ZM23.9053 13.0933C23.9053 13.2267 23.8253 13.3333 23.6919 13.3333H21.4786V14.16H23.6919C23.7986 14.16 23.9053 14.2667 23.9053 14.4V15.2267C23.9053 15.36 23.8253 15.4667 23.6919 15.4667H21.4786V16.2133H23.6919C23.7986 16.2133 23.9053 16.32 23.9053 16.4533V17.28C23.9053 17.4133 23.8253 17.52 23.6919 17.52H20.4386C20.3853 17.52 20.3319 17.4933 20.2786 17.4667C20.2519 17.4133 20.2253 17.36 20.2253 17.3067V12.24C20.2253 12.1867 20.2519 12.1333 20.2786 12.08C20.3319 12.0533 20.3853 12.0267 20.4386 12.0267H23.6919C23.7986 12.0267 23.9053 12.1333 23.9053 12.2667V13.0933Z" fill="#00B900"/>
</svg>
