  <svg width="30" height="30" viewBox="0 0 30 30" fill="none" xmlns="http://www.w3.org/2000/svg">
    <path
      fill-rule="evenodd"
      clip-rule="evenodd"
      d="M30 25.5C30 27.99 27.99 30 25.5 30H4.5C2.01 30 0 27.99 0 25.5V4.5C0 2.01 2.01 0 4.5 0H25.5C27.99 0 30 2.01 30 4.5V25.5ZM19.2448 11.6362C17.2204 11.745 15.4552 12.3557 14.0247 13.7444C12.5775 15.1498 11.9166 16.8647 12.1006 18.9896C11.8914 18.9632 11.6874 18.9362 11.487 18.9096L11.487 18.9096C10.9264 18.8354 10.3948 18.765 9.85864 18.7219C9.60767 18.6968 9.31487 18.7303 9.09737 18.8474C8.58038 19.1428 8.07698 19.4609 7.5272 19.8082L7.52694 19.8084C7.32951 19.9331 7.12611 20.0616 6.91395 20.1942C6.9665 19.9636 7.01192 19.7421 7.05589 19.5277C7.13793 19.1277 7.21494 18.7522 7.32386 18.3873C7.44935 17.9774 7.39079 17.7515 7.01434 17.4838C4.59668 15.7688 3.56772 13.2006 4.33735 10.5571C5.04842 8.11434 6.78847 6.62526 9.15593 5.85563C12.385 4.80156 16.0241 5.88072 17.9816 8.44059C18.6927 9.36081 19.1277 10.4065 19.2448 11.6362ZM9.92556 10.8081C9.94229 10.3229 9.52401 9.88784 9.03044 9.87111C8.52014 9.85438 8.10186 10.2476 8.08513 10.7495C8.0684 11.2598 8.46158 11.6697 8.97188 11.6781C9.47382 11.6948 9.90047 11.31 9.92556 10.8081ZM14.786 9.87947C14.284 9.88784 13.8658 10.3145 13.8741 10.7997C13.8825 11.3016 14.3008 11.6948 14.8111 11.6948C15.3297 11.6864 15.7145 11.2933 15.7145 10.7746C15.7062 10.2643 15.2963 9.86274 14.786 9.87947ZM23.2089 23.9675C23.4014 24.0686 23.5966 24.1711 23.7975 24.2598C23.7842 24.2065 23.7743 24.1533 23.7645 24.1008C23.7436 23.9885 23.7233 23.8799 23.672 23.783C23.2705 23.0552 23.4963 22.5951 24.1238 22.043C26.2737 20.1272 26.4829 17.0989 24.7177 14.8235C22.6932 12.2134 18.477 11.586 15.6076 13.4682C12.3785 15.5847 11.9769 19.55 14.771 22.135C16.235 23.4902 18.0169 24.0423 20.0079 23.8416C20.2761 23.814 20.5444 23.737 20.8109 23.6606C21.1927 23.551 21.5709 23.4424 21.9403 23.4818C22.3721 23.5279 22.784 23.7443 23.2089 23.9675ZM17.2556 16.4715C17.2389 16.873 16.9043 17.1909 16.4943 17.1909C16.0928 17.1909 15.7498 16.8647 15.7414 16.4631C15.7247 16.0448 16.0761 15.6851 16.5027 15.6851C16.9294 15.6851 17.2723 16.0448 17.2556 16.4715ZM20.4513 16.4046C20.468 16.003 20.811 15.6851 21.2042 15.6851C21.6224 15.6851 21.9571 16.0448 21.932 16.4631C21.9236 16.873 21.5974 17.1826 21.1874 17.1826C20.7692 17.1826 20.4345 16.8312 20.4513 16.4046Z"
      fill="#2DC100"
    />
  </svg>