<svg width="28" height="32" viewBox="0 0 28 32" fill="none" xmlns="http://www.w3.org/2000/svg">
<path d="M10.7825 13.7143C11.6968 13.7143 12.4373 14.4 12.4206 15.2381C12.4206 16.0762 11.6983 16.7619 10.7825 16.7619C9.88343 16.7619 9.14286 16.0762 9.14286 15.2381C9.14286 14.4 9.86667 13.7143 10.7825 13.7143ZM16.6461 13.7143C17.5619 13.7143 18.2857 14.4 18.2857 15.2381C18.2857 16.0762 17.5619 16.7619 16.6461 16.7619C15.747 16.7619 15.008 16.0762 15.008 15.2381C15.008 14.4 15.7303 13.7143 16.6461 13.7143ZM24.2149 0C25.987 0 27.4286 1.472 27.4286 3.296V32L24.0594 28.96L22.1623 27.168L20.1554 25.2632L20.9874 28.224H3.21371C1.44152 28.224 0 26.752 0 24.928V3.296C0 1.472 1.44152 0 3.21371 0H24.2133H24.2149ZM18.1653 20.896C21.629 20.7848 22.9623 18.464 22.9623 18.464C22.9623 13.312 20.704 9.13524 20.704 9.13524C18.4488 7.40876 16.3002 7.456 16.3002 7.456L16.0808 7.712C18.7459 8.544 19.9832 9.74476 19.9832 9.74476C18.5281 8.92493 16.9244 8.4028 15.2655 8.20876C14.2132 8.08991 13.1504 8.10015 12.1006 8.23924C12.0061 8.23924 11.9269 8.256 11.8339 8.27124C11.2853 8.32 9.952 8.52724 8.27581 9.28C7.69676 9.55124 7.35086 9.74476 7.35086 9.74476C7.35086 9.74476 8.65219 8.48 11.4728 7.648L11.3158 7.456C11.3158 7.456 9.16876 7.40876 6.912 9.13676C6.912 9.13676 4.65524 13.312 4.65524 18.464C4.65524 18.464 5.97181 20.7832 9.43543 20.896C9.43543 20.896 10.0145 20.1768 10.4869 19.5688C8.49524 18.9592 7.744 17.6792 7.744 17.6792C7.744 17.6792 7.89943 17.792 8.18133 17.952C8.19657 17.9672 8.21181 17.984 8.24381 17.9992C8.29105 18.0328 8.33829 18.048 8.38552 18.08C8.77714 18.304 9.16876 18.4792 9.52838 18.624C10.1714 18.88 10.9394 19.136 11.8339 19.3128C13.1738 19.5754 14.5515 19.5806 15.8933 19.328C16.6749 19.1885 17.4375 18.9578 18.1653 18.6408C18.7139 18.432 19.325 18.1272 19.968 17.696C19.968 17.696 19.1848 19.008 17.1307 19.6008C17.6015 20.2088 18.1669 20.896 18.1669 20.896H18.1653Z" fill="#7289DA"/>
</svg>
