<svg width="32" height="32" viewBox="0 0 32 32" fill="none" xmlns="http://www.w3.org/2000/svg">
<path d="M21.2321 23.3393L23.8571 10.9643C23.9643 10.4405 23.9018 10.0655 23.6696 9.83929C23.4375 9.6131 23.131 9.57143 22.75 9.71429L7.32143 15.6607C6.97619 15.7917 6.74107 15.9405 6.61607 16.1071C6.49107 16.2738 6.47619 16.4315 6.57143 16.5804C6.66667 16.7292 6.85714 16.8452 7.14286 16.9286L11.0893 18.1607L20.25 12.3929C20.5 12.2262 20.6905 12.1905 20.8214 12.2857C20.9048 12.3452 20.881 12.4345 20.75 12.5536L13.3393 19.25L13.0536 23.3214C13.3274 23.3214 13.5952 23.1905 13.8571 22.9286L15.7857 21.0714L19.7857 24.0179C20.5476 24.4464 21.0298 24.2202 21.2321 23.3393ZM32 16C32 18.1667 31.5774 20.2381 30.7321 22.2143C29.8869 24.1905 28.75 25.8929 27.3214 27.3214C25.8929 28.75 24.1905 29.8869 22.2143 30.7321C20.2381 31.5774 18.1667 32 16 32C13.8333 32 11.7619 31.5774 9.78571 30.7321C7.80952 29.8869 6.10714 28.75 4.67857 27.3214C3.25 25.8929 2.1131 24.1905 1.26786 22.2143C0.422619 20.2381 0 18.1667 0 16C0 13.8333 0.422619 11.7619 1.26786 9.78571C2.1131 7.80952 3.25 6.10714 4.67857 4.67857C6.10714 3.25 7.80952 2.1131 9.78571 1.26786C11.7619 0.422619 13.8333 0 16 0C18.1667 0 20.2381 0.422619 22.2143 1.26786C24.1905 2.1131 25.8929 3.25 27.3214 4.67857C28.75 6.10714 29.8869 7.80952 30.7321 9.78571C31.5774 11.7619 32 13.8333 32 16Z" fill="url(#paint0_linear)"/>
<defs>
<linearGradient id="paint0_linear" x1="26.5" y1="3.5" x2="5.5" y2="27.5" gradientUnits="userSpaceOnUse">
<stop stop-color="#37AEE2"/>
<stop offset="1" stop-color="#1E96C8"/>
</linearGradient>
</defs>
</svg>
