<svg width="32" height="32" viewBox="0 0 32 32" fill="none" xmlns="http://www.w3.org/2000/svg">
<path d="M27.2627 27.2693H22.524V19.844C22.524 18.0733 22.488 15.7947 20.0547 15.7947C17.584 15.7947 17.2067 17.7213 17.2067 19.7133V27.2693H12.468V12H17.02V14.0813H17.0813C17.7173 12.8813 19.264 11.6147 21.5747 11.6147C26.376 11.6147 27.264 14.7747 27.264 18.888V27.2693H27.2627ZM7.116 9.91067C6.7545 9.91084 6.39652 9.83973 6.06254 9.70139C5.72856 9.56305 5.42514 9.3602 5.16965 9.10446C4.91416 8.84872 4.71161 8.54511 4.57359 8.21099C4.43558 7.87688 4.36481 7.51883 4.36533 7.15733C4.3656 6.61304 4.52726 6.08105 4.82987 5.62863C5.13248 5.17621 5.56246 4.82369 6.06542 4.61564C6.56838 4.40759 7.12175 4.35336 7.65553 4.45981C8.18931 4.56625 8.67955 4.82859 9.06423 5.21365C9.44892 5.59871 9.71079 6.0892 9.81671 6.62309C9.92264 7.15697 9.86788 7.71028 9.65934 8.21304C9.4508 8.7158 9.09786 9.14544 8.64515 9.44761C8.19244 9.74979 7.66029 9.91093 7.116 9.91067ZM9.492 27.2693H4.74V12H9.492V27.2693ZM29.6333 0H2.36133C1.056 0 0 1.032 0 2.30533V29.6947C0 30.9693 1.056 32 2.36133 32H29.6293C30.9333 32 32 30.9693 32 29.6947V2.30533C32 1.032 30.9333 0 29.6293 0H29.6333Z" fill="#2867B2"/>
</svg>
