<svg width="32" height="32" viewBox="0 0 32 32" fill="none" xmlns="http://www.w3.org/2000/svg">
<circle cx="16" cy="16" r="16" fill="#0364FF"/>
<path fill-rule="evenodd" clip-rule="evenodd" d="M10.7184 9.49432C9.95366 9.49432 9.33374 10.1142 9.33374 10.8789V12.4919C9.33374 13.2566 9.95366 13.8765 10.7184 13.8765H13.1681V22.8997C13.1681 23.6644 13.788 24.2843 14.5528 24.2843H16.1657C16.9304 24.2843 17.5504 23.6644 17.5504 22.8997V12.5036C17.5504 12.4997 17.5504 12.4958 17.5504 12.4919V10.8789C17.5504 10.1142 16.9305 9.49432 16.1658 9.49432H14.5528H10.7184Z" fill="white"/>
<path d="M20.8378 13.8754C22.0479 13.8754 23.0289 12.8944 23.0289 11.6843C23.0289 10.4742 22.0479 9.49316 20.8378 9.49316C19.6277 9.49316 18.6467 10.4742 18.6467 11.6843C18.6467 12.8944 19.6277 13.8754 20.8378 13.8754Z" fill="white"/>
</svg>
