<svg width="32" height="32" viewBox="0 0 32 32" fill="none" xmlns="http://www.w3.org/2000/svg">
<path fill-rule="evenodd" clip-rule="evenodd" d="M32 16C32 24.8366 24.8366 32 16 32C7.16344 32 0 24.8366 0 16C0 7.16344 7.16344 0 16 0C24.8366 0 32 7.16344 32 16ZM24.3263 13.6609C25.6176 13.6609 26.6655 14.7088 26.6655 16C26.6655 16.9544 26.0854 17.7778 25.3182 18.1521C25.3556 18.3767 25.3743 18.6012 25.3743 18.8445C25.3743 22.4375 21.2012 25.3381 16.0363 25.3381C10.8714 25.3381 6.69828 22.4375 6.69828 18.8445C6.69828 18.6012 6.717 18.3579 6.75442 18.1334C5.93103 17.7591 5.36963 16.9544 5.36963 16C5.36963 14.7088 6.41758 13.6609 7.70881 13.6609C8.32635 13.6609 8.90647 13.9229 9.31817 14.3158C10.9275 13.1369 13.1544 12.4071 15.6433 12.3322L16.8223 6.7556C16.8597 6.64332 16.9158 6.54976 17.0094 6.49362C17.103 6.43748 17.2152 6.41876 17.3275 6.43748L21.2012 7.26087C21.4632 6.69946 22.0246 6.3252 22.6796 6.3252C23.5965 6.3252 24.3451 7.07373 24.3451 7.99069C24.3451 8.90765 23.5965 9.65619 22.6796 9.65619C21.7813 9.65619 21.0515 8.94508 21.0141 8.06555L17.5521 7.33572L16.4854 12.3322C18.9182 12.4258 21.1264 13.1743 22.717 14.3158C23.1287 13.9041 23.6901 13.6609 24.3263 13.6609ZM12.331 16C11.4141 16 10.6655 16.7486 10.6655 17.6655C10.6655 18.5825 11.4141 19.331 12.331 19.331C13.248 19.331 13.9965 18.5825 13.9965 17.6655C13.9965 16.7486 13.248 16 12.331 16ZM16.0176 23.2796C16.6538 23.2796 18.8246 23.2047 19.9661 22.0632C20.1345 21.8948 20.1345 21.6328 20.0035 21.4457C19.8351 21.2772 19.5544 21.2772 19.386 21.4457C18.6562 22.1568 17.1404 22.4188 16.0363 22.4188C14.9322 22.4188 13.3977 22.1568 12.6866 21.4457C12.5182 21.2772 12.2375 21.2772 12.069 21.4457C11.9006 21.6141 11.9006 21.8948 12.069 22.0632C13.1918 23.186 15.3813 23.2796 16.0176 23.2796ZM18.0012 17.6655C18.0012 18.5825 18.7497 19.331 19.6667 19.331C20.5837 19.331 21.3322 18.5825 21.3322 17.6655C21.3322 16.7486 20.5837 16 19.6667 16C18.7497 16 18.0012 16.7486 18.0012 17.6655Z" fill="#FF4500"/>
</svg>
