<svg width="32" height="32" viewBox="0 0 32 32" fill="none" xmlns="http://www.w3.org/2000/svg">
<path d="M32 16C32 7.164 24.836 0 16 0C7.164 0 0 7.164 0 16C0 23.986 5.85 30.606 13.5 31.806V20.626H9.438V16H13.5V12.476C13.5 8.466 15.888 6.25 19.544 6.25C21.294 6.25 23.126 6.562 23.126 6.562V10.5H21.108C19.12 10.5 18.5 11.734 18.5 12.998V16H22.938L22.228 20.626H18.5V31.806C26.15 30.606 32 23.986 32 16Z" fill="url(#paint0_linear)"/>
<path d="M22.9375 16H18.4995V12.998C18.4995 11.732 19.1195 10.5 21.1075 10.5H23.1255V6.562C23.1255 6.562 21.2935 6.25 19.5435 6.25C15.8875 6.25 13.4995 8.466 13.4995 12.476V16H9.4375V20.626H13.4995V31.806C14.3135 31.934 15.1495 32 15.9995 32C16.8495 32 17.6855 31.934 18.4995 31.806V20.626H22.2275L22.9375 16Z" fill="white"/>
<defs>
<linearGradient id="paint0_linear" x1="16" y1="31.8056" x2="16" y2="0" gradientUnits="userSpaceOnUse">
<stop stop-color="#1569CB"/>
<stop offset="1" stop-color="#29AEF3"/>
</linearGradient>
</defs>
</svg>
