<svg width="663" height="735" viewBox="0 0 663 735" fill="none" xmlns="http://www.w3.org/2000/svg">
<path fill-rule="evenodd" clip-rule="evenodd" d="M194.736 22.4547C230.696 9.74403 277.207 0 340.464 0C449.813 0 514.485 36.7744 549.288 56.5648C550.886 57.4733 552.421 58.346 553.894 59.1778C568.386 67.3592 573.499 85.7345 565.314 100.22C557.129 114.706 538.745 119.816 524.253 111.635C522.765 110.795 521.227 109.92 519.638 109.016C487.367 90.6598 433.897 60.2458 340.464 60.2458C283.729 60.2458 244.038 68.9296 214.83 79.2538C192.117 87.282 175.92 96.0785 160.64 104.378C155.721 107.049 150.896 109.67 145.98 112.196C131.177 119.803 113.009 113.975 105.399 99.1793C97.789 84.3837 103.619 66.2231 118.422 58.6165C121.732 56.9153 125.481 54.8734 129.667 52.5937C145.297 44.0814 167.016 32.2526 194.736 22.4547ZM339.783 87.0792C500.378 83.4492 617.975 193.464 657.435 249.022C667.07 262.588 663.878 281.392 650.307 291.022C636.735 300.653 617.923 297.463 608.288 283.897C575.108 237.181 474.051 144.305 341.146 147.31C253.962 149.28 194.33 169.203 151.046 194.917C107.538 220.765 78.554 253.604 53.8393 285.064C43.5601 298.148 24.6155 300.426 11.5253 290.151C-1.56484 279.876 -3.84358 260.94 6.43562 247.856C32.7525 214.357 67.2135 174.637 120.252 143.128C173.514 111.486 243.529 89.2548 339.783 87.0792ZM341.144 171.385C452.989 173.004 537.368 226.618 598.545 317.347C626.023 358.098 638.26 410.556 639.601 461.755C640.948 513.179 631.403 566.355 612.198 610.234C605.527 625.476 587.758 632.426 572.509 625.758C557.261 619.09 550.308 601.328 556.979 586.087C572.254 551.187 580.491 506.926 579.349 463.331C578.202 419.512 567.682 379.37 548.564 351.017C496.692 274.088 429.442 232.849 340.051 231.622C339.961 231.62 339.871 231.619 339.781 231.617C339.689 231.615 339.597 231.612 339.506 231.609C315.486 230.845 276.931 236.921 236.585 254.239C196.535 271.43 156.612 298.883 127.758 339.254C95.0881 384.963 85.2205 433.954 91.2077 468.451C94.1769 485.56 100.708 497.599 108.438 504.913C115.667 511.753 125.726 516.232 140.462 515.551C142.496 515.457 144.534 515.569 146.545 515.885C156.161 517.4 167.317 516.254 178.622 507.922C190.468 499.19 205.775 480.115 217.745 439.081C226.693 408.407 247.635 384.53 269.8 368.945C290.881 354.123 317.454 343.795 341.783 345.531C361.359 345.806 385.792 352.223 407.407 369.275C430.086 387.165 447.707 415.22 454.326 455.012C461.598 498.734 449.914 542.932 431.578 580.175C413.159 617.587 386.665 650.826 360.05 673.574C334.297 695.585 307.838 711.234 286.025 721.128C275.145 726.063 264.981 729.767 256.25 732.079C251.91 733.229 247.45 734.162 243.138 734.641C239.555 735.039 233.132 735.5 226.316 733.638C210.261 729.25 200.805 712.684 205.194 696.637C209.148 682.185 222.982 673.082 237.42 674.619C238.168 674.484 239.289 674.247 240.811 673.844C245.613 672.572 252.574 670.142 261.118 666.267C278.154 658.539 299.738 645.855 320.879 627.786C341.158 610.453 362.627 583.78 377.499 553.574C392.454 523.199 399.39 492.074 394.869 464.892C390.454 438.344 379.801 424.245 370.068 416.567C359.759 408.434 348.259 405.767 340.464 405.767C339.551 405.767 338.639 405.726 337.729 405.643C332.096 405.13 318.997 408.012 304.478 418.221C290.633 427.956 279.853 441.395 275.608 455.945C261.373 504.746 240.361 537.269 214.393 556.41C189.072 575.074 162.252 578.648 140.234 575.835C111.401 576.464 86.1756 566.806 67.0028 548.664C47.6649 530.367 36.4388 505.349 31.8223 478.749C22.6379 425.829 38.2861 360.798 78.7155 304.232C115.372 252.946 165.099 219.358 212.803 198.881C260.082 178.587 307.256 170.36 341.144 171.385ZM236.477 674.764C236.05 674.812 236.096 674.776 236.521 674.759C236.506 674.761 236.491 674.763 236.477 674.764ZM223.409 362.064C193.566 390.602 179.687 425.707 184.083 455.566C186.507 472.025 175.123 487.331 158.656 489.754C142.19 492.176 126.877 480.797 124.453 464.338C116.436 409.89 142.141 356.403 181.743 318.532C221.59 280.426 278.762 254.674 341.105 257.07C378.082 257.256 427.987 273.539 469.047 305.416C511.057 338.03 546.058 388.851 547.125 458.391C551.599 509.838 533.759 625.602 434.098 718.337C421.915 729.672 402.846 728.99 391.506 716.813C380.165 704.637 380.848 685.576 393.03 674.241C477.866 595.301 490.383 497.779 487.009 462.846C486.925 461.977 486.879 461.105 486.871 460.233C486.422 412.123 462.977 376.986 432.076 352.997C400.205 328.254 362.732 317.314 340.464 317.314C340.049 317.314 339.634 317.305 339.22 317.288C294.769 315.451 252.877 333.884 223.409 362.064ZM343.645 438.29C360.195 440.045 372.189 454.88 370.432 471.423C367.372 500.247 347.11 552.612 305.252 594.556C267.855 632.031 218.677 673.892 154.268 673.892C137.625 673.892 124.132 660.406 124.132 643.769C124.132 627.133 137.625 613.647 154.268 613.647C191.922 613.647 225.499 589.167 262.58 552.01C295.2 519.321 308.959 479.547 310.496 465.066C312.253 448.522 327.094 436.534 343.645 438.29Z" fill="url(#paint0_linear)" fill-opacity="0.2"/>
<defs>
<linearGradient id="paint0_linear" x1="331.5" y1="0" x2="331.5" y2="735" gradientUnits="userSpaceOnUse">
<stop stop-color="#2379FF"/>
<stop offset="1" stop-color="#B5E0FE" stop-opacity="0"/>
</linearGradient>
</defs>
</svg>
