<svg width="452" height="501" viewBox="0 0 452 501" fill="none" xmlns="http://www.w3.org/2000/svg">
<path fill-rule="evenodd" clip-rule="evenodd" d="M132.761 15.3058C157.277 6.64185 188.986 0 232.111 0C306.66 0 350.75 25.0666 374.477 38.5564C375.566 39.1757 376.613 39.7706 377.617 40.3375C387.497 45.9142 390.983 58.4394 385.402 68.3133C379.822 78.1873 367.289 81.6708 357.409 76.094C356.395 75.5212 355.346 74.9251 354.263 74.3089C332.262 61.7967 295.809 41.0655 232.111 41.0655C193.432 41.0655 166.373 46.9847 146.46 54.0219C130.976 59.4942 119.934 65.4902 109.516 71.1472C106.162 72.9684 102.873 74.7545 99.5215 76.4766C89.4301 81.6615 77.0437 77.689 71.8557 67.6038C66.6676 57.5186 70.6425 45.1398 80.7339 39.9549C82.9909 38.7953 85.5468 37.4035 88.4005 35.8496C99.056 30.0473 113.863 21.9844 132.761 15.3058ZM231.647 59.356C341.133 56.8817 421.304 131.872 448.206 169.742C454.774 178.988 452.599 191.806 443.346 198.37C434.094 204.935 421.269 202.76 414.7 193.514C392.08 161.67 323.184 98.3633 232.576 100.411C173.138 101.754 132.484 115.334 102.975 132.862C73.3138 150.48 53.5541 172.865 36.705 194.309C29.6971 203.227 16.7816 204.78 7.8574 197.776C-1.06683 190.773 -2.62036 177.865 4.38748 168.947C22.329 146.113 45.8228 119.038 81.9814 97.5608C118.293 75.9925 166.026 60.839 231.647 59.356ZM232.575 116.822C308.825 117.925 366.35 154.47 408.058 216.314C426.791 244.091 435.134 279.849 436.048 314.747C436.966 349.799 430.459 386.046 417.366 415.956C412.818 426.345 400.703 431.082 390.308 426.537C379.912 421.992 375.172 409.885 379.72 399.496C390.134 375.707 395.749 345.538 394.971 315.822C394.189 285.953 387.017 258.591 373.983 239.265C338.62 186.827 292.772 158.717 231.829 157.881C231.768 157.88 231.707 157.879 231.645 157.878C231.583 157.876 231.52 157.874 231.458 157.872C215.082 157.352 188.797 161.493 161.292 173.297C133.988 185.015 106.77 203.729 87.0989 231.247C64.8263 262.403 58.0991 295.797 62.1808 319.312C64.2051 330.973 68.6579 339.18 73.9276 344.165C78.8561 348.828 85.7136 351.881 95.7601 351.416C97.1466 351.352 98.5359 351.428 99.907 351.644C106.463 352.676 114.069 351.896 121.775 346.216C129.851 340.264 140.287 327.262 148.448 299.292C154.548 278.384 168.825 262.108 183.936 251.485C198.308 241.382 216.424 234.342 233.01 235.525C246.357 235.713 263.014 240.087 277.75 251.71C293.211 263.904 305.224 283.027 309.736 310.151C314.694 339.953 306.729 370.08 294.228 395.467C281.671 420.967 263.608 443.624 245.464 459.13C227.907 474.133 209.868 484.8 194.998 491.544C187.58 494.908 180.651 497.433 174.698 499.009C171.74 499.793 168.699 500.429 165.759 500.755C163.316 501.027 158.937 501.341 154.291 500.071C143.346 497.081 136.899 485.789 139.891 474.85C142.586 464.999 152.018 458.795 161.861 459.843C162.371 459.751 163.135 459.589 164.173 459.314C167.446 458.447 172.192 456.791 178.017 454.149C189.632 448.882 204.346 440.236 218.759 427.919C232.584 416.105 247.221 397.924 257.36 377.334C267.555 356.63 272.284 335.414 269.202 316.886C266.192 298.789 258.929 289.179 252.293 283.945C245.265 278.402 237.425 276.584 232.111 276.584C231.489 276.584 230.867 276.556 230.247 276.5C226.407 276.15 217.476 278.115 207.577 285.073C198.139 291.708 190.789 300.869 187.896 310.787C178.191 344.052 163.866 366.22 146.162 379.267C128.9 391.989 110.615 394.425 95.6042 392.508C75.9479 392.936 58.7502 386.354 45.6791 373.988C32.4955 361.515 24.8421 344.462 21.6948 326.331C15.4334 290.259 26.1015 245.932 53.6642 207.375C78.6546 172.416 112.556 149.521 145.078 135.564C177.311 121.731 209.472 116.123 232.575 116.822ZM161.218 459.941C160.927 459.974 160.959 459.949 161.248 459.938C161.238 459.939 161.228 459.94 161.218 459.941ZM152.309 246.794C131.964 266.247 122.502 290.176 125.499 310.529C127.151 321.748 119.39 332.181 108.164 333.832C96.9378 335.483 86.4981 327.727 84.8459 316.508C79.3805 279.394 96.9047 242.936 123.903 217.122C151.069 191.147 190.046 173.594 232.548 175.227C257.757 175.354 291.78 186.453 319.773 208.182C348.413 230.413 372.275 265.054 373.002 312.454C376.053 347.522 363.89 426.431 295.946 489.642C287.641 497.369 274.64 496.904 266.909 488.603C259.178 480.303 259.643 467.311 267.948 459.584C325.785 405.776 334.318 339.302 332.018 315.491C331.961 314.899 331.93 314.305 331.924 313.71C331.618 280.916 315.634 256.966 294.568 240.614C272.84 223.749 247.292 216.292 232.111 216.292C231.829 216.292 231.546 216.286 231.263 216.274C200.959 215.022 172.399 227.586 152.309 246.794ZM234.28 298.753C245.563 299.949 253.74 310.061 252.542 321.337C250.456 340.985 236.642 376.678 208.106 405.269C182.61 430.813 149.083 459.347 105.172 459.347C93.8255 459.347 84.627 450.154 84.627 438.814C84.627 427.474 93.8255 418.281 105.172 418.281C130.843 418.281 153.734 401.596 179.014 376.268C201.253 353.986 210.633 326.875 211.681 317.004C212.878 305.727 222.996 297.556 234.28 298.753Z" fill="url(#paint0_linear)" fill-opacity="0.2"/>
<defs>
<linearGradient id="paint0_linear" x1="452" y1="411" x2="25.5" y2="44" gradientUnits="userSpaceOnUse">
<stop stop-color="#17BCFE"/>
<stop offset="1" stop-color="white"/>
</linearGradient>
</defs>
</svg>
