<svg width="147" height="27" viewBox="0 0 147 27" fill="none" xmlns="http://www.w3.org/2000/svg">
<path fill-rule="evenodd" clip-rule="evenodd" d="M73.9835 23.5698C73.0192 23.5698 72.1354 23.3686 71.3319 22.9663C70.8785 22.7341 70.4846 22.4582 70.1501 22.1387C69.9388 21.9367 69.5106 22.0738 69.5106 22.363V22.7948C69.5106 22.9909 69.3483 23.15 69.148 23.15H67.409C67.2088 23.15 67.0465 22.9909 67.0465 22.7948V4.71628C67.0465 4.52011 67.2088 4.36108 67.409 4.36108H69.1399C69.3401 4.36108 69.5024 4.52011 69.5024 4.71628V11.0792C69.5024 11.3685 69.9317 11.5063 70.1436 11.305C70.4807 10.9848 70.8778 10.7085 71.3319 10.476C72.1354 10.0736 73.0192 9.87244 73.9835 9.87244C75.7155 9.87244 77.1796 10.5372 78.376 11.8667C79.608 13.2137 80.2241 14.8318 80.2241 16.7211C80.2241 18.6279 79.608 20.246 78.376 21.5755C77.1796 22.905 75.7155 23.5698 73.9835 23.5698ZM73.5817 21.3656C74.7602 21.3656 75.7512 20.9283 76.5547 20.0536C77.3582 19.1964 77.76 18.0856 77.76 16.7211C77.76 15.3741 77.3582 14.2633 76.5547 13.3886C75.7512 12.5139 74.7602 12.0766 73.5817 12.0766C72.3854 12.0766 71.3854 12.5139 70.5819 13.3886C69.7963 14.2633 69.4034 15.3741 69.4034 16.7211C69.4034 18.0856 69.7963 19.2052 70.5819 20.0799C71.3854 20.937 72.3854 21.3656 73.5817 21.3656ZM58.5793 23.5698C56.6509 23.5698 55.0617 22.9225 53.8118 21.628C52.5619 20.3335 51.9369 18.6979 51.9369 16.7211C51.9369 14.7619 52.544 13.135 53.7582 11.8404C54.9724 10.5284 56.5259 9.87244 58.4186 9.87244C60.3649 9.87244 61.9094 10.4935 63.0522 11.7355C64.2837 13.0348 64.8725 14.9891 64.7953 16.7665C64.7854 16.9944 64.589 17.1672 64.3562 17.1672H54.8972C54.6548 17.1672 54.4582 17.3637 54.4833 17.6C54.5961 18.6612 55.0151 19.5316 55.7402 20.2111C56.5616 20.9808 57.5436 21.3656 58.6864 21.3656C60.1444 21.3656 61.3102 20.703 62.184 19.3777C62.3009 19.2005 62.5333 19.1285 62.7268 19.221L64.1991 19.9246C64.4066 20.0238 64.4898 20.2726 64.3696 20.4657C63.8005 21.3799 63.0488 22.1085 62.1147 22.6514C61.0791 23.2637 59.9006 23.5698 58.5793 23.5698ZM54.7846 14.6662C54.6975 14.9222 54.9034 15.1729 55.1788 15.1729H61.7027C61.9537 15.1729 62.1544 14.9623 62.1034 14.7214C61.9572 14.0298 61.6038 13.4456 61.0434 12.9688C60.3827 12.374 59.4899 12.0766 58.365 12.0766C57.4365 12.0766 56.633 12.3565 55.9545 12.9163C55.4166 13.3721 55.0266 13.9554 54.7846 14.6662ZM51.1815 10.7855C51.2617 10.5418 51.0762 10.2923 50.8149 10.2923H49.1143C48.9434 10.2923 48.793 10.4025 48.7448 10.563L46.2365 18.9046C46.1359 19.2392 45.6547 19.2462 45.5441 18.9147L42.7527 10.5524C42.7009 10.3972 42.5532 10.2923 42.3866 10.2923H40.4001C40.2338 10.2923 40.0863 10.3968 40.0342 10.5515L37.2177 18.9202C37.1063 19.251 36.626 19.2435 36.5256 18.9093L34.0158 10.563C33.9676 10.4025 33.8171 10.2923 33.6463 10.2923H31.8921C31.6308 10.2923 31.4453 10.5418 31.5255 10.7855L35.5089 22.8884C35.5602 23.0443 35.7083 23.1499 35.8756 23.1499H37.8052C37.9725 23.1499 38.1206 23.0442 38.1719 22.8882L40.983 14.33C41.0908 14.0019 41.5644 14.0014 41.673 14.3292L44.5079 22.889C44.5595 23.0446 44.7074 23.1499 44.8743 23.1499H46.8315C46.9987 23.1499 47.1468 23.0443 47.1981 22.8884L51.1815 10.7855ZM127.526 22.389C128.24 23.0362 129.133 23.3599 130.204 23.3599C130.913 23.3599 131.549 23.2821 132.111 23.1265C132.303 23.0734 132.4 22.8702 132.334 22.6861L131.808 21.2292C131.738 21.034 131.512 20.9396 131.31 21.0021C131.256 21.0191 131.199 21.0353 131.142 21.0507C130.963 21.0857 130.776 21.1032 130.579 21.1032C130.151 21.1032 129.767 20.9545 129.427 20.6571C129.088 20.3423 128.919 19.7562 128.919 18.899V12.8517C128.919 12.6555 129.081 12.4965 129.281 12.4965H131.77C131.97 12.4965 132.133 12.3374 132.133 12.1413V10.6475C132.133 10.4513 131.97 10.2923 131.77 10.2923H129.281C129.081 10.2923 128.919 10.1333 128.919 9.93709V4.71628C128.919 4.52011 128.756 4.36108 128.556 4.36108H126.817C126.617 4.36108 126.454 4.52011 126.454 4.71628V9.93709C126.454 10.1333 126.292 10.2923 126.092 10.2923H124.514C124.313 10.2923 124.151 10.4513 124.151 10.6475V12.1413C124.151 12.3374 124.313 12.4965 124.514 12.4965H126.092C126.292 12.4965 126.454 12.6555 126.454 12.8517V19.6863C126.472 20.8408 126.829 21.7417 127.526 22.389ZM92.335 21.9954C93.5313 20.9458 94.1295 19.6338 94.1295 18.0594C94.1295 17.0972 93.8527 16.2313 93.2992 15.4616C93.0445 15.0956 92.6786 14.6304 91.6052 14.0409C91.3784 13.9163 91.3725 13.5845 91.587 13.4405C92.8713 12.5782 93.5135 11.2725 93.5135 9.74124C93.5135 8.28929 92.9689 7.10848 91.8797 6.19883C90.7726 5.25418 89.4066 4.78186 87.7817 4.78186C86.4783 4.78186 85.3444 5.12298 84.3802 5.80522C83.521 6.41315 82.8816 7.18775 82.4619 8.12903C82.375 8.32407 82.4749 8.54686 82.6749 8.62987L84.1975 9.26163C84.4131 9.35109 84.6595 9.24356 84.7562 9.03465C85.356 7.73887 86.3645 7.09099 87.7817 7.09099C88.746 7.09099 89.5227 7.3359 90.1119 7.82571C90.7012 8.31553 90.9958 8.95404 90.9958 9.74124C90.9958 10.5984 90.6833 11.2982 90.0584 11.8405C89.4334 12.3653 88.6299 12.6277 87.6478 12.6277H86.6629C86.4377 12.6277 86.2551 12.8066 86.2551 13.0273V14.4847C86.2551 14.7054 86.4377 14.8843 86.6629 14.8843H87.8353C88.871 14.8843 89.7548 15.1904 90.4869 15.8027C91.2368 16.415 91.6118 17.1672 91.6118 18.0594C91.6118 18.9515 91.2547 19.7125 90.5405 20.3423C89.8084 20.9545 88.9424 21.2607 87.9425 21.2607C87.0318 21.2607 86.2461 20.9983 85.5855 20.4735C85.0383 20.0119 84.6205 19.3855 84.3321 18.5943C84.2498 18.3685 83.9936 18.2456 83.7676 18.3379L82.2779 18.946C82.0869 19.0239 81.9845 19.2302 82.0515 19.4221C82.4679 20.6145 83.1906 21.5947 84.2195 22.3627C85.3266 23.1674 86.5676 23.5698 87.9425 23.5698C89.6923 23.5698 91.1565 23.045 92.335 21.9954ZM98.5019 19.2139C98.5019 18.5142 98.8323 17.9282 99.4929 17.4558C100.171 16.9835 101.011 16.7474 102.011 16.7474C103.293 16.7474 104.312 17.0062 105.066 17.524C105.168 17.5941 105.226 17.7109 105.22 17.8329C105.17 18.7668 104.761 19.5858 103.993 20.2898C103.189 21.042 102.27 21.4181 101.234 21.4181C100.502 21.4181 99.859 21.2082 99.3054 20.7883C98.7698 20.3685 98.5019 19.8437 98.5019 19.2139ZM106.001 11.3157C104.948 10.3535 103.51 9.87244 101.689 9.87244C99.4934 9.87244 97.8011 10.6124 96.6124 12.0923C96.4844 12.2516 96.5326 12.4819 96.7077 12.5899L98.2618 13.5486C98.426 13.6499 98.6415 13.6053 98.7627 13.4568C99.5429 12.5017 100.563 12.0241 101.823 12.0241C102.734 12.0241 103.528 12.3215 104.207 12.9163C104.89 13.4973 105.131 14.1955 105.201 14.9841C105.225 15.2552 104.922 15.4305 104.666 15.3257C103.818 14.979 102.799 14.8056 101.609 14.8056C99.8947 14.8056 98.5198 15.1992 97.4841 15.9864C96.4664 16.7736 95.9575 17.832 95.9575 19.1615C95.9575 20.421 96.4396 21.4706 97.4038 22.3103C98.3859 23.15 99.6001 23.5698 101.046 23.5698C102.743 23.5698 104.1 22.8351 105.118 21.3656V22.7948C105.118 22.9909 105.28 23.15 105.48 23.15H107.219C107.419 23.15 107.582 22.9909 107.582 22.7948V15.2254C107.582 13.5636 107.055 12.2603 106.001 11.3157ZM121.878 22.7726C121.878 22.981 121.705 23.15 121.493 23.15H119.799C119.586 23.15 119.414 22.981 119.414 22.7726V22.351C119.414 22.0791 118.994 21.9487 118.796 22.1395C118.485 22.439 118.111 22.7058 117.673 22.94C116.905 23.3599 116.101 23.5698 115.262 23.5698C113.655 23.5698 112.414 23.1237 111.539 22.2315C110.682 21.3219 110.254 20.0361 110.254 18.3742V10.6697C110.254 10.4613 110.426 10.2923 110.639 10.2923H112.333C112.545 10.2923 112.718 10.4613 112.718 10.6697V18.2168C112.771 20.316 113.852 21.3656 115.959 21.3656C116.941 21.3656 117.762 20.9808 118.423 20.2111C119.083 19.4239 119.414 18.488 119.414 17.4034V10.6697C119.414 10.4613 119.586 10.2923 119.799 10.2923H121.493C121.705 10.2923 121.878 10.4613 121.878 10.6697V22.7726ZM134.607 4.71628C134.607 4.52011 134.77 4.36108 134.97 4.36108H136.709C136.909 4.36108 137.072 4.52011 137.072 4.71628V11.0912C137.072 11.3632 137.49 11.4924 137.687 11.3004C137.992 11.0019 138.358 10.7358 138.786 10.5022C139.571 10.0824 140.384 9.87244 141.223 9.87244C142.83 9.87244 144.062 10.3273 144.919 11.2369C145.794 12.1291 146.232 13.4061 146.232 15.068V22.7948C146.232 22.9909 146.069 23.15 145.869 23.15H144.13C143.93 23.15 143.767 22.9909 143.767 22.7948V15.5403C143.767 13.2312 142.723 12.0766 140.634 12.0766C139.634 12.0766 138.786 12.4877 138.089 13.3099C137.411 14.1146 137.072 15.0592 137.072 16.1438V22.7948C137.072 22.9909 136.909 23.15 136.709 23.15H134.97C134.77 23.15 134.607 22.9909 134.607 22.7948V4.71628Z" fill="#000000"/>
<path d="M21.8406 21.1118C21.984 21.645 22.7436 21.645 22.887 21.1118L27.016 5.76191C27.2061 5.05514 26.6714 4.36108 25.9369 4.36108H23.3912C22.8855 4.36108 22.4429 4.69937 22.3121 5.18588L19.9837 13.8419C19.9514 13.962 19.9514 14.0884 19.9837 14.2085L21.8406 21.1118Z" fill="#0364FF"/>
<path d="M7.41055 13.8307C7.44284 13.9508 7.44284 14.0772 7.41055 14.1973L5.55362 21.1006C5.41019 21.6338 4.65067 21.6338 4.50724 21.1006L0.381271 5.76191C0.191156 5.05514 0.725793 4.36108 1.46034 4.36108H4.00609C4.51171 4.36108 4.9543 4.69937 5.08516 5.18588L7.41055 13.8307Z" fill="#0364FF"/>
<path d="M10.8912 24.4859C10.7648 24.9572 10.3374 25.2849 9.84906 25.2849H7.24389C6.5345 25.2849 6.01818 24.6126 6.20178 23.928L11.215 5.23491C11.3532 4.71949 11.8207 4.36108 12.3548 4.36108H15.3848C15.9189 4.36108 16.3864 4.71949 16.5246 5.23491L21.5379 23.928C21.7215 24.6126 21.2052 25.2849 20.4958 25.2849H17.8906C17.4023 25.2849 16.9749 24.9572 16.8485 24.4859L14.3746 15.2614C14.2362 14.7454 13.5034 14.7454 13.3651 15.2614L10.8912 24.4859Z" fill="#0364FF"/>
<path d="M12.9549 22.5408C12.7685 22.5408 12.6328 22.3732 12.681 22.2026L13.596 18.9668C13.6711 18.7013 14.0686 18.7013 14.1437 18.9668L15.0586 22.2026C15.1069 22.3732 14.9712 22.5408 14.7848 22.5408H12.9549Z" fill="#0364FF"/>
</svg>
