<svg width="22" height="22" viewBox="0 0 22 22" fill="none" xmlns="http://www.w3.org/2000/svg">
<path fill-rule="evenodd" clip-rule="evenodd" d="M11 22C4.92487 22 0 17.0751 0 11C0 4.92487 4.92487 0 11 0C17.0751 0 22 4.92487 22 11C22 17.0751 17.0751 22 11 22ZM11 20C15.9706 20 20 15.9706 20 11C20 6.02944 15.9706 2 11 2C6.02944 2 2 6.02944 2 11C2 15.9706 6.02944 20 11 20ZM16.0002 10.0001H9.41436L11.7073 7.70718L10.293 6.29297L5.58594 11.0001L10.293 15.7072L11.7073 14.293L9.41436 12.0001H16.0002V10.0001Z" fill="#5C6C7F"/>
</svg>
