<svg width="141" height="107" viewBox="0 0 141 107" fill="none" xmlns="http://www.w3.org/2000/svg">
<path d="M22.5276 83.0535C22.5745 83.0354 22.613 82.9958 22.6292 82.9402C22.6821 82.7569 22.6159 82.1413 22.4252 81.0511C23.204 80.5866 23.6245 80.2954 23.7147 80.1668C23.7483 80.1143 23.7517 80.0538 23.7224 80.0059C23.6705 79.9274 23.6072 79.8336 22.0991 80.112C20.9422 78.3357 20.7713 78.3673 20.6693 78.3822C20.66 78.3858 20.6489 78.3852 20.6349 78.3906C20.5881 78.4087 20.5495 78.4483 20.5334 78.5039C20.4744 78.6994 20.5567 79.4123 20.7783 80.6237C19.4856 81.4304 19.502 81.5424 19.5165 81.6354C19.5224 81.6923 19.5658 81.7347 19.6306 81.7491C19.7839 81.7834 20.2955 81.7134 21.1934 81.5284C22.2344 83.103 22.3865 83.0786 22.4915 83.0576C22.5072 83.0565 22.5183 83.0571 22.5276 83.0535Z" fill="#9D4492"/>
<path d="M38.1699 24.3125L36.5906 23.6967L34.7166 27.4815L36.2959 28.0974L38.1699 24.3125Z" fill="#9BEC7D"/>
<path d="M48.5645 34.7988L49.9232 35.2505L51.3245 32.0124L49.9658 31.5607L48.5645 34.7988Z" fill="#FFBF19"/>
<path d="M34.4449 75.5265L33.4902 76.6264L36.2729 78.6922L37.2275 77.5924L34.4449 75.5265Z" fill="#FFBF19"/>
<path d="M35.969 54.562L35.5664 56.1768L39.8078 56.8795L40.2104 55.2647L35.969 54.562Z" fill="#9D4492"/>
<path d="M38.1949 89.7319L37.135 91.092L40.6027 93.371L41.6626 92.0109L38.1949 89.7319Z" fill="#9D4492"/>
<path d="M35.664 43.2933L36.2599 41.7217L32.1621 40.5607L31.5662 42.1323L35.664 43.2933Z" fill="#9BEC7D"/>
<path d="M65.9671 9.19276C65.9998 9.18006 66.023 9.15631 66.0317 9.12332C66.0671 9.00603 66.1432 8.66753 66.0171 7.96665C66.5192 7.66361 66.6733 7.41471 66.733 7.3324C66.7575 7.29825 66.7582 7.2585 66.7356 7.22781C66.6999 7.1775 66.6827 6.98733 65.706 7.16352C64.9602 6.0171 64.827 6.16686 64.7612 6.17758C64.7565 6.1794 64.7471 6.18303 64.7424 6.18484C64.7097 6.19754 64.6865 6.2213 64.6778 6.25429C64.641 6.38196 64.5887 6.75785 64.7307 7.54138C63.8979 8.06133 64.0099 8.21478 64.0221 8.27417C64.026 8.31211 64.0534 8.34097 64.0945 8.34972C64.194 8.37033 64.4345 8.4035 65.019 8.28554C65.6929 9.30198 65.8761 9.20827 65.9467 9.19573C65.9513 9.19392 65.9624 9.19458 65.9671 9.19276Z" fill="#9BEC7D"/>
<path d="M88.1272 23.1029C88.16 23.0902 88.1831 23.0665 88.1919 23.0335C88.2272 22.9162 88.3034 22.5777 88.1773 21.8768C88.6794 21.5738 88.8335 21.3249 88.8932 21.2426C88.9176 21.2084 88.9184 21.1687 88.8957 21.138C88.8601 21.0877 88.8429 20.8975 87.8661 21.0737C87.1203 19.9273 86.9872 20.077 86.9213 20.0877C86.9166 20.0896 86.9073 20.0932 86.9026 20.095C86.8698 20.1077 86.8467 20.1315 86.8379 20.1644C86.8012 20.2921 86.7489 20.668 86.8908 21.4515C86.0581 21.9715 86.17 22.1249 86.1823 22.1843C86.1862 22.2223 86.2135 22.2511 86.2546 22.2599C86.3542 22.2805 86.5946 22.3137 87.1792 22.1957C87.8531 23.2121 88.0363 23.1184 88.1068 23.1059C88.1115 23.1041 88.1225 23.1047 88.1272 23.1029Z" fill="#FFBF19"/>
<path d="M106.127 76.1029C106.16 76.0902 106.183 76.0665 106.192 76.0335C106.227 75.9162 106.303 75.5777 106.177 74.8768C106.679 74.5738 106.833 74.3249 106.893 74.2426C106.918 74.2084 106.918 74.1687 106.896 74.138C106.86 74.0877 106.843 73.8975 105.866 74.0737C105.12 72.9273 104.987 73.077 104.921 73.0877C104.917 73.0896 104.907 73.0932 104.903 73.095C104.87 73.1077 104.847 73.1315 104.838 73.1644C104.801 73.2921 104.749 73.668 104.891 74.4515C104.058 74.9715 104.17 75.1249 104.182 75.1843C104.186 75.2223 104.214 75.2511 104.255 75.2599C104.354 75.2805 104.595 75.3137 105.179 75.1957C105.853 76.2121 106.036 76.1184 106.107 76.1059C106.111 76.1041 106.123 76.1047 106.127 76.1029Z" fill="#FFBF19"/>
<path d="M28.1272 65.1029C28.16 65.0902 28.1831 65.0665 28.1919 65.0335C28.2272 64.9162 28.3034 64.5777 28.1773 63.8768C28.6794 63.5738 28.8335 63.3249 28.8932 63.2426C28.9176 63.2084 28.9184 63.1687 28.8957 63.138C28.8601 63.0877 28.8429 62.8975 27.8661 63.0737C27.1203 61.9273 26.9872 62.077 26.9213 62.0877C26.9166 62.0896 26.9073 62.0932 26.9026 62.095C26.8698 62.1077 26.8467 62.1315 26.8379 62.1644C26.8012 62.2921 26.7489 62.668 26.8908 63.4515C26.0581 63.9715 26.17 64.1249 26.1823 64.1843C26.1862 64.2223 26.2135 64.2511 26.2546 64.2599C26.3542 64.2805 26.5946 64.3137 27.1792 64.1957C27.8531 65.2121 28.0363 65.1184 28.1068 65.1059C28.1115 65.1041 28.1225 65.1047 28.1272 65.1029Z" fill="#FFBF19"/>
<path d="M24.1272 35.1049C24.16 35.0922 24.1831 35.0684 24.1919 35.0354C24.2272 34.9181 24.3034 34.5796 24.1773 33.8788C24.6794 33.5757 24.8335 33.3268 24.8932 33.2445C24.9176 33.2104 24.9184 33.1706 24.8957 33.1399C24.8601 33.0896 24.8429 32.8994 23.8661 33.0756C23.1203 31.9292 22.9872 32.079 22.9213 32.0897C22.9166 32.0915 22.9073 32.0951 22.9026 32.097C22.8698 32.1097 22.8467 32.1334 22.8379 32.1664C22.8012 32.2941 22.7489 32.67 22.8908 33.4535C22.0581 33.9734 22.17 34.1269 22.1823 34.1863C22.1862 34.2242 22.2135 34.2531 22.2546 34.2618C22.3542 34.2824 22.5946 34.3156 23.1792 34.1977C23.8531 35.2141 24.0363 35.1204 24.1068 35.1078C24.1115 35.106 24.1225 35.1067 24.1272 35.1049Z" fill="#9BEC7D"/>
<path d="M15.0937 54.5618L14.5682 55.7761L17.7171 56.8229L18.2426 55.6086L15.0937 54.5618Z" fill="#FF623A"/>
<path d="M96.078 32.6055C96.0647 32.6548 96.0739 32.7102 96.1097 32.7569C96.2279 32.9107 96.7718 33.2274 97.7795 33.7279C97.6907 34.6456 97.6758 35.1653 97.7268 35.3167C97.7496 35.3757 97.7971 35.4151 97.8539 35.4199C97.9495 35.4246 98.0645 35.4293 98.745 34.0266C100.897 34.1494 100.974 33.9904 101.023 33.8979C101.026 33.8881 101.033 33.8794 101.037 33.8646C101.05 33.8153 101.041 33.7599 101.005 33.7132C100.881 33.5472 100.247 33.1851 99.1216 32.6367C99.2398 31.0922 99.1382 31.0382 99.0533 30.994C99.0031 30.9645 98.9423 30.9745 98.8915 31.0189C98.771 31.1239 98.5201 31.5849 98.1308 32.4317C96.2142 32.3356 96.1425 32.4749 96.0964 32.5735C96.0879 32.587 96.0807 32.5957 96.078 32.6055Z" fill="#9D4492"/>
<path d="M126.156 49.8145C126.143 49.8638 126.152 49.9192 126.188 49.9659C126.306 50.1196 126.85 50.4363 127.858 50.9369C127.769 51.8546 127.754 52.3743 127.805 52.5257C127.828 52.5847 127.875 52.624 127.932 52.6289C128.028 52.6336 128.143 52.6383 128.823 51.2356C130.975 51.3584 131.052 51.1994 131.101 51.1069C131.104 51.097 131.111 51.0884 131.115 51.0736C131.128 51.0243 131.119 50.9689 131.083 50.9222C130.959 50.7562 130.325 50.3941 129.2 49.8457C129.318 48.3012 129.216 48.2472 129.131 48.203C129.081 48.1735 129.02 48.1835 128.97 48.2279C128.849 48.3328 128.598 48.7939 128.209 49.6407C126.292 49.5445 126.221 49.6838 126.175 49.7824C126.166 49.796 126.159 49.8046 126.156 49.8145Z" fill="#A7EE8D"/>
<path d="M120.338 59.8887L121.794 58.9664L119.823 55.1516L118.367 56.0739L120.338 59.8887Z" fill="#9BEC7D"/>
<path d="M117.531 36.5586L116.343 37.3991L118.15 40.4974L119.339 39.6569L117.531 36.5586Z" fill="#FFBF19"/>
<path d="M80.6419 25.9833L80.3163 24.539L76.9483 25.5732L77.2738 27.0175L80.6419 25.9833Z" fill="#FFBF19"/>
<path d="M109.829 48.4349L108.749 47.1323L105.618 50.1823L106.698 51.4849L109.829 48.4349Z" fill="#9D4492"/>
<path d="M66.7549 20.4988L66.2797 18.8115L62.3243 20.2783L62.7995 21.9656L66.7549 20.4988Z" fill="#9D4492"/>
<path d="M104.749 24.9248L105.677 26.3595L109.097 23.7033L108.169 22.2685L104.749 24.9248Z" fill="#9BEC7D"/>
<path d="M115.977 91.7592C115.968 91.7937 115.973 91.827 115.995 91.854C116.07 91.9536 116.301 92.2199 116.951 92.5389C116.897 93.1326 117.008 93.4088 117.039 93.5072C117.052 93.5478 117.084 93.5724 117.123 93.5723C117.186 93.5734 117.352 93.6739 117.796 92.7679C119.184 92.8478 119.142 92.6486 119.173 92.5882C119.174 92.5832 119.177 92.5734 119.178 92.5685C119.187 92.534 119.182 92.5007 119.16 92.4737C119.078 92.3667 118.801 92.0974 118.074 91.7416C118.15 90.7464 117.957 90.7457 117.901 90.7199C117.868 90.7003 117.827 90.7053 117.796 90.7336C117.719 90.8028 117.547 90.9797 117.291 91.5294C116.053 91.4689 116.019 91.6754 115.987 91.7407C115.986 91.7457 115.978 91.7543 115.977 91.7592Z" fill="#9BEC7D"/>
<path d="M127.489 78.9367L126.811 77.7749L124.057 79.7229L124.735 80.8847L127.489 78.9367Z" fill="#FF623A"/>
<circle cx="73.5" cy="64.7305" r="27.5" fill="#0E9F6E"/>
<path fill-rule="evenodd" clip-rule="evenodd" d="M68.5539 71.8815C68.8439 72.1793 69.3223 72.1793 69.6122 71.8815L84.2185 56.8765C84.9214 56.1545 86.0815 56.1545 86.7843 56.8765C87.461 57.5716 87.461 58.6791 86.7843 59.3742L70.0456 76.5698C69.5183 77.1115 68.6479 77.1115 68.1206 76.5698L60.2157 68.4491C59.539 67.754 59.539 66.6465 60.2157 65.9515C60.9185 65.2294 62.0786 65.2294 62.7815 65.9515L68.5539 71.8815Z" fill="white"/>
</svg>
