<svg width="81" height="15" viewBox="0 0 81 15" fill="none" xmlns="http://www.w3.org/2000/svg">
<path fill-rule="evenodd" clip-rule="evenodd" d="M40.7346 12.4628C40.2037 12.4628 39.7171 12.3521 39.2747 12.1305C39.025 12.0027 38.8082 11.8508 38.624 11.6749C38.5076 11.5637 38.2719 11.6392 38.2719 11.7984V12.0361C38.2719 12.1441 38.1825 12.2317 38.0723 12.2317H37.1148C37.0045 12.2317 36.9152 12.1441 36.9152 12.0361V2.08229C36.9152 1.97428 37.0045 1.88672 37.1148 1.88672H38.0678C38.178 1.88672 38.2674 1.97428 38.2674 2.08229V5.58566C38.2674 5.74491 38.5037 5.82081 38.6204 5.70996C38.806 5.53368 39.0247 5.38154 39.2747 5.25351C39.7171 5.03198 40.2037 4.92122 40.7346 4.92122C41.6882 4.92122 42.4944 5.28722 43.1531 6.01923C43.8314 6.76087 44.1706 7.65181 44.1706 8.69203C44.1706 9.74189 43.8314 10.6328 43.1531 11.3648C42.4944 12.0968 41.6882 12.4628 40.7346 12.4628ZM40.5134 11.2493C41.1623 11.2493 41.7079 11.0085 42.1503 10.5269C42.5927 10.0549 42.8139 9.44331 42.8139 8.69203C42.8139 7.95039 42.5927 7.33878 42.1503 6.85719C41.7079 6.37561 41.1623 6.13481 40.5134 6.13481C39.8547 6.13481 39.3042 6.37561 38.8618 6.85719C38.4292 7.33878 38.2129 7.95039 38.2129 8.69203C38.2129 9.44331 38.4292 10.0597 38.8618 10.5413C39.3042 11.0133 39.8547 11.2493 40.5134 11.2493ZM32.2532 12.4628C31.1914 12.4628 30.3165 12.1065 29.6283 11.3937C28.9401 10.681 28.596 9.78041 28.596 8.69203C28.596 7.61328 28.9303 6.71753 29.5988 6.00478C30.2673 5.2824 31.1226 4.92122 32.1647 4.92122C33.2363 4.92122 34.0867 5.26314 34.7159 5.94699C35.394 6.6624 35.7182 7.73838 35.6757 8.71704C35.6703 8.84251 35.5621 8.93764 35.4339 8.93764H30.2259C30.0924 8.93764 29.9842 9.04584 29.998 9.17592C30.0601 9.76022 30.2908 10.2394 30.69 10.6136C31.1423 11.0373 31.683 11.2492 32.3122 11.2492C33.1149 11.2492 33.7568 10.8844 34.238 10.1547C34.3023 10.0571 34.4302 10.0175 34.5368 10.0684L35.3474 10.4558C35.4617 10.5104 35.5075 10.6474 35.4413 10.7538C35.1279 11.2571 34.7141 11.6583 34.1998 11.9572C33.6296 12.2943 32.9807 12.4628 32.2532 12.4628ZM30.1639 7.56064C30.1159 7.70158 30.2293 7.83962 30.3809 7.83962H33.9729C34.1111 7.83962 34.2216 7.72364 34.1936 7.59103C34.113 7.21023 33.9185 6.88856 33.6099 6.62603C33.2462 6.29855 32.7546 6.13481 32.1352 6.13481C31.624 6.13481 31.1816 6.28892 30.808 6.59713C30.5119 6.84807 30.2972 7.16924 30.1639 7.56064ZM28.1801 5.42394C28.2242 5.28977 28.1221 5.15238 27.9782 5.15238H27.0419C26.9478 5.15238 26.865 5.21306 26.8384 5.30145L25.4574 9.89426C25.402 10.0785 25.1371 10.0823 25.0762 9.89978L23.5393 5.29558C23.5108 5.21016 23.4294 5.15238 23.3377 5.15238H22.2439C22.1524 5.15238 22.0712 5.20992 22.0425 5.2951L20.4917 9.90282C20.4304 10.085 20.166 10.0808 20.1106 9.89685L18.7288 5.30145C18.7022 5.21306 18.6194 5.15238 18.5254 5.15238H17.5595C17.4156 5.15238 17.3135 5.28977 17.3577 5.42394L19.5509 12.0877C19.5792 12.1735 19.6607 12.2317 19.7528 12.2317H20.8152C20.9073 12.2317 20.9889 12.1734 21.0171 12.0875L22.5649 7.37552C22.6242 7.19487 22.885 7.19456 22.9448 7.37507L24.5057 12.088C24.534 12.1737 24.6155 12.2317 24.7074 12.2317H25.785C25.877 12.2317 25.9586 12.1735 25.9868 12.0877L28.1801 5.42394ZM70.2145 11.8127C70.6077 12.1691 71.0993 12.3473 71.6892 12.3473C72.0795 12.3473 72.4295 12.3044 72.7392 12.2187C72.8448 12.1895 72.8984 12.0776 72.8618 11.9763L72.5723 11.1742C72.5334 11.0666 72.4093 11.0147 72.2983 11.0491C72.2682 11.0584 72.2372 11.0674 72.2053 11.0759C72.107 11.0951 72.0038 11.1048 71.8957 11.1048C71.6597 11.1048 71.4483 11.0229 71.2615 10.8592C71.0747 10.6858 70.9813 10.3631 70.9813 9.89118V6.56154C70.9813 6.45353 71.0707 6.36597 71.181 6.36597H72.5513C72.6616 6.36597 72.751 6.27842 72.751 6.17041V5.34795C72.751 5.23994 72.6616 5.15238 72.5513 5.15238H71.181C71.0707 5.15238 70.9813 5.06482 70.9813 4.95681V2.08229C70.9813 1.97428 70.892 1.88672 70.7817 1.88672H69.8243C69.714 1.88672 69.6246 1.97428 69.6246 2.08229V4.95681C69.6246 5.06482 69.5353 5.15238 69.425 5.15238H68.556C68.4458 5.15238 68.3564 5.23994 68.3564 5.34795V6.17041C68.3564 6.27842 68.4458 6.36597 68.556 6.36597H69.425C69.5353 6.36597 69.6246 6.45353 69.6246 6.56154V10.3246C69.6345 10.9603 69.8311 11.4563 70.2145 11.8127ZM50.8388 11.596C51.4975 11.0181 51.8268 10.2957 51.8268 9.42886C51.8268 8.89911 51.6744 8.42234 51.3697 7.99855C51.2294 7.79704 51.0279 7.54092 50.437 7.21632C50.3121 7.14774 50.3089 6.96503 50.4269 6.88575C51.1341 6.41097 51.4876 5.6921 51.4876 4.84898C51.4876 4.04955 51.1878 3.39941 50.5881 2.89856C49.9785 2.37845 49.2264 2.11839 48.3318 2.11839C47.6141 2.11839 46.9898 2.30621 46.459 2.68185C45.9859 3.01656 45.6338 3.44305 45.4028 3.96131C45.3549 4.0687 45.4099 4.19137 45.52 4.23707L46.3583 4.58491C46.4771 4.63417 46.6127 4.57496 46.666 4.45994C46.9962 3.7465 47.5515 3.38978 48.3318 3.38978C48.8627 3.38978 49.2903 3.52462 49.6148 3.79431C49.9392 4.064 50.1014 4.41555 50.1014 4.84898C50.1014 5.32094 49.9294 5.7062 49.5853 6.00479C49.2412 6.29374 48.7988 6.43821 48.2581 6.43821H47.7158C47.5918 6.43821 47.4912 6.53672 47.4912 6.65823V7.46069C47.4912 7.5822 47.5918 7.6807 47.7158 7.6807H48.3613C48.9315 7.6807 49.4182 7.84926 49.8212 8.18637C50.2341 8.52348 50.4406 8.93764 50.4406 9.42886C50.4406 9.92007 50.244 10.3391 49.8507 10.6858C49.4477 11.0229 48.9708 11.1915 48.4203 11.1915C47.9189 11.1915 47.4863 11.047 47.1226 10.758C46.8213 10.5039 46.5913 10.159 46.4325 9.72341C46.3871 9.59905 46.2461 9.5314 46.1217 9.58219L45.3014 9.91702C45.1963 9.95995 45.1399 10.0735 45.1768 10.1791C45.4061 10.8357 45.804 11.3754 46.3705 11.7983C46.98 12.2413 47.6633 12.4628 48.4203 12.4628C49.3837 12.4628 50.1899 12.1739 50.8388 11.596ZM54.2342 10.0646C54.2342 9.67928 54.4161 9.35662 54.7799 9.09656C55.1535 8.83651 55.6155 8.70648 56.1661 8.70648C56.8724 8.70648 57.4332 8.84902 57.8485 9.1341C57.9047 9.17271 57.9364 9.23699 57.9329 9.30418C57.9058 9.81836 57.6806 10.2693 57.2573 10.6569C56.8149 11.0711 56.3086 11.2781 55.7384 11.2781C55.3353 11.2781 54.9814 11.1626 54.6766 10.9314C54.3817 10.7002 54.2342 10.4113 54.2342 10.0646ZM58.3633 5.71583C57.7833 5.18609 56.9919 4.92122 55.9891 4.92122C54.7801 4.92122 53.8484 5.32862 53.1939 6.14343C53.1234 6.23116 53.1499 6.35796 53.2464 6.41745L54.102 6.94526C54.1924 7.00104 54.3111 6.97649 54.3778 6.89475C54.8074 6.36886 55.369 6.10592 56.0628 6.10592C56.5642 6.10592 57.0017 6.26966 57.3753 6.59714C57.7513 6.91701 57.8843 7.30145 57.9225 7.73567C57.9356 7.88492 57.7693 7.98145 57.6282 7.92375C57.1613 7.73282 56.6002 7.63736 55.9449 7.63736C55.0011 7.63736 54.2441 7.85407 53.6738 8.2875C53.1135 8.72093 52.8333 9.30365 52.8333 10.0357C52.8333 10.7291 53.0987 11.307 53.6296 11.7694C54.1703 12.2317 54.8389 12.4628 55.6352 12.4628C56.5691 12.4628 57.3163 12.0583 57.8767 11.2493V12.0361C57.8767 12.1441 57.9661 12.2317 58.0763 12.2317H59.0338C59.144 12.2317 59.2334 12.1441 59.2334 12.0361V7.86852C59.2334 6.95351 58.9434 6.23595 58.3633 5.71583ZM67.1048 12.0239C67.1048 12.1387 67.0098 12.2317 66.8927 12.2317H65.9602C65.843 12.2317 65.7481 12.1387 65.7481 12.0239V11.7918C65.7481 11.6421 65.5168 11.5703 65.4079 11.6753C65.2369 11.8402 65.0308 11.9872 64.7895 12.1161C64.3668 12.3473 63.9244 12.4628 63.4623 12.4628C62.5775 12.4628 61.8942 12.2172 61.4125 11.726C60.9406 11.2252 60.7046 10.5172 60.7046 9.60223V5.36017C60.7046 5.24541 60.7996 5.15238 60.9167 5.15238H61.8493C61.9664 5.15238 62.0613 5.24541 62.0613 5.36017V9.51554C62.0908 10.6713 62.6856 11.2493 63.8457 11.2493C64.3864 11.2493 64.8387 11.0374 65.2024 10.6136C65.5662 10.1801 65.7481 9.66483 65.7481 9.06767V5.36017C65.7481 5.24541 65.843 5.15238 65.9602 5.15238H66.8927C67.0098 5.15238 67.1048 5.24541 67.1048 5.36017V12.0239ZM74.1135 2.08229C74.1135 1.97428 74.2029 1.88672 74.3132 1.88672H75.2706C75.3809 1.88672 75.4703 1.97428 75.4703 2.08229V5.59227C75.4703 5.74199 75.7007 5.81318 75.8089 5.70746C75.9771 5.54307 76.1789 5.39657 76.4141 5.26796C76.8466 5.0368 77.294 4.92122 77.756 4.92122C78.6408 4.92122 79.3192 5.17164 79.7911 5.67249C80.2728 6.16371 80.5137 6.86682 80.5137 7.78184V12.0361C80.5137 12.1441 80.4243 12.2317 80.3141 12.2317H79.3566C79.2463 12.2317 79.157 12.1441 79.157 12.0361V8.04189C79.157 6.77051 78.5818 6.13481 77.4316 6.13481C76.881 6.13481 76.4141 6.36116 76.0306 6.81385C75.6571 7.25691 75.4703 7.77702 75.4703 8.37419V12.0361C75.4703 12.1441 75.3809 12.2317 75.2706 12.2317H74.3132C74.2029 12.2317 74.1135 12.1441 74.1135 12.0361V2.08229Z" fill="#5C6C7F"/>
<path d="M12.0252 11.1095C12.1042 11.4031 12.5224 11.4031 12.6013 11.1095L14.8747 2.658C14.9794 2.26886 14.685 1.88672 14.2806 1.88672H12.8789C12.6005 1.88672 12.3568 2.07298 12.2848 2.34084L11.0028 7.10678C10.985 7.17289 10.985 7.2425 11.0028 7.30861L12.0252 11.1095Z" fill="#5C6C7F"/>
<path d="M4.08015 7.1006C4.09793 7.16671 4.09793 7.23632 4.08015 7.30243L3.05774 11.1033C2.97877 11.3969 2.56058 11.3969 2.48162 11.1033L0.209896 2.658C0.10522 2.26886 0.399586 1.88672 0.804021 1.88672H2.20569C2.48408 1.88672 2.72776 2.07298 2.79981 2.34084L4.08015 7.1006Z" fill="#5C6C7F"/>
<path d="M5.99654 12.9673C5.92696 13.2267 5.69162 13.4071 5.42277 13.4071H3.98838C3.59781 13.4071 3.31352 13.037 3.41461 12.66L6.17485 2.36784C6.25096 2.08405 6.50835 1.88672 6.80241 1.88672H8.47072C8.76478 1.88672 9.02217 2.08405 9.09828 2.36784L11.8585 12.66C11.9596 13.037 11.6753 13.4071 11.2847 13.4071H9.85036C9.5815 13.4071 9.34617 13.2267 9.27659 12.9673L7.91448 7.88833C7.8383 7.60424 7.43483 7.60424 7.35864 7.88833L5.99654 12.9673Z" fill="#5C6C7F"/>
<path d="M7.13281 11.8963C7.03017 11.8963 6.95547 11.804 6.98203 11.7101L7.48579 9.92847C7.52713 9.78228 7.74602 9.78228 7.78736 9.92847L8.29112 11.7101C8.31768 11.804 8.24297 11.8963 8.14033 11.8963H7.13281Z" fill="#5C6C7F"/>
</svg>
