<svg width="87" height="16" viewBox="0 0 87 16" fill="none" xmlns="http://www.w3.org/2000/svg">
<path fill-rule="evenodd" clip-rule="evenodd" d="M43.5882 13.8947C43.0201 13.8947 42.4993 13.7712 42.0259 13.5243C41.7588 13.3818 41.5268 13.2125 41.3297 13.0163C41.2052 12.8924 40.9529 12.9765 40.9529 13.154V13.419C40.9529 13.5394 40.8573 13.637 40.7393 13.637H39.7148C39.5968 13.637 39.5012 13.5394 39.5012 13.419V2.32323C39.5012 2.20283 39.5968 2.10522 39.7148 2.10522H40.7345C40.8525 2.10522 40.9481 2.20283 40.9481 2.32323V6.22852C40.9481 6.40605 41.201 6.49065 41.3259 6.36708C41.5245 6.17059 41.7584 6.00099 42.0259 5.85827C42.4993 5.61133 43.0201 5.48786 43.5882 5.48786C44.6086 5.48786 45.4712 5.89585 46.1761 6.71184C46.9019 7.53857 47.2649 8.53171 47.2649 9.69128C47.2649 10.8616 46.9019 11.8547 46.1761 12.6707C45.4712 13.4867 44.6086 13.8947 43.5882 13.8947ZM43.3515 12.5419C44.0458 12.5419 44.6296 12.2735 45.103 11.7366C45.5764 11.2105 45.8131 10.5287 45.8131 9.69128C45.8131 8.86455 45.5764 8.18277 45.103 7.64594C44.6296 7.1091 44.0458 6.84068 43.3515 6.84068C42.6466 6.84068 42.0575 7.1091 41.5841 7.64594C41.1212 8.18277 40.8898 8.86455 40.8898 9.69128C40.8898 10.5287 41.1212 11.2159 41.5841 11.7527C42.0575 12.2788 42.6466 12.5419 43.3515 12.5419ZM34.5126 13.8947C33.3765 13.8947 32.4402 13.4974 31.7038 12.7029C30.9674 11.9084 30.5992 10.9045 30.5992 9.69127C30.5992 8.48876 30.9569 7.49025 31.6722 6.69573C32.3876 5.89048 33.3028 5.48785 34.4179 5.48785C35.5646 5.48785 36.4746 5.86901 37.1479 6.63131C37.8734 7.4288 38.2203 8.62822 38.1749 9.71915C38.169 9.85902 38.0533 9.96506 37.9161 9.96506H32.3433C32.2005 9.96506 32.0847 10.0857 32.0994 10.2307C32.1659 10.882 32.4127 11.4162 32.8399 11.8332C33.3239 12.3057 33.9025 12.5419 34.5757 12.5419C35.4347 12.5419 36.1216 12.1352 36.6364 11.3218C36.7052 11.213 36.8422 11.1688 36.9562 11.2256L37.8236 11.6574C37.9459 11.7183 37.9949 11.871 37.924 11.9895C37.5887 12.5507 37.1459 12.9978 36.5956 13.331C35.9854 13.7068 35.2911 13.8947 34.5126 13.8947ZM32.277 8.43008C32.2256 8.58719 32.3469 8.74108 32.5092 8.74108H36.3528C36.5007 8.74108 36.6189 8.61178 36.5889 8.46397C36.5027 8.03947 36.2946 7.6809 35.9644 7.38825C35.5751 7.0232 35.0491 6.84068 34.3864 6.84068C33.8393 6.84068 33.3659 7.01247 32.9662 7.35604C32.6493 7.63577 32.4195 7.99378 32.277 8.43008ZM30.1541 6.04825C30.2014 5.89869 30.0921 5.74554 29.9381 5.74554H28.9362C28.8356 5.74554 28.747 5.81318 28.7185 5.91171L27.2407 11.0314C27.1814 11.2368 26.898 11.241 26.8328 11.0376L25.1882 5.90517C25.1577 5.80995 25.0707 5.74554 24.9725 5.74554H23.8021C23.7042 5.74554 23.6173 5.80968 23.5866 5.90463L21.9272 11.041C21.8616 11.244 21.5786 11.2394 21.5194 11.0343L20.0408 5.91171C20.0124 5.81318 19.9238 5.74554 19.8231 5.74554H18.7896C18.6356 5.74554 18.5264 5.89869 18.5736 6.04825L20.9205 13.4765C20.9507 13.5722 21.038 13.637 21.1365 13.637H22.2734C22.3719 13.637 22.4592 13.5721 22.4894 13.4763L24.1456 8.22373C24.2091 8.02235 24.4881 8.02201 24.5521 8.22323L26.2223 13.4769C26.2527 13.5724 26.3399 13.637 26.4382 13.637H27.5913C27.6898 13.637 27.7771 13.5722 27.8073 13.4765L30.1541 6.04825ZM75.1332 13.17C75.554 13.5672 76.08 13.7659 76.7112 13.7659C77.1289 13.7659 77.5034 13.7181 77.8347 13.6226C77.9477 13.59 78.0051 13.4653 77.966 13.3523L77.6561 12.4582C77.6146 12.3383 77.4817 12.2804 77.363 12.3188C77.3307 12.3292 77.2976 12.3391 77.2635 12.3486C77.1583 12.3701 77.0478 12.3808 76.9321 12.3808C76.6796 12.3808 76.4535 12.2896 76.2536 12.107C76.0537 11.9138 75.9538 11.5541 75.9538 11.028V7.31637C75.9538 7.19597 76.0494 7.09836 76.1674 7.09836H77.6338C77.7517 7.09836 77.8474 7.00076 77.8474 6.88036V5.96354C77.8474 5.84314 77.7517 5.74554 77.6338 5.74554H76.1674C76.0494 5.74554 75.9538 5.64794 75.9538 5.52754V2.32323C75.9538 2.20283 75.8581 2.10522 75.7402 2.10522H74.7156C74.5976 2.10522 74.502 2.20283 74.502 2.32323V5.52754C74.502 5.64794 74.4064 5.74554 74.2884 5.74554H73.3585C73.2406 5.74554 73.1449 5.84314 73.1449 5.96354V6.88036C73.1449 7.00076 73.2406 7.09836 73.3585 7.09836H74.2884C74.4064 7.09836 74.502 7.19597 74.502 7.31637V11.5112C74.5125 12.2198 74.7229 12.7727 75.1332 13.17ZM54.4001 12.9284C55.105 12.2842 55.4574 11.4789 55.4574 10.5126C55.4574 9.92212 55.2943 9.39065 54.9682 8.91824C54.8182 8.69361 54.6026 8.4081 53.9702 8.04627C53.8366 7.96981 53.8331 7.76615 53.9595 7.67777C54.7161 7.14853 55.0945 6.34718 55.0945 5.40733C55.0945 4.51619 54.7736 3.79146 54.1319 3.23315C53.4797 2.65337 52.6749 2.36348 51.7176 2.36348C50.9496 2.36348 50.2816 2.57284 49.7135 2.99158C49.2073 3.36469 48.8306 3.84011 48.5833 4.41782C48.5321 4.53753 48.591 4.67427 48.7088 4.72522L49.6059 5.11297C49.7329 5.16788 49.878 5.10188 49.935 4.97365C50.2884 4.17837 50.8826 3.78072 51.7176 3.78072C52.2856 3.78072 52.7433 3.93104 53.0904 4.23166C53.4376 4.53229 53.6112 4.92418 53.6112 5.40733C53.6112 5.93343 53.4271 6.3629 53.0589 6.69574C52.6907 7.01784 52.2173 7.17889 51.6387 7.17889H51.0584C50.9257 7.17889 50.8181 7.28869 50.8181 7.42414V8.31867C50.8181 8.45412 50.9257 8.56392 51.0584 8.56392H51.7491C52.3593 8.56392 52.88 8.75182 53.3113 9.1276C53.7532 9.50339 53.9741 9.96506 53.9741 10.5126C53.9741 11.0602 53.7637 11.5273 53.3429 11.9138C52.9116 12.2896 52.4014 12.4775 51.8122 12.4775C51.2757 12.4775 50.8128 12.3164 50.4236 11.9943C50.1012 11.711 49.8551 11.3266 49.6852 10.841C49.6367 10.7024 49.4857 10.6269 49.3526 10.6836L48.4749 11.0568C48.3624 11.1047 48.302 11.2313 48.3415 11.349C48.5869 12.0809 49.0126 12.6825 49.6188 13.1539C50.2711 13.6478 51.0022 13.8947 51.8122 13.8947C52.8432 13.8947 53.7058 13.5726 54.4001 12.9284ZM58.0335 11.2213C58.0335 10.7918 58.2281 10.4321 58.6173 10.1422C59.0171 9.85233 59.5115 9.70738 60.1006 9.70738C60.8564 9.70738 61.4565 9.86628 61.9009 10.1841C61.9611 10.2271 61.995 10.2988 61.9913 10.3737C61.9622 10.9468 61.7213 11.4495 61.2683 11.8816C60.795 12.3432 60.2532 12.5741 59.643 12.5741C59.2117 12.5741 58.833 12.4452 58.5069 12.1876C58.1913 11.9299 58.0335 11.6078 58.0335 11.2213ZM62.4518 6.37364C61.8312 5.78312 60.9843 5.48786 59.9113 5.48786C58.6176 5.48786 57.6206 5.942 56.9202 6.85028C56.8448 6.94809 56.8732 7.08943 56.9764 7.15574L57.892 7.74411C57.9888 7.80629 58.1157 7.77892 58.1871 7.6878C58.6468 7.10158 59.2478 6.80847 59.9902 6.80847C60.5267 6.80847 60.9948 6.991 61.3946 7.35604C61.7969 7.71261 61.9393 8.14116 61.9801 8.62519C61.9942 8.79157 61.8162 8.89917 61.6652 8.83485C61.1656 8.62202 60.5651 8.51561 59.8639 8.51561C58.854 8.51561 58.044 8.75719 57.4338 9.24034C56.8342 9.72349 56.5344 10.3731 56.5344 11.189C56.5344 11.9621 56.8184 12.6063 57.3865 13.1217C57.9651 13.637 58.6804 13.8947 59.5326 13.8947C60.532 13.8947 61.3315 13.4438 61.9311 12.5419V13.419C61.9311 13.5394 62.0267 13.637 62.1447 13.637H63.1693C63.2872 13.637 63.3829 13.5394 63.3829 13.419V8.77329C63.3829 7.7533 63.0725 6.95342 62.4518 6.37364ZM71.8056 13.4054C71.8056 13.5333 71.704 13.637 71.5787 13.637H70.5808C70.4555 13.637 70.3539 13.5333 70.3539 13.4054V13.1467C70.3539 12.9798 70.1064 12.8997 69.9898 13.0168C69.8069 13.2007 69.5864 13.3644 69.3282 13.5082C68.8758 13.7659 68.4024 13.8947 67.908 13.8947C66.9612 13.8947 66.2301 13.6209 65.7146 13.0733C65.2096 12.515 64.9572 11.7259 64.9572 10.7059V5.97717C64.9572 5.84924 65.0588 5.74554 65.1841 5.74554H66.1819C66.3073 5.74554 66.4089 5.84924 66.4089 5.97717V10.6093C66.4405 11.8977 67.0769 12.5419 68.3183 12.5419C68.8969 12.5419 69.3808 12.3057 69.77 11.8333C70.1593 11.3501 70.3539 10.7757 70.3539 10.11V5.97717C70.3539 5.84924 70.4555 5.74554 70.5808 5.74554H71.5787C71.704 5.74554 71.8056 5.84924 71.8056 5.97717V13.4054ZM79.3054 2.32323C79.3054 2.20283 79.401 2.10522 79.519 2.10522H80.5435C80.6615 2.10522 80.7571 2.20283 80.7571 2.32323V6.2359C80.7571 6.40279 81.0037 6.48215 81.1195 6.3643C81.2995 6.18105 81.5154 6.01774 81.7671 5.87438C82.2299 5.6167 82.7086 5.48786 83.203 5.48786C84.1498 5.48786 84.8757 5.76701 85.3807 6.32532C85.8961 6.87289 86.1539 7.65667 86.1539 8.67666V13.419C86.1539 13.5394 86.0582 13.637 85.9403 13.637H84.9157C84.7977 13.637 84.7021 13.5394 84.7021 13.419V8.96655C84.7021 7.54931 84.0867 6.84068 82.8559 6.84068C82.2668 6.84068 81.7671 7.093 81.3568 7.59762C80.957 8.09151 80.7571 8.67129 80.7571 9.33697V13.419C80.7571 13.5394 80.6615 13.637 80.5435 13.637H79.519C79.401 13.637 79.3054 13.5394 79.3054 13.419V2.32323Z" fill="#D1D5DB"/>
<path d="M12.8676 12.3861C12.9521 12.7134 13.3996 12.7134 13.4841 12.3861L15.9167 2.96499C16.0288 2.53121 15.7138 2.10522 15.281 2.10522H13.7811C13.4833 2.10522 13.2225 2.31285 13.1454 2.61145L11.7736 7.92416C11.7546 7.99785 11.7546 8.07545 11.7736 8.14914L12.8676 12.3861Z" fill="#D1D5DB"/>
<path d="M4.366 7.91727C4.38503 7.99097 4.38503 8.06856 4.366 8.14225L3.27197 12.3792C3.18747 12.7065 2.73999 12.7065 2.65549 12.3792L0.224632 2.96499C0.112624 2.53121 0.427611 2.10522 0.860378 2.10522H2.36023C2.65813 2.10522 2.91888 2.31285 2.99598 2.61145L4.366 7.91727Z" fill="#D1D5DB"/>
<path d="M6.41665 14.457C6.34219 14.7462 6.09037 14.9473 5.80268 14.9473H4.26781C3.84987 14.9473 3.54568 14.5347 3.65385 14.1145L6.60744 2.64154C6.68888 2.3252 6.96431 2.10522 7.27897 2.10522H9.06415C9.3788 2.10522 9.65423 2.3252 9.73567 2.64154L12.6893 14.1145C12.7974 14.5347 12.4932 14.9473 12.0753 14.9473H10.5404C10.2527 14.9473 10.0009 14.7462 9.92647 14.457L8.46895 8.79538C8.38742 8.47869 7.95569 8.47869 7.87417 8.79538L6.41665 14.457Z" fill="#D1D5DB"/>
<path d="M7.63252 13.2631C7.52269 13.2631 7.44275 13.1603 7.47117 13.0556L8.01022 11.0696C8.05445 10.9066 8.28868 10.9066 8.33291 11.0696L8.87196 13.0556C8.90039 13.1603 8.82045 13.2631 8.71062 13.2631H7.63252Z" fill="#D1D5DB"/>
</svg>
