<svg width="192" height="52" viewBox="0 0 192 52" fill="none" xmlns="http://www.w3.org/2000/svg">
<path fill-rule="evenodd" clip-rule="evenodd" d="M18.4636 26.3592C18.4004 26.5939 18.5783 26.8244 18.8227 26.8244H20.9634C21.2078 26.8244 21.3857 26.5939 21.3225 26.3592L20.2521 22.3882C20.1537 22.023 19.6324 22.023 19.534 22.3882L18.4636 26.3592Z" fill="white"/>
<path fill-rule="evenodd" clip-rule="evenodd" d="M16.332 28.9009C16.1681 29.5091 15.6137 29.932 14.9803 29.932H12.0827C11.1626 29.932 10.4928 29.0643 10.731 28.1808L16.6752 6.12791C16.8545 5.46271 17.4609 5.00016 18.1537 5.00016H21.6022C22.2949 5.00016 22.9013 5.46271 23.0806 6.12791L29.0249 28.1808C29.263 29.0643 28.5933 29.932 27.6731 29.932H24.7755C24.1422 29.932 23.5877 29.5091 23.4238 28.9009L20.5327 18.1749C20.3532 17.509 19.4027 17.509 19.2232 18.1749L16.332 28.9009Z" fill="white"/>
<path fill-rule="evenodd" clip-rule="evenodd" d="M30.9071 24.7452C30.7218 25.4326 29.7406 25.4326 29.5554 24.7452L27.3973 16.7391C27.3556 16.5843 27.3556 16.4213 27.3973 16.2665L30.1476 6.06331C30.3166 5.43612 30.8884 5 31.5415 5H34.3486C35.2975 5 35.9881 5.89476 35.7425 6.80592L30.9071 24.7452ZM12.3916 16.7257C12.4333 16.5709 12.4333 16.4079 12.3916 16.2531L9.64495 6.06331C9.47589 5.43612 8.90415 5 8.25097 5H5.44395C4.49503 5 3.80437 5.89476 4.04997 6.80592L8.88181 24.7319C9.06709 25.4193 10.0483 25.4193 10.2335 24.7319L12.3916 16.7257Z" fill="white"/>
<path fill-rule="evenodd" clip-rule="evenodd" d="M96.1035 29.3959C94.8978 29.3959 93.7926 29.146 92.7879 28.6462C92.2209 28.3578 91.7284 28.0152 91.3102 27.6182C91.0459 27.3674 90.5104 27.5376 90.5104 27.8969V28.4332C90.5104 28.6768 90.3075 28.8744 90.0571 28.8744H87.8826C87.6322 28.8744 87.4292 28.6768 87.4292 28.4332V5.9773C87.4292 5.73364 87.6322 5.5361 87.8826 5.5361H90.0469C90.2973 5.5361 90.5002 5.73364 90.5002 5.9773V13.8809C90.5002 14.2402 91.037 14.4114 91.302 14.1613C91.7235 13.7637 92.2201 13.4204 92.7879 13.1316C93.7926 12.6318 94.8978 12.3819 96.1035 12.3819C98.2693 12.3819 100.1 13.2077 101.596 14.8591C103.137 16.5322 103.907 18.5422 103.907 20.8889C103.907 23.2574 103.137 25.2673 101.596 26.9187C100.1 28.5702 98.2693 29.3959 96.1035 29.3959ZM95.6011 26.658C97.0748 26.658 98.3139 26.1148 99.3187 25.0283C100.323 23.9636 100.826 22.5838 100.826 20.8889C100.826 19.2158 100.323 17.836 99.3187 16.7495C98.3139 15.663 97.0748 15.1198 95.6011 15.1198C94.1052 15.1198 92.8548 15.663 91.8501 16.7495C90.8677 17.836 90.3765 19.2158 90.3765 20.8889C90.3765 22.5838 90.8677 23.9745 91.8501 25.0609C92.8548 26.1256 94.1052 26.658 95.6011 26.658ZM76.8415 29.3959C74.4301 29.3959 72.4429 28.5919 70.88 26.9839C69.317 25.376 68.5356 23.3443 68.5356 20.8889C68.5356 18.4552 69.2947 16.4344 70.813 14.8265C72.3313 13.1968 74.2738 12.3819 76.6405 12.3819C79.0742 12.3819 81.0056 13.1533 82.4345 14.6961C83.9745 16.3101 84.7108 18.7375 84.6143 20.9453C84.6019 21.2284 84.3563 21.443 84.0651 21.443H72.2373C71.9341 21.443 71.6883 21.6871 71.7197 21.9806C71.8608 23.2987 72.3847 24.3798 73.2914 25.2239C74.3184 26.18 75.5465 26.658 76.9754 26.658C78.7985 26.658 80.2564 25.8349 81.349 24.1887C81.4951 23.9686 81.7857 23.8792 82.0277 23.9941L83.8687 24.8681C84.1282 24.9913 84.2322 25.3003 84.0819 25.5402C83.3702 26.6758 82.4304 27.5807 81.2623 28.2551C79.9673 29.0156 78.4937 29.3959 76.8415 29.3959ZM72.0965 18.3365C71.9875 18.6544 72.2449 18.9659 72.5893 18.9659H80.7471C81.061 18.9659 81.3119 18.7042 81.2482 18.4051C81.0653 17.546 80.6235 16.8203 79.9227 16.228C79.0966 15.4892 77.9802 15.1198 76.5735 15.1198C75.4125 15.1198 74.4078 15.4675 73.5593 16.1628C72.8867 16.7289 72.3991 17.4535 72.0965 18.3365ZM67.591 13.5161C67.6913 13.2134 67.4593 12.9034 67.1325 12.9034H65.006C64.7924 12.9034 64.6043 13.0403 64.544 13.2397L61.4075 23.6011C61.2817 24.0167 60.6801 24.0254 60.5417 23.6136L57.0513 13.2265C56.9865 13.0338 56.8018 12.9034 56.5934 12.9034H54.1094C53.9015 12.9034 53.717 13.0333 53.6519 13.2254L50.13 23.6205C49.9907 24.0314 49.3902 24.022 49.2645 23.607L46.1263 13.2397C46.0659 13.0403 45.8778 12.9034 45.6642 12.9034H43.4707C43.1439 12.9034 42.912 13.2134 43.0123 13.5161L47.9933 28.5495C48.0575 28.7431 48.2427 28.8744 48.4517 28.8744H50.8647C51.0738 28.8744 51.2591 28.743 51.3232 28.5492L54.8384 17.9188C54.9731 17.5113 55.5654 17.5106 55.7011 17.9178L59.246 28.5503C59.3105 28.7435 59.4955 28.8744 59.7042 28.8744H62.1515C62.3606 28.8744 62.5458 28.7431 62.61 28.5495L67.591 13.5161ZM163.055 27.9292C163.948 28.7331 165.065 29.1351 166.404 29.1351C167.291 29.1351 168.086 29.0385 168.789 28.8452C169.029 28.7793 169.151 28.5268 169.067 28.2982L168.41 26.4886C168.322 26.246 168.04 26.1289 167.788 26.2065C167.719 26.2276 167.649 26.2477 167.577 26.2669C167.353 26.3103 167.119 26.3321 166.873 26.3321C166.337 26.3321 165.857 26.1474 165.433 25.778C165.009 25.3868 164.797 24.6589 164.797 23.5942V16.0825C164.797 15.8389 165 15.6413 165.25 15.6413H168.362C168.613 15.6413 168.816 15.4438 168.816 15.2001V13.3446C168.816 13.101 168.613 12.9034 168.362 12.9034H165.25C165 12.9034 164.797 12.7059 164.797 12.4622V5.9773C164.797 5.73364 164.594 5.5361 164.343 5.5361H162.169C161.919 5.5361 161.716 5.73364 161.716 5.9773V12.4622C161.716 12.7059 161.513 12.9034 161.262 12.9034H159.289C159.038 12.9034 158.835 13.101 158.835 13.3446V15.2001C158.835 15.4438 159.038 15.6413 159.289 15.6413H161.262C161.513 15.6413 161.716 15.8389 161.716 16.0825V24.572C161.738 26.0061 162.184 27.1252 163.055 27.9292ZM119.051 27.4402C120.547 26.1365 121.295 24.5068 121.295 22.5512C121.295 21.3561 120.949 20.2805 120.257 19.3244C119.938 18.8698 119.481 18.292 118.139 17.5597C117.855 17.405 117.848 16.9928 118.116 16.8139C119.722 15.7428 120.525 14.1211 120.525 12.219C120.525 10.4155 119.844 8.94874 118.482 7.81882C117.097 6.64545 115.389 6.05876 113.357 6.05876C111.728 6.05876 110.31 6.48248 109.104 7.32992C108.03 8.08504 107.23 9.0472 106.705 10.2164C106.597 10.4587 106.722 10.7354 106.972 10.8385L108.876 11.6232C109.145 11.7344 109.453 11.6008 109.574 11.3413C110.324 9.73177 111.585 8.92701 113.357 8.92701C114.563 8.92701 115.534 9.23122 116.271 9.83963C117.008 10.448 117.376 11.2412 117.376 12.219C117.376 13.2837 116.986 14.1529 116.204 14.8265C115.423 15.4783 114.418 15.8043 113.19 15.8043H111.958C111.677 15.8043 111.448 16.0265 111.448 16.3006V18.111C111.448 18.3851 111.677 18.6073 111.958 18.6073H113.424C114.719 18.6073 115.825 18.9876 116.74 19.7481C117.678 20.5087 118.147 21.443 118.147 22.5512C118.147 23.6594 117.7 24.6046 116.807 25.3868C115.892 26.1474 114.809 26.5276 113.558 26.5276C112.42 26.5276 111.437 26.2017 110.611 25.5498C109.927 24.9764 109.405 24.1984 109.044 23.2157C108.941 22.9352 108.621 22.7825 108.338 22.8971L106.475 23.6525C106.236 23.7493 106.108 24.0056 106.192 24.2438C106.713 25.725 107.617 26.9426 108.903 27.8966C110.287 28.8961 111.839 29.3959 113.558 29.3959C115.747 29.3959 117.577 28.744 119.051 27.4402ZM126.762 23.9853C126.762 23.1161 127.176 22.3882 128.002 21.8015C128.85 21.2148 129.9 20.9215 131.15 20.9215C132.754 20.9215 134.028 21.2431 134.971 21.8862C135.099 21.9733 135.171 22.1183 135.163 22.2699C135.101 23.4299 134.589 24.4472 133.628 25.3217C132.623 26.256 131.474 26.7232 130.179 26.7232C129.263 26.7232 128.459 26.4624 127.767 25.9409C127.097 25.4194 126.762 24.7676 126.762 23.9853ZM136.14 14.1746C134.823 12.9795 133.025 12.3819 130.748 12.3819C128.002 12.3819 125.886 13.301 124.4 15.1393C124.24 15.3372 124.3 15.6232 124.519 15.7574L126.462 16.9482C126.668 17.074 126.937 17.0186 127.089 16.8342C128.064 15.6478 129.34 15.0546 130.915 15.0546C132.054 15.0546 133.048 15.424 133.896 16.1628C134.75 16.8844 135.052 17.7518 135.139 18.7313C135.169 19.0681 134.791 19.2858 134.47 19.1557C133.41 18.7249 132.136 18.5096 130.647 18.5096C128.504 18.5096 126.785 18.9985 125.49 19.9763C124.217 20.9541 123.581 22.2687 123.581 23.9201C123.581 25.4846 124.184 26.7884 125.389 27.8314C126.617 28.8744 128.136 29.3959 129.944 29.3959C132.065 29.3959 133.762 28.4832 135.035 26.658V28.4332C135.035 28.6768 135.238 28.8744 135.488 28.8744H137.663C137.913 28.8744 138.116 28.6768 138.116 28.4332V19.0311C138.116 16.9668 137.457 15.348 136.14 14.1746ZM155.993 28.4056C155.993 28.6645 155.777 28.8744 155.511 28.8744H153.393C153.127 28.8744 152.911 28.6645 152.911 28.4056V27.882C152.911 27.5442 152.386 27.3822 152.139 27.6192C151.751 27.9913 151.283 28.3227 150.735 28.6136C149.774 29.1351 148.77 29.3959 147.72 29.3959C145.711 29.3959 144.159 28.8418 143.065 27.7336C141.993 26.6037 141.457 25.0066 141.457 22.9423V13.3722C141.457 13.1133 141.673 12.9034 141.939 12.9034H144.057C144.323 12.9034 144.539 13.1133 144.539 13.3722V22.7468C144.606 25.3543 145.956 26.658 148.591 26.658C149.819 26.658 150.846 26.18 151.672 25.2239C152.498 24.2461 152.911 23.0836 152.911 21.7363V13.3722C152.911 13.1133 153.127 12.9034 153.393 12.9034H155.511C155.777 12.9034 155.993 13.1133 155.993 13.3722V28.4056ZM171.91 5.9773C171.91 5.73364 172.113 5.5361 172.364 5.5361H174.538C174.789 5.5361 174.992 5.73364 174.992 5.9773V13.8958C174.992 14.2336 175.515 14.3942 175.761 14.1557C176.143 13.7848 176.601 13.4543 177.135 13.1642C178.117 12.6427 179.133 12.3819 180.183 12.3819C182.192 12.3819 183.733 12.9469 184.805 14.0768C185.899 15.185 186.446 16.7712 186.446 18.8355V28.4332C186.446 28.6768 186.243 28.8744 185.992 28.8744H183.818C183.567 28.8744 183.364 28.6768 183.364 28.4332V19.4222C183.364 16.5539 182.058 15.1198 179.446 15.1198C178.196 15.1198 177.135 15.6305 176.264 16.6517C175.416 17.6513 174.992 18.8246 174.992 20.1718V28.4332C174.992 28.6768 174.789 28.8744 174.538 28.8744H172.364C172.113 28.8744 171.91 28.6768 171.91 28.4332V5.9773Z" fill="white"/>
<path d="M181.465 42.5708V46.6161H179.333V36.9603H181.465V42.5708L184.214 39.3321H186.758L183.96 42.5467L187 46.6161H184.396L181.465 42.5708Z" fill="white"/>
<path d="M171.49 46.0262L171.235 43.9433C171.704 44.3527 172.22 44.6657 172.785 44.8824C173.359 45.0991 173.952 45.2075 174.566 45.2075C175.551 45.2075 176.043 44.9667 176.043 44.4851C176.043 44.1721 175.809 43.9754 175.341 43.8952L173.585 43.6182C172.834 43.4979 172.281 43.2651 171.926 42.9199C171.57 42.5748 171.389 42.1213 171.381 41.5595C171.372 40.813 171.679 40.2391 172.301 39.8378C172.923 39.4365 173.795 39.2358 174.917 39.2358C175.943 39.2358 176.871 39.4324 177.703 39.8257L177.909 41.7401C177.004 41.0819 176.011 40.7528 174.929 40.7528C174.009 40.7528 173.548 40.9735 173.548 41.415C173.548 41.6959 173.771 41.8765 174.215 41.9568L176.043 42.2457C177.489 42.4785 178.211 43.1768 178.211 44.3406C178.211 45.1031 177.892 45.6891 177.255 46.0984C176.625 46.5078 175.733 46.7125 174.578 46.7125C173.989 46.7125 173.444 46.6563 172.943 46.5439C172.442 46.4315 171.958 46.259 171.49 46.0262Z" fill="white"/>
<path d="M163.086 44.5814C163.086 43.4096 163.861 42.6992 165.411 42.4504L168.04 42.041C167.991 41.6317 167.838 41.3387 167.579 41.1621C167.321 40.9775 166.933 40.8852 166.417 40.8852C165.924 40.8852 165.42 40.9615 164.903 41.114C164.386 41.2665 163.881 41.4912 163.389 41.7882L163.728 39.898C164.616 39.4565 165.625 39.2358 166.756 39.2358C167.894 39.2358 168.75 39.4886 169.323 39.9943C169.905 40.5 170.195 41.2424 170.195 42.2216V46.6161H168.064V44.9185L167.095 46.4957C166.675 46.6402 166.219 46.7125 165.726 46.7125C164.911 46.7125 164.265 46.5238 163.789 46.1466C163.32 45.7613 163.086 45.2396 163.086 44.5814ZM168.064 43.5219L166.102 43.847C165.811 43.8952 165.597 43.9754 165.46 44.0878C165.331 44.2002 165.266 44.3487 165.266 44.5333C165.266 44.766 165.371 44.9466 165.581 45.0751C165.791 45.2035 166.094 45.2677 166.489 45.2677C167.022 45.2677 167.547 45.1513 168.064 44.9185V43.5219Z" fill="white"/>
<path d="M152.025 36.7315H152.207L156.204 42.041L160.176 36.7315H160.346L162.356 46.6161H160.079L159.086 41.4511L157.16 44.0156H155.186L153.26 41.4631L152.267 46.6161H150.039L152.025 36.7315Z" fill="white"/>
<path d="M141.95 44.5814C141.95 43.4096 142.725 42.6992 144.276 42.4504L146.904 42.041C146.855 41.6317 146.702 41.3387 146.444 41.1621C146.185 40.9775 145.798 40.8852 145.281 40.8852C144.788 40.8852 144.284 40.9615 143.767 41.114C143.25 41.2665 142.746 41.4912 142.253 41.7882L142.592 39.898C143.48 39.4565 144.49 39.2358 145.62 39.2358C146.758 39.2358 147.614 39.4886 148.188 39.9943C148.769 40.5 149.06 41.2424 149.06 42.2216V46.6161H146.928V44.9185L145.959 46.4957C145.539 46.6402 145.083 46.7125 144.591 46.7125C143.775 46.7125 143.129 46.5238 142.653 46.1466C142.184 45.7613 141.95 45.2396 141.95 44.5814ZM146.928 43.5219L144.966 43.847C144.675 43.8952 144.461 43.9754 144.324 44.0878C144.195 44.2002 144.13 44.3487 144.13 44.5333C144.13 44.766 144.235 44.9466 144.445 45.0751C144.655 45.2035 144.958 45.2677 145.354 45.2677C145.886 45.2677 146.411 45.1513 146.928 44.9185V43.5219Z" fill="white"/>
<path d="M136.934 44.3166V41.0297H135.626V39.8739L139.065 38.2124V39.3321H141.366V41.0297H139.065V43.8831C139.065 44.2684 139.15 44.5493 139.32 44.7259C139.497 44.9025 139.776 44.9908 140.155 44.9908C140.535 44.9908 140.926 44.8945 141.33 44.7018L141.136 46.4355C140.644 46.6202 140.103 46.7125 139.513 46.7125C137.794 46.7125 136.934 45.9138 136.934 44.3166Z" fill="white"/>
<path d="M127.685 43.0042C127.685 42.2417 127.843 41.5795 128.158 41.0177C128.481 40.4558 128.933 40.0184 129.514 39.7053C130.096 39.3923 130.79 39.2358 131.597 39.2358C132.381 39.2358 133.051 39.3883 133.608 39.6933C134.173 39.9903 134.605 40.4197 134.904 40.9815C135.211 41.5434 135.364 42.2176 135.364 43.0042V43.6182H129.841C129.946 44.1239 130.184 44.4971 130.556 44.7379C130.935 44.9707 131.468 45.0871 132.155 45.0871C133.132 45.0871 134.048 44.8543 134.904 44.3888L134.601 46.1707C134.205 46.3472 133.769 46.4837 133.293 46.58C132.817 46.6683 132.324 46.7125 131.815 46.7125C130.499 46.7125 129.482 46.3874 128.763 45.7372C128.045 45.0791 127.685 44.1681 127.685 43.0042ZM129.829 42.2457H133.293C133.123 41.2825 132.55 40.801 131.573 40.801C130.588 40.801 130.007 41.2825 129.829 42.2457Z" fill="white"/>
<path d="M116.826 36.7315H117.008L121.005 42.041L124.977 36.7315H125.147L127.157 46.6161H124.881L123.887 41.4511L121.962 44.0156H119.987L118.062 41.4631L117.069 46.6161H114.84L116.826 36.7315Z" fill="white"/>
<path d="M103.394 39.4164H105.005L107.379 44.1239L109.716 39.4164H111.278L106.397 49H104.823L106.591 45.665L103.394 39.4164Z" fill="white"/>
<path d="M96.1072 36.9603H97.5605V41.0297L98.5658 39.5368C98.7596 39.4726 98.9776 39.4204 99.2198 39.3803C99.462 39.3401 99.6962 39.3201 99.9222 39.3201C100.592 39.3201 101.182 39.4766 101.691 39.7896C102.199 40.0946 102.599 40.52 102.89 41.0658C103.18 41.6116 103.326 42.2457 103.326 42.9681C103.326 43.7146 103.16 44.3687 102.829 44.9306C102.506 45.4924 102.05 45.9299 101.46 46.2429C100.879 46.5559 100.193 46.7125 99.4014 46.7125C98.6505 46.7125 97.9763 46.56 97.3789 46.2549L96.1072 46.7125V36.9603ZM97.5605 44.9185C98.0692 45.3038 98.6627 45.4964 99.3409 45.4964C100.108 45.4964 100.714 45.2757 101.158 44.8343C101.602 44.3928 101.824 43.7908 101.824 43.0283C101.824 42.2658 101.606 41.6638 101.17 41.2223C100.734 40.7729 100.14 40.5481 99.3893 40.5481C99.0664 40.5481 98.7434 40.5923 98.4204 40.6806C98.1055 40.7608 97.8189 40.8772 97.5605 41.0297V44.9185Z" fill="white"/>
</svg>
