<svg width="192" height="51" viewBox="0 0 192 51" fill="none" xmlns="http://www.w3.org/2000/svg">
<path fill-rule="evenodd" clip-rule="evenodd" d="M18.4636 25.3592C18.4004 25.5939 18.5783 25.8244 18.8227 25.8244H20.9634C21.2078 25.8244 21.3857 25.5939 21.3225 25.3592L20.2521 21.3882C20.1537 21.023 19.6324 21.023 19.534 21.3882L18.4636 25.3592Z" fill="#0364FF"/>
<path fill-rule="evenodd" clip-rule="evenodd" d="M16.332 27.9009C16.1681 28.5091 15.6137 28.932 14.9803 28.932H12.0827C11.1626 28.932 10.4928 28.0643 10.731 27.1808L16.6752 5.12791C16.8545 4.46271 17.4609 4.00016 18.1537 4.00016H21.6022C22.2949 4.00016 22.9013 4.46271 23.0806 5.12791L29.0249 27.1808C29.263 28.0643 28.5933 28.932 27.6731 28.932H24.7755C24.1422 28.932 23.5877 28.5091 23.4238 27.9009L20.5327 17.1749C20.3532 16.509 19.4027 16.509 19.2232 17.1749L16.332 27.9009Z" fill="#0364FF"/>
<path fill-rule="evenodd" clip-rule="evenodd" d="M30.9071 23.7452C30.7218 24.4326 29.7406 24.4326 29.5554 23.7452L27.3973 15.7391C27.3556 15.5843 27.3556 15.4213 27.3973 15.2665L30.1476 5.06331C30.3166 4.43612 30.8884 4 31.5415 4H34.3486C35.2975 4 35.9881 4.89476 35.7425 5.80592L30.9071 23.7452ZM12.3916 15.7257C12.4333 15.5709 12.4333 15.4079 12.3916 15.2531L9.64495 5.06331C9.47589 4.43612 8.90415 4 8.25097 4H5.44395C4.49503 4 3.80437 4.89476 4.04997 5.80592L8.88181 23.7319C9.06709 24.4193 10.0483 24.4193 10.2335 23.7319L12.3916 15.7257Z" fill="#0364FF"/>
<path fill-rule="evenodd" clip-rule="evenodd" d="M96.1035 28.3959C94.8978 28.3959 93.7926 28.146 92.7879 27.6462C92.2209 27.3578 91.7284 27.0152 91.3102 26.6182C91.0459 26.3674 90.5104 26.5376 90.5104 26.8969V27.4332C90.5104 27.6768 90.3075 27.8744 90.0571 27.8744H87.8826C87.6322 27.8744 87.4292 27.6768 87.4292 27.4332V4.9773C87.4292 4.73364 87.6322 4.5361 87.8826 4.5361H90.0469C90.2973 4.5361 90.5002 4.73364 90.5002 4.9773V12.8809C90.5002 13.2402 91.037 13.4114 91.302 13.1613C91.7235 12.7637 92.2201 12.4204 92.7879 12.1316C93.7926 11.6318 94.8978 11.3819 96.1035 11.3819C98.2693 11.3819 100.1 12.2077 101.596 13.8591C103.137 15.5322 103.907 17.5422 103.907 19.8889C103.907 22.2574 103.137 24.2673 101.596 25.9187C100.1 27.5702 98.2693 28.3959 96.1035 28.3959ZM95.6011 25.658C97.0748 25.658 98.3139 25.1148 99.3187 24.0283C100.323 22.9636 100.826 21.5838 100.826 19.8889C100.826 18.2158 100.323 16.836 99.3187 15.7495C98.3139 14.663 97.0748 14.1198 95.6011 14.1198C94.1052 14.1198 92.8548 14.663 91.8501 15.7495C90.8677 16.836 90.3765 18.2158 90.3765 19.8889C90.3765 21.5838 90.8677 22.9745 91.8501 24.0609C92.8548 25.1256 94.1052 25.658 95.6011 25.658ZM76.8415 28.3959C74.4301 28.3959 72.4429 27.5919 70.88 25.9839C69.317 24.376 68.5356 22.3443 68.5356 19.8889C68.5356 17.4552 69.2947 15.4344 70.813 13.8265C72.3313 12.1968 74.2738 11.3819 76.6405 11.3819C79.0742 11.3819 81.0056 12.1533 82.4345 13.6961C83.9745 15.3101 84.7108 17.7375 84.6143 19.9453C84.6019 20.2284 84.3563 20.443 84.0651 20.443H72.2373C71.9341 20.443 71.6883 20.6871 71.7197 20.9806C71.8608 22.2987 72.3847 23.3798 73.2914 24.2239C74.3184 25.18 75.5465 25.658 76.9754 25.658C78.7985 25.658 80.2564 24.8349 81.349 23.1887C81.4951 22.9686 81.7857 22.8792 82.0277 22.9941L83.8687 23.8681C84.1282 23.9913 84.2322 24.3003 84.0819 24.5402C83.3702 25.6758 82.4304 26.5807 81.2623 27.2551C79.9673 28.0156 78.4937 28.3959 76.8415 28.3959ZM72.0965 17.3365C71.9875 17.6544 72.2449 17.9659 72.5893 17.9659H80.7471C81.061 17.9659 81.3119 17.7042 81.2482 17.4051C81.0653 16.546 80.6235 15.8203 79.9227 15.228C79.0966 14.4892 77.9802 14.1198 76.5735 14.1198C75.4125 14.1198 74.4078 14.4675 73.5593 15.1628C72.8867 15.7289 72.3991 16.4535 72.0965 17.3365ZM67.591 12.5161C67.6913 12.2134 67.4593 11.9034 67.1325 11.9034H65.006C64.7924 11.9034 64.6043 12.0403 64.544 12.2397L61.4075 22.6011C61.2817 23.0167 60.6801 23.0254 60.5417 22.6136L57.0513 12.2265C56.9865 12.0338 56.8018 11.9034 56.5934 11.9034H54.1094C53.9015 11.9034 53.717 12.0333 53.6519 12.2254L50.13 22.6205C49.9907 23.0314 49.3902 23.022 49.2645 22.607L46.1263 12.2397C46.0659 12.0403 45.8778 11.9034 45.6642 11.9034H43.4707C43.1439 11.9034 42.912 12.2134 43.0123 12.5161L47.9933 27.5495C48.0575 27.7431 48.2427 27.8744 48.4517 27.8744H50.8647C51.0738 27.8744 51.2591 27.743 51.3232 27.5492L54.8384 16.9188C54.9731 16.5113 55.5654 16.5106 55.7011 16.9178L59.246 27.5503C59.3105 27.7435 59.4955 27.8744 59.7042 27.8744H62.1515C62.3606 27.8744 62.5458 27.7431 62.61 27.5495L67.591 12.5161ZM163.055 26.9292C163.948 27.7331 165.065 28.1351 166.404 28.1351C167.291 28.1351 168.086 28.0385 168.789 27.8452C169.029 27.7793 169.151 27.5268 169.067 27.2982L168.41 25.4886C168.322 25.246 168.04 25.1289 167.788 25.2065C167.719 25.2276 167.649 25.2477 167.577 25.2669C167.353 25.3103 167.119 25.3321 166.873 25.3321C166.337 25.3321 165.857 25.1474 165.433 24.778C165.009 24.3868 164.797 23.6589 164.797 22.5942V15.0825C164.797 14.8389 165 14.6413 165.25 14.6413H168.362C168.613 14.6413 168.816 14.4438 168.816 14.2001V12.3446C168.816 12.101 168.613 11.9034 168.362 11.9034H165.25C165 11.9034 164.797 11.7059 164.797 11.4622V4.9773C164.797 4.73364 164.594 4.5361 164.343 4.5361H162.169C161.919 4.5361 161.716 4.73364 161.716 4.9773V11.4622C161.716 11.7059 161.513 11.9034 161.262 11.9034H159.289C159.038 11.9034 158.835 12.101 158.835 12.3446V14.2001C158.835 14.4438 159.038 14.6413 159.289 14.6413H161.262C161.513 14.6413 161.716 14.8389 161.716 15.0825V23.572C161.738 25.0061 162.184 26.1252 163.055 26.9292ZM119.051 26.4402C120.547 25.1365 121.295 23.5068 121.295 21.5512C121.295 20.3561 120.949 19.2805 120.257 18.3244C119.938 17.8698 119.481 17.292 118.139 16.5597C117.855 16.405 117.848 15.9928 118.116 15.8139C119.722 14.7428 120.525 13.1211 120.525 11.219C120.525 9.41546 119.844 7.94874 118.482 6.81882C117.097 5.64545 115.389 5.05876 113.357 5.05876C111.728 5.05876 110.31 5.48248 109.104 6.32992C108.03 7.08504 107.23 8.0472 106.705 9.21639C106.597 9.45866 106.722 9.7354 106.972 9.8385L108.876 10.6232C109.145 10.7344 109.453 10.6008 109.574 10.3413C110.324 8.73177 111.585 7.92701 113.357 7.92701C114.563 7.92701 115.534 8.23122 116.271 8.83963C117.008 9.44805 117.376 10.2412 117.376 11.219C117.376 12.2837 116.986 13.1529 116.204 13.8265C115.423 14.4783 114.418 14.8043 113.19 14.8043H111.958C111.677 14.8043 111.448 15.0265 111.448 15.3006V17.111C111.448 17.3851 111.677 17.6073 111.958 17.6073H113.424C114.719 17.6073 115.825 17.9876 116.74 18.7481C117.678 19.5087 118.147 20.443 118.147 21.5512C118.147 22.6594 117.7 23.6046 116.807 24.3868C115.892 25.1474 114.809 25.5276 113.558 25.5276C112.42 25.5276 111.437 25.2017 110.611 24.5498C109.927 23.9764 109.405 23.1984 109.044 22.2157C108.941 21.9352 108.621 21.7825 108.338 21.8971L106.475 22.6525C106.236 22.7493 106.108 23.0056 106.192 23.2438C106.713 24.725 107.617 25.9426 108.903 26.8966C110.287 27.8961 111.839 28.3959 113.558 28.3959C115.747 28.3959 117.577 27.744 119.051 26.4402ZM126.762 22.9853C126.762 22.1161 127.176 21.3882 128.002 20.8015C128.85 20.2148 129.9 19.9215 131.15 19.9215C132.754 19.9215 134.028 20.2431 134.971 20.8862C135.099 20.9733 135.171 21.1183 135.163 21.2699C135.101 22.4299 134.589 23.4472 133.628 24.3217C132.623 25.256 131.474 25.7232 130.179 25.7232C129.263 25.7232 128.459 25.4624 127.767 24.9409C127.097 24.4194 126.762 23.7676 126.762 22.9853ZM136.14 13.1746C134.823 11.9795 133.025 11.3819 130.748 11.3819C128.002 11.3819 125.886 12.301 124.4 14.1393C124.24 14.3372 124.3 14.6232 124.519 14.7574L126.462 15.9482C126.668 16.074 126.937 16.0186 127.089 15.8342C128.064 14.6478 129.34 14.0546 130.915 14.0546C132.054 14.0546 133.048 14.424 133.896 15.1628C134.75 15.8844 135.052 16.7518 135.139 17.7313C135.169 18.0681 134.791 18.2858 134.47 18.1557C133.41 17.7249 132.136 17.5096 130.647 17.5096C128.504 17.5096 126.785 17.9985 125.49 18.9763C124.217 19.9541 123.581 21.2687 123.581 22.9201C123.581 24.4846 124.184 25.7884 125.389 26.8314C126.617 27.8744 128.136 28.3959 129.944 28.3959C132.065 28.3959 133.762 27.4832 135.035 25.658V27.4332C135.035 27.6768 135.238 27.8744 135.488 27.8744H137.663C137.913 27.8744 138.116 27.6768 138.116 27.4332V18.0311C138.116 15.9668 137.457 14.348 136.14 13.1746ZM155.993 27.4056C155.993 27.6645 155.777 27.8744 155.511 27.8744H153.393C153.127 27.8744 152.911 27.6645 152.911 27.4056V26.882C152.911 26.5442 152.386 26.3822 152.139 26.6192C151.751 26.9913 151.283 27.3227 150.735 27.6136C149.774 28.1351 148.77 28.3959 147.72 28.3959C145.711 28.3959 144.159 27.8418 143.065 26.7336C141.993 25.6037 141.457 24.0066 141.457 21.9423V12.3722C141.457 12.1133 141.673 11.9034 141.939 11.9034H144.057C144.323 11.9034 144.539 12.1133 144.539 12.3722V21.7468C144.606 24.3543 145.956 25.658 148.591 25.658C149.819 25.658 150.846 25.18 151.672 24.2239C152.498 23.2461 152.911 22.0836 152.911 20.7363V12.3722C152.911 12.1133 153.127 11.9034 153.393 11.9034H155.511C155.777 11.9034 155.993 12.1133 155.993 12.3722V27.4056ZM171.91 4.9773C171.91 4.73364 172.113 4.5361 172.364 4.5361H174.538C174.789 4.5361 174.992 4.73364 174.992 4.9773V12.8958C174.992 13.2336 175.515 13.3942 175.761 13.1557C176.143 12.7848 176.601 12.4543 177.135 12.1642C178.117 11.6427 179.133 11.3819 180.183 11.3819C182.192 11.3819 183.733 11.9469 184.805 13.0768C185.899 14.185 186.446 15.7712 186.446 17.8355V27.4332C186.446 27.6768 186.243 27.8744 185.992 27.8744H183.818C183.567 27.8744 183.364 27.6768 183.364 27.4332V18.4222C183.364 15.5539 182.058 14.1198 179.446 14.1198C178.196 14.1198 177.135 14.6305 176.264 15.6517C175.416 16.6513 174.992 17.8246 174.992 19.1718V27.4332C174.992 27.6768 174.789 27.8744 174.538 27.8744H172.364C172.113 27.8744 171.91 27.6768 171.91 27.4332V4.9773Z" fill="black"/>
<path d="M181.465 41.5708V45.6161H179.333V35.9603H181.465V41.5708L184.214 38.3321H186.758L183.96 41.5467L187 45.6161H184.396L181.465 41.5708Z" fill="black"/>
<path d="M171.49 45.0262L171.235 42.9433C171.704 43.3527 172.22 43.6657 172.785 43.8824C173.359 44.0991 173.952 44.2075 174.566 44.2075C175.551 44.2075 176.043 43.9667 176.043 43.4851C176.043 43.1721 175.809 42.9754 175.341 42.8952L173.585 42.6182C172.834 42.4979 172.281 42.2651 171.926 41.9199C171.57 41.5748 171.389 41.1213 171.381 40.5595C171.372 39.813 171.679 39.2391 172.301 38.8378C172.923 38.4365 173.795 38.2358 174.917 38.2358C175.943 38.2358 176.871 38.4324 177.703 38.8257L177.909 40.7401C177.004 40.0819 176.011 39.7528 174.929 39.7528C174.009 39.7528 173.548 39.9735 173.548 40.415C173.548 40.6959 173.771 40.8765 174.215 40.9568L176.043 41.2457C177.489 41.4785 178.211 42.1768 178.211 43.3406C178.211 44.1031 177.892 44.6891 177.255 45.0984C176.625 45.5078 175.733 45.7125 174.578 45.7125C173.989 45.7125 173.444 45.6563 172.943 45.5439C172.442 45.4315 171.958 45.259 171.49 45.0262Z" fill="black"/>
<path d="M163.086 43.5814C163.086 42.4096 163.861 41.6992 165.411 41.4504L168.04 41.041C167.991 40.6317 167.838 40.3387 167.579 40.1621C167.321 39.9775 166.933 39.8852 166.417 39.8852C165.924 39.8852 165.42 39.9615 164.903 40.114C164.386 40.2665 163.881 40.4912 163.389 40.7882L163.728 38.898C164.616 38.4565 165.625 38.2358 166.756 38.2358C167.894 38.2358 168.75 38.4886 169.323 38.9943C169.905 39.5 170.195 40.2424 170.195 41.2216V45.6161H168.064V43.9185L167.095 45.4957C166.675 45.6402 166.219 45.7125 165.726 45.7125C164.911 45.7125 164.265 45.5238 163.789 45.1466C163.32 44.7613 163.086 44.2396 163.086 43.5814ZM168.064 42.5219L166.102 42.847C165.811 42.8952 165.597 42.9754 165.46 43.0878C165.331 43.2002 165.266 43.3487 165.266 43.5333C165.266 43.766 165.371 43.9466 165.581 44.0751C165.791 44.2035 166.094 44.2677 166.489 44.2677C167.022 44.2677 167.547 44.1513 168.064 43.9185V42.5219Z" fill="black"/>
<path d="M152.025 35.7315H152.207L156.204 41.041L160.176 35.7315H160.346L162.356 45.6161H160.079L159.086 40.4511L157.16 43.0156H155.186L153.26 40.4631L152.267 45.6161H150.039L152.025 35.7315Z" fill="black"/>
<path d="M141.95 43.5814C141.95 42.4096 142.725 41.6992 144.276 41.4504L146.904 41.041C146.855 40.6317 146.702 40.3387 146.444 40.1621C146.185 39.9775 145.798 39.8852 145.281 39.8852C144.788 39.8852 144.284 39.9615 143.767 40.114C143.25 40.2665 142.746 40.4912 142.253 40.7882L142.592 38.898C143.48 38.4565 144.49 38.2358 145.62 38.2358C146.758 38.2358 147.614 38.4886 148.188 38.9943C148.769 39.5 149.06 40.2424 149.06 41.2216V45.6161H146.928V43.9185L145.959 45.4957C145.539 45.6402 145.083 45.7125 144.591 45.7125C143.775 45.7125 143.129 45.5238 142.653 45.1466C142.184 44.7613 141.95 44.2396 141.95 43.5814ZM146.928 42.5219L144.966 42.847C144.675 42.8952 144.461 42.9754 144.324 43.0878C144.195 43.2002 144.13 43.3487 144.13 43.5333C144.13 43.766 144.235 43.9466 144.445 44.0751C144.655 44.2035 144.958 44.2677 145.354 44.2677C145.886 44.2677 146.411 44.1513 146.928 43.9185V42.5219Z" fill="black"/>
<path d="M136.934 43.3166V40.0297H135.626V38.8739L139.065 37.2124V38.3321H141.366V40.0297H139.065V42.8831C139.065 43.2684 139.15 43.5493 139.32 43.7259C139.497 43.9025 139.776 43.9908 140.155 43.9908C140.535 43.9908 140.926 43.8945 141.33 43.7018L141.136 45.4355C140.644 45.6202 140.103 45.7125 139.513 45.7125C137.794 45.7125 136.934 44.9138 136.934 43.3166Z" fill="black"/>
<path d="M127.685 42.0042C127.685 41.2417 127.843 40.5795 128.158 40.0177C128.481 39.4558 128.933 39.0184 129.514 38.7053C130.096 38.3923 130.79 38.2358 131.597 38.2358C132.381 38.2358 133.051 38.3883 133.608 38.6933C134.173 38.9903 134.605 39.4197 134.904 39.9815C135.211 40.5434 135.364 41.2176 135.364 42.0042V42.6182H129.841C129.946 43.1239 130.184 43.4971 130.556 43.7379C130.935 43.9707 131.468 44.0871 132.155 44.0871C133.132 44.0871 134.048 43.8543 134.904 43.3888L134.601 45.1707C134.205 45.3472 133.769 45.4837 133.293 45.58C132.817 45.6683 132.324 45.7125 131.815 45.7125C130.499 45.7125 129.482 45.3874 128.763 44.7372C128.045 44.0791 127.685 43.1681 127.685 42.0042ZM129.829 41.2457H133.293C133.123 40.2825 132.55 39.801 131.573 39.801C130.588 39.801 130.007 40.2825 129.829 41.2457Z" fill="black"/>
<path d="M116.826 35.7315H117.008L121.005 41.041L124.977 35.7315H125.147L127.157 45.6161H124.881L123.887 40.4511L121.962 43.0156H119.987L118.062 40.4631L117.069 45.6161H114.84L116.826 35.7315Z" fill="black"/>
<path d="M103.394 38.4164H105.005L107.379 43.1239L109.716 38.4164H111.278L106.397 48H104.823L106.591 44.665L103.394 38.4164Z" fill="black"/>
<path d="M96.1072 35.9603H97.5605V40.0297L98.5658 38.5368C98.7596 38.4726 98.9776 38.4204 99.2198 38.3803C99.462 38.3401 99.6962 38.3201 99.9222 38.3201C100.592 38.3201 101.182 38.4766 101.691 38.7896C102.199 39.0946 102.599 39.52 102.89 40.0658C103.18 40.6116 103.326 41.2457 103.326 41.9681C103.326 42.7146 103.16 43.3687 102.829 43.9306C102.506 44.4924 102.05 44.9299 101.46 45.2429C100.879 45.5559 100.193 45.7125 99.4014 45.7125C98.6505 45.7125 97.9763 45.56 97.3789 45.2549L96.1072 45.7125V35.9603ZM97.5605 43.9185C98.0692 44.3038 98.6627 44.4964 99.3409 44.4964C100.108 44.4964 100.714 44.2757 101.158 43.8343C101.602 43.3928 101.824 42.7908 101.824 42.0283C101.824 41.2658 101.606 40.6638 101.17 40.2223C100.734 39.7729 100.14 39.5481 99.3893 39.5481C99.0664 39.5481 98.7434 39.5923 98.4204 39.6806C98.1055 39.7608 97.8189 39.8772 97.5605 40.0297V43.9185Z" fill="black"/>
</svg>
