<svg width="33" height="33" viewBox="0 0 33 33" fill="none" xmlns="http://www.w3.org/2000/svg">
<path fill-rule="evenodd" clip-rule="evenodd" d="M28.0194 16.7729C28.0194 15.922 27.9431 15.1038 27.8012 14.3184H16.4998V18.9602H22.9577C22.6796 20.4601 21.8341 21.731 20.5633 22.582V25.5928H24.4413C26.7104 23.5038 28.0194 20.4274 28.0194 16.7729Z" fill="#4285F4"/>
<path fill-rule="evenodd" clip-rule="evenodd" d="M16.5007 28.4997C19.7406 28.4997 22.4568 27.4252 24.4422 25.5925L20.5642 22.5816C19.4897 23.3016 18.1152 23.727 16.5007 23.727C13.3753 23.727 10.7299 21.6161 9.78632 18.7798H5.77734V21.8889C7.75183 25.8107 11.8099 28.4997 16.5007 28.4997Z" fill="#34A853"/>
<path fill-rule="evenodd" clip-rule="evenodd" d="M9.7853 18.7799C9.5453 18.0599 9.40895 17.2908 9.40895 16.4999C9.40895 15.709 9.5453 14.9399 9.7853 14.2199V11.1108H5.77633C4.96362 12.7308 4.5 14.5635 4.5 16.4999C4.5 18.4363 4.96362 20.269 5.77633 21.889L9.7853 18.7799Z" fill="#FBBC05"/>
<path fill-rule="evenodd" clip-rule="evenodd" d="M16.5007 9.2727C18.2624 9.2727 19.8442 9.87815 21.0878 11.0672L24.5295 7.62544C22.4514 5.68908 19.7351 4.5 16.5007 4.5C11.8099 4.5 7.75183 7.18908 5.77734 11.1109L9.78632 14.2199C10.7299 11.3836 13.3753 9.2727 16.5007 9.2727Z" fill="#EA4335"/>
</svg>
