<svg width="33" height="33" viewBox="0 0 33 33" fill="none" xmlns="http://www.w3.org/2000/svg">
<path d="M16.7813 10.0385C17.8323 10.0385 19.1497 9.3061 19.9343 8.32962C20.6448 7.44469 21.1629 6.20884 21.1629 4.97298C21.1629 4.80515 21.1481 4.63732 21.1185 4.5C19.9491 4.54577 18.5428 5.30865 17.6991 6.3309C17.0329 7.10903 16.426 8.32962 16.426 9.58074C16.426 9.76383 16.4556 9.94692 16.4704 10.0079C16.5445 10.0232 16.6629 10.0385 16.7813 10.0385ZM13.0806 28.5C14.5165 28.5 15.153 27.5083 16.9441 27.5083C18.7649 27.5083 19.1645 28.4695 20.7632 28.4695C22.3323 28.4695 23.3833 26.9743 24.3751 25.5095C25.4852 23.8312 25.9441 22.1834 25.9737 22.1071C25.8701 22.0766 22.8652 20.8102 22.8652 17.2552C22.8652 14.1732 25.2336 12.7848 25.3668 12.678C23.7977 10.3589 21.4145 10.2978 20.7632 10.2978C19.0017 10.2978 17.5658 11.3964 16.6629 11.3964C15.6859 11.3964 14.3981 10.3589 12.8734 10.3589C9.97209 10.3589 7.02637 12.8306 7.02637 17.4994C7.02637 20.3983 8.12176 23.465 9.4688 25.4485C10.6234 27.1268 11.63 28.5 13.0806 28.5Z" fill="black"/>
</svg>
