<svg width="40" height="32" viewBox="0 0 40 32" fill="none" xmlns="http://www.w3.org/2000/svg">
<path d="M33.7369 19.5152C32.827 16.8 30.0316 15.8083 29.3951 15.7493C28.7587 15.6902 28.1819 15.3418 28.6041 14.6217C29.0264 13.9016 29.8054 11.806 28.3069 10.3303C26.808 8.84877 23.5305 9.4095 21.211 10.3658C18.8974 11.3221 19.0222 10.655 19.0936 9.99994C19.171 9.30926 20.42 5.44869 16.6014 4.98238C11.5995 4.37442 5.18191 10.5193 2.9158 14.0611C-0.510228 19.4092 0.0312328 23.0276 0.0312328 23.0276H0.0550098C0.465328 28.0216 7.8763 32.0001 16.9583 32.0001C24.7679 32.0001 31.346 29.0545 33.2908 25.0524C33.2908 25.0524 33.2967 25.0347 33.3144 25.005C33.5168 24.5743 33.6714 24.1372 33.7667 23.6828C34.0401 22.6085 34.2486 21.0503 33.7369 19.5152V19.5152ZM15.8344 29.816C9.36913 29.816 4.12326 26.3685 4.12326 22.1184C4.12326 17.8685 9.36323 14.4212 15.8344 14.4212C22.2995 14.4212 27.5456 17.8685 27.5456 22.1184C27.5456 26.3743 22.2995 29.816 15.8344 29.816Z" fill="#E71F19"/>
<path d="M31.7581 12.7565C31.8768 12.8097 32.0018 12.8332 32.1268 12.8332C32.4954 12.8332 32.8524 12.6147 33.0009 12.2546C33.2448 11.6822 33.3696 11.0743 33.3696 10.4425C33.3696 7.88077 31.2703 5.79688 28.6887 5.79688C28.0583 5.79688 27.4458 5.92076 26.8687 6.1628C26.3868 6.36351 26.161 6.91841 26.363 7.40248C26.5653 7.88056 27.1244 8.10489 27.612 7.90418C27.9571 7.76233 28.3199 7.68567 28.6946 7.68567C30.2291 7.68567 31.4721 8.9254 31.4721 10.4425C31.4721 10.8142 31.401 11.1745 31.252 11.5166C31.2024 11.631 31.1761 11.7542 31.1747 11.8789C31.1733 12.0036 31.1969 12.1273 31.244 12.2428C31.2911 12.3583 31.3608 12.4632 31.449 12.5513C31.5372 12.6395 31.6422 12.7091 31.7577 12.7561L31.7581 12.7565H31.7581Z" fill="#F5AA15"/>
<path d="M28.634 0C27.5694 0 26.5166 0.153485 25.5055 0.448566C24.7502 0.67289 24.322 1.45794 24.5421 2.20766C24.7679 2.95745 25.5589 3.38245 26.3146 3.16403C27.0681 2.94441 27.8491 2.8331 28.634 2.83344C33.1128 2.83344 36.7587 6.4521 36.7587 10.897C36.7587 11.6937 36.6396 12.4847 36.4136 13.2402C36.1878 13.99 36.61 14.7812 37.3652 15.0052C37.5022 15.0468 37.6446 15.0643 37.7816 15.0643C38.3942 15.0643 38.9592 14.6688 39.1496 14.0608C39.459 13.0397 39.6195 11.9771 39.6195 10.897C39.6136 4.88761 34.6887 0 28.634 0Z" fill="#F5AA15"/>
<path d="M14.753 17.2305C11.3032 17.2305 8.50781 19.6565 8.50781 22.6555C8.50781 25.6539 11.3032 28.0803 14.753 28.0803C18.2026 28.0803 20.998 25.6541 20.998 22.6555C20.998 19.6567 18.2026 17.2305 14.753 17.2305ZM12.7129 26.1794C11.5054 26.1794 10.5242 25.2055 10.5242 24.0072C10.5242 22.809 11.5056 21.8349 12.7129 21.8349C13.9203 21.8349 14.9016 22.8089 14.9016 24.0072C14.9016 25.2053 13.9203 26.1794 12.7129 26.1794ZM16.805 22.2658C16.5434 22.7203 16.014 22.9092 15.6274 22.6847C15.2408 22.4665 15.1457 21.9174 15.4073 21.4629C15.669 21.0083 16.1983 20.8193 16.5848 21.0438C16.9714 21.2681 17.0667 21.8171 16.805 22.2658H16.805Z" fill="#040000"/>
</svg>
