<svg width="33" height="33" viewBox="0 0 33 33" fill="none" xmlns="http://www.w3.org/2000/svg">
<path d="M28.5 9.118C27.6039 9.52582 26.6504 9.7936 25.673 9.912C26.708 9.27319 27.477 8.2815 27.838 7.12C26.8741 7.70659 25.8152 8.12047 24.709 8.343C24.2542 7.84173 23.6996 7.44108 23.0809 7.16675C22.4621 6.89242 21.7928 6.75046 21.116 6.75C18.398 6.75 16.194 9.01 16.194 11.799C16.194 12.195 16.236 12.579 16.32 12.949C12.228 12.738 8.6 10.729 6.17 7.672C5.73183 8.44672 5.50234 9.32195 5.504 10.212C5.504 11.963 6.374 13.509 7.694 14.415C6.91058 14.3889 6.14526 14.1727 5.464 13.785V13.847C5.464 16.294 7.161 18.335 9.414 18.797C8.99242 18.9165 8.55619 18.9764 8.118 18.975C7.801 18.975 7.491 18.945 7.191 18.885C7.817 20.891 9.635 22.351 11.79 22.39C10.7771 23.2096 9.60985 23.8172 8.35752 24.1767C7.1052 24.5363 5.79337 24.6404 4.5 24.483C6.7399 25.9611 9.36435 26.7494 12.048 26.75C21.106 26.75 26.058 19.058 26.058 12.385C26.058 12.165 26.053 11.946 26.045 11.731C27.007 11.019 27.842 10.131 28.5 9.118Z" fill="#55ACEE"/>
</svg>
