<svg width="33" height="33" viewBox="0 0 33 33" fill="none" xmlns="http://www.w3.org/2000/svg">
<path d="M14.2173 14.7857C14.9141 14.7857 15.4785 15.3 15.4657 15.9286C15.4657 16.5571 14.9152 17.0714 14.2173 17.0714C13.5321 17.0714 12.9677 16.5571 12.9677 15.9286C12.9677 15.3 13.5194 14.7857 14.2173 14.7857ZM18.6859 14.7857C19.3839 14.7857 19.9355 15.3 19.9355 15.9286C19.9355 16.5571 19.3839 17.0714 18.6859 17.0714C18.0008 17.0714 17.4375 16.5571 17.4375 15.9286C17.4375 15.3 17.988 14.7857 18.6859 14.7857V14.7857ZM24.4541 4.5C25.8046 4.5 26.9032 5.604 26.9032 6.972V28.5L24.3356 26.22L22.8898 24.876L21.3604 23.4474L21.9945 25.668H8.44916C7.09858 25.668 6 24.564 6 23.196V6.972C6 5.604 7.09858 4.5 8.44916 4.5H24.4529H24.4541ZM19.8437 20.172C22.4834 20.0886 23.4995 18.348 23.4995 18.348C23.4995 14.484 21.7784 11.3514 21.7784 11.3514C20.0597 10.0566 18.4223 10.092 18.4223 10.092L18.2551 10.284C20.2862 10.908 21.2292 11.8086 21.2292 11.8086C20.1202 11.1937 18.898 10.8021 17.6338 10.6566C16.8319 10.5674 16.0219 10.5751 15.2218 10.6794C15.1498 10.6794 15.0894 10.692 15.0186 10.7034C14.6005 10.74 13.5844 10.8954 12.307 11.46C11.8657 11.6634 11.6021 11.8086 11.6021 11.8086C11.6021 11.8086 12.5938 10.86 14.7434 10.236L14.6237 10.092C14.6237 10.092 12.9875 10.0566 11.2676 11.3526C11.2676 11.3526 9.54774 14.484 9.54774 18.348C9.54774 18.348 10.5511 20.0874 13.1907 20.172C13.1907 20.172 13.632 19.6326 13.992 19.1766C12.4742 18.7194 11.9017 17.7594 11.9017 17.7594C11.9017 17.7594 12.0201 17.844 12.235 17.964C12.2466 17.9754 12.2582 17.988 12.2826 17.9994C12.3186 18.0246 12.3546 18.036 12.3906 18.06C12.689 18.228 12.9875 18.3594 13.2615 18.468C13.7516 18.66 14.3369 18.852 15.0186 18.9846C16.0397 19.1816 17.0896 19.1854 18.1123 18.996C18.7079 18.8914 19.289 18.7184 19.8437 18.4806C20.2618 18.324 20.7275 18.0954 21.2175 17.772C21.2175 17.772 20.6206 18.756 19.0552 19.2006C19.4141 19.6566 19.8449 20.172 19.8449 20.172H19.8437Z" fill="#7289DA"/>
</svg>
