<svg width="33" height="33" viewBox="0 0 33 33" fill="none" xmlns="http://www.w3.org/2000/svg">
<path d="M28.5 26.625C28.5 27.6562 27.6562 28.5 26.625 28.5H6.375C5.34375 28.5 4.5 27.6562 4.5 26.625V6.375C4.5 5.34375 5.34375 4.5 6.375 4.5H26.625C27.6562 4.5 28.5 5.34375 28.5 6.375V26.625Z" fill="#FFE812"/>
<path d="M16.6157 9.25464C11.9273 9.25464 8.12109 12.2523 8.12109 15.9523C8.12109 18.3455 9.71384 20.4447 12.0989 21.629C11.9682 22.0783 11.2657 24.5123 11.2331 24.7084C11.2331 24.7084 11.2167 24.8554 11.3066 24.9044C11.3964 24.9616 11.5108 24.9207 11.5108 24.9207C11.7803 24.8799 14.6064 22.8951 15.0965 22.552C15.5866 22.6174 16.093 22.6582 16.6076 22.6582C21.296 22.6582 25.1022 19.6606 25.1022 15.9605C25.1104 12.2523 21.3041 9.25464 16.6157 9.25464Z" fill="black"/>
<path d="M11.9195 18.2883C11.6499 18.2883 11.4294 18.076 11.4294 17.8228V14.915H10.6616C10.4002 14.915 10.1797 14.7026 10.1797 14.4331C10.1797 14.1717 10.3921 13.9512 10.6616 13.9512H13.1691C13.4305 13.9512 13.6511 14.1635 13.6511 14.4331C13.6511 14.6945 13.4387 14.915 13.1691 14.915H12.4014V17.8228C12.4095 18.0841 12.189 18.2883 11.9195 18.2883Z" fill="#FFE812"/>
<path d="M16.2148 18.2802C16.0106 18.2802 15.8555 18.1985 15.8064 18.0596L15.5614 17.4225H14.0667L13.8216 18.0596C13.7726 18.1903 13.6174 18.272 13.4132 18.272C13.3071 18.272 13.2009 18.2475 13.1029 18.2067C12.964 18.1413 12.8415 17.9698 12.9885 17.5124L14.1647 14.4331C14.2464 14.1962 14.4996 13.9593 14.8181 13.9512C15.1367 13.9593 15.3899 14.1962 15.4716 14.4331L16.6396 17.5206C16.7866 17.9861 16.6559 18.1577 16.5252 18.2148C16.4354 18.2638 16.321 18.2802 16.2148 18.2802ZM15.3082 16.5649L14.8181 15.1764L14.3281 16.5649H15.3082Z" fill="#FFE812"/>
<path d="M17.4308 18.223C17.1694 18.223 16.957 18.0188 16.957 17.7738V14.4412C16.957 14.1717 17.1776 13.9512 17.4553 13.9512C17.733 13.9512 17.9535 14.1717 17.9535 14.4412V17.3164H18.999C19.2604 17.3164 19.4728 17.5206 19.4728 17.7656C19.4728 18.0106 19.2604 18.2148 18.999 18.2148H17.4308V18.223Z" fill="#FFE812"/>
<path d="M20.1502 18.2802C19.8807 18.2802 19.6602 18.0596 19.6602 17.7901V14.4412C19.6602 14.1717 19.8807 13.9512 20.1502 13.9512C20.4198 13.9512 20.6403 14.1717 20.6403 14.4412V15.4949L22.0044 14.1309C22.0779 14.0574 22.1677 14.0247 22.2739 14.0247C22.3964 14.0247 22.5189 14.0737 22.6088 14.1717C22.6986 14.2616 22.7476 14.3677 22.7558 14.4821C22.764 14.5964 22.7231 14.7026 22.6496 14.7843L21.5306 15.9033L22.7395 17.5042C22.8211 17.6104 22.8538 17.7411 22.8375 17.8636C22.8211 17.9943 22.7558 18.1086 22.6496 18.1903C22.5679 18.2557 22.4618 18.2883 22.3556 18.2883C22.2004 18.2883 22.0615 18.2148 21.9635 18.0923L20.8118 16.5731L20.6403 16.7446V17.8146C20.6403 18.0678 20.4198 18.2802 20.1502 18.2802Z" fill="#FFE812"/>
</svg>
