<svg width="33" height="33" viewBox="0 0 33 33" fill="none" xmlns="http://www.w3.org/2000/svg">
<path d="M24.947 24.952H21.393V19.383C21.393 18.055 21.366 16.346 19.541 16.346C17.688 16.346 17.405 17.791 17.405 19.285V24.952H13.851V13.5H17.265V15.061H17.311C17.788 14.161 18.948 13.211 20.681 13.211C24.282 13.211 24.948 15.581 24.948 18.666V24.952H24.947ZM9.837 11.933C9.56588 11.9331 9.29739 11.8798 9.04691 11.776C8.79642 11.6723 8.56886 11.5202 8.37724 11.3283C8.18562 11.1365 8.0337 10.9088 7.93019 10.6582C7.82668 10.4077 7.77361 10.1391 7.774 9.868C7.7742 9.45978 7.89544 9.06079 8.1224 8.72147C8.34936 8.38216 8.67184 8.11777 9.04907 7.96173C9.42629 7.80569 9.84131 7.76502 10.2416 7.84485C10.642 7.92469 11.0097 8.12144 11.2982 8.41024C11.5867 8.69903 11.7831 9.0669 11.8625 9.46731C11.942 9.86773 11.9009 10.2827 11.7445 10.6598C11.5881 11.0369 11.3234 11.3591 10.9839 11.5857C10.6443 11.8123 10.2452 11.9332 9.837 11.933V11.933ZM11.619 24.952H8.055V13.5H11.619V24.952V24.952ZM26.725 4.5H6.271C5.292 4.5 4.5 5.274 4.5 6.229V26.771C4.5 27.727 5.292 28.5 6.271 28.5H26.722C27.7 28.5 28.5 27.727 28.5 26.771V6.229C28.5 5.274 27.7 4.5 26.722 4.5H26.725V4.5Z" fill="#2867B2"/>
</svg>
