<svg width="33" height="33" viewBox="0 0 33 33" fill="none" xmlns="http://www.w3.org/2000/svg">
<g clip-path="url(#clip0_764_6020)">
<path d="M6.26514 20.1479C6.26514 22.943 9.90471 25.2082 14.3921 25.2082C18.8795 25.2082 22.519 22.943 22.519 20.1479C22.519 17.3529 18.8795 15.0876 14.3921 15.0876C9.90471 15.0876 6.26514 17.3529 6.26514 20.1479Z" fill="white"/>
<path d="M14.5842 24.7975C10.6101 25.1916 7.17918 23.3933 6.92086 20.787C6.66255 18.1774 9.67621 15.7466 13.647 15.3525C17.621 14.9584 21.052 16.7567 21.307 19.363C21.5686 21.9726 18.5549 24.4067 14.5842 24.7975ZM22.529 16.1374C22.1912 16.0347 21.9594 15.9685 22.1349 15.5247C22.519 14.561 22.5588 13.7298 22.1415 13.1336C21.3633 12.0209 19.2305 12.0805 16.7865 13.1038C16.7865 13.1038 16.0181 13.4383 16.2168 12.8323C16.5911 11.6235 16.5348 10.6134 15.9519 10.0273C14.6272 8.69926 11.1002 10.0769 8.07665 13.1005C5.81475 15.3624 4.5 17.7634 4.5 19.8399C4.5 23.8073 9.59011 26.2215 14.5676 26.2215C21.095 26.2215 25.4367 22.4296 25.4367 19.4193C25.44 17.5978 23.9067 16.5646 22.529 16.1374Z" fill="#E6162D"/>
<path d="M26.8641 8.87492C25.2877 7.12634 22.9629 6.46068 20.8169 6.9177C20.3201 7.02368 20.0055 7.51381 20.1115 8.00725C20.2174 8.50401 20.7043 8.81863 21.201 8.71265C22.7277 8.3881 24.3803 8.86168 25.4996 10.1036C26.619 11.3455 26.9237 13.0378 26.4435 14.5214C26.2878 15.0049 26.5528 15.5215 27.0363 15.6772C27.5198 15.8328 28.0364 15.5679 28.1921 15.0877V15.0844C28.8676 13.0013 28.4404 10.6202 26.8641 8.87492Z" fill="#FF9933"/>
<path d="M24.443 11.0606C23.6747 10.2095 22.5421 9.88496 21.4989 10.1102C21.0717 10.1996 20.8002 10.6235 20.8896 11.0507C20.9823 11.4779 21.4029 11.7495 21.8268 11.6567C22.3368 11.5474 22.8932 11.7064 23.2674 12.1204C23.6416 12.5376 23.7443 13.1039 23.582 13.6007C23.4495 14.0147 23.6747 14.4618 24.092 14.5975C24.5093 14.73 24.953 14.5048 25.0888 14.0875C25.4167 13.0708 25.2114 11.9117 24.443 11.0606Z" fill="#FF9933"/>
<path d="M14.8027 20.0753C14.6636 20.3137 14.3556 20.4263 14.1172 20.327C13.8787 20.2309 13.8059 19.9627 13.9416 19.7309C14.0807 19.499 14.3755 19.3864 14.6106 19.4792C14.849 19.5653 14.9351 19.8335 14.8027 20.0753ZM13.5343 21.698C13.1501 22.3107 12.3255 22.5789 11.7062 22.2974C11.0969 22.0193 10.9147 21.3072 11.2989 20.7078C11.6797 20.1117 12.4745 19.8468 13.0905 20.1051C13.7131 20.3733 13.9118 21.0787 13.5343 21.698ZM14.9782 17.3597C13.0872 16.8662 10.9512 17.8101 10.1298 19.4759C9.29198 21.1748 10.1034 23.0624 12.0109 23.6784C13.9913 24.3176 16.3228 23.3373 17.1341 21.5059C17.9356 19.711 16.9354 17.8664 14.9782 17.3597Z" fill="black"/>
</g>
<defs>
<clipPath id="clip0_764_6020">
<rect width="24" height="19.4431" fill="white" transform="translate(4.5 6.77856)"/>
</clipPath>
</defs>
</svg>
