<svg width="33" height="33" viewBox="0 0 33 33" fill="none" xmlns="http://www.w3.org/2000/svg">
<circle cx="16.5" cy="16.5" r="12" fill="#0364FF"/>
<path fill-rule="evenodd" clip-rule="evenodd" d="M12.539 11.6204C11.9654 11.6204 11.5005 12.0853 11.5005 12.6588V13.8686C11.5005 14.4421 11.9654 14.907 12.539 14.907H14.3763V21.6744C14.3763 22.2479 14.8412 22.7129 15.4147 22.7129H16.6245C17.198 22.7129 17.6629 22.2479 17.6629 21.6744V13.8774C17.663 13.8744 17.663 13.8715 17.663 13.8686V12.6588C17.663 12.0853 17.198 11.6204 16.6245 11.6204H15.4147H12.539Z" fill="white"/>
<path d="M20.1286 14.9058C21.0362 14.9058 21.7719 14.1701 21.7719 13.2625C21.7719 12.3549 21.0362 11.6191 20.1286 11.6191C19.221 11.6191 18.4852 12.3549 18.4852 13.2625C18.4852 14.1701 19.221 14.9058 20.1286 14.9058Z" fill="white"/>
</svg>
