<svg width="26" height="26" viewBox="0 0 26 26" fill="none" xmlns="http://www.w3.org/2000/svg">
<path d="M17.63 9.80823L21.5676 5.87063L20.1294 4.4324L16.1918 8.37L17.63 9.80823ZM23.6373 5.87063C23.6373 6.11246 23.5567 6.31416 23.3957 6.47571L6.11296 23.7584C5.9519 23.9194 5.7502 24 5.50787 24C5.26553 24 5.06383 23.9194 4.90278 23.7584L2.24158 21.0972C2.08053 20.9362 2 20.7345 2 20.4921C2 20.2498 2.08053 20.0481 2.24158 19.8871L19.5242 2.60434C19.6854 2.44328 19.8871 2.36275 20.1294 2.36275C20.3717 2.36275 20.5734 2.44328 20.7345 2.60434L23.3957 5.26553C23.5567 5.42658 23.6373 5.62828 23.6373 5.87063ZM5.48077 3.31705L6.79783 3.72044L5.48077 4.12384L5.07739 5.44088L4.67399 4.12384L3.35694 3.72044L4.67399 3.31705L5.07739 2L5.48077 3.31705ZM10.1845 5.49432L12.8186 6.30035L10.1845 7.10639L9.37848 9.74049L8.57246 7.10639L5.93836 6.30035L8.57246 5.49432L9.37848 2.86022L10.1845 5.49432ZM22.6829 11.9185L24 12.3219L22.6829 12.7253L22.2796 14.0423L21.8762 12.7253L20.5591 12.3219L21.8762 11.9185L22.2796 10.6015L22.6829 11.9185ZM14.0822 3.31705L15.3993 3.72044L14.0822 4.12384L13.6788 5.44088L13.2755 4.12384L11.9584 3.72044L13.2755 3.31705L13.6788 2L14.0822 3.31705Z" fill="#5C6C7F"/>
</svg>
