<svg width="33" height="33" viewBox="0 0 33 33" fill="none" xmlns="http://www.w3.org/2000/svg">
<path fill-rule="evenodd" clip-rule="evenodd" d="M9.7 28.5H23.3C26.18 28.5 28.5 26.18 28.5 23.3V9.7C28.5 6.82 26.18 4.5 23.3 4.5H9.7C6.82 4.5 4.5 6.82 4.5 9.7V23.3C4.5 26.18 6.82 28.5 9.7 28.5ZM16.24 7.5C21.06 7.5 24.98 10.68 24.98 14.6C24.98 16.16 24.38 17.58 23.08 18.98C21.26 21.1 17.16 23.66 16.22 24.06C15.3032 24.4306 15.4137 23.831 15.4569 23.597L15.46 23.58C15.48 23.46 15.58 22.84 15.58 22.84C15.62 22.6 15.64 22.26 15.56 22.04C15.48 21.78 15.08 21.66 14.8 21.6C10.6 21.04 7.5 18.1 7.5 14.6C7.5 10.68 11.42 7.5 16.24 7.5ZM13.8352 12.72H14.4552C14.5552 12.72 14.6352 12.8 14.6352 12.88V16.68C14.6352 16.76 14.5552 16.84 14.4552 16.84H13.8352C13.7352 16.84 13.6552 16.78 13.6552 16.68V12.88C13.6552 12.8 13.7352 12.72 13.8352 12.72ZM18.6759 12.72H18.0759C17.9759 12.72 17.8959 12.8 17.8959 12.88V15.14L16.1559 12.78C16.1559 12.78 16.1559 12.76 16.1359 12.76L16.1159 12.74H16.0959H15.4759C15.3759 12.74 15.2959 12.82 15.2959 12.9V16.7C15.2959 16.8 15.3759 16.86 15.4759 16.86H16.0959C16.1959 16.86 16.2759 16.78 16.2759 16.7V14.44L18.0159 16.8C18.0235 16.8076 18.0282 16.8152 18.0323 16.8218C18.0388 16.8323 18.0435 16.84 18.0559 16.84H18.0759H18.0959H18.1359H18.6759C18.7759 16.84 18.8559 16.76 18.8559 16.68V12.88C18.8559 12.8 18.7759 12.72 18.6759 12.72ZM11.3149 15.9H12.9749C13.0749 15.9 13.1549 15.98 13.0949 16.04V16.66C13.0949 16.76 13.0349 16.84 12.9349 16.84H10.4949C10.4549 16.84 10.4149 16.82 10.3749 16.8L10.3749 16.8C10.3549 16.76 10.3349 16.72 10.3349 16.68V12.88C10.3349 12.78 10.4149 12.7 10.5149 12.7H11.1349C11.2349 12.7 11.3149 12.78 11.3149 12.88V15.9ZM22.0521 13.6601C22.1521 13.6601 22.2121 13.5801 22.2121 13.4801V12.8601C22.2121 12.7601 22.1321 12.6801 22.0521 12.6801H19.6121C19.5721 12.6801 19.5321 12.7001 19.4921 12.7201C19.4721 12.7601 19.4521 12.8001 19.4521 12.8401V16.6401C19.4521 16.6801 19.4721 16.7201 19.4921 16.7601C19.5321 16.7801 19.5721 16.8001 19.6121 16.8001H22.0521C22.1521 16.8001 22.2121 16.7201 22.2121 16.6201V16.0001C22.2121 15.9001 22.1321 15.8201 22.0521 15.8201H20.3921V15.2601H22.0521C22.1521 15.2601 22.2121 15.1801 22.2121 15.0801V14.4601C22.2121 14.3601 22.1321 14.2801 22.0521 14.2801H20.3921V13.6601H22.0521Z" fill="#00B900"/>
</svg>
