<svg width="33" height="33" viewBox="0 0 33 33" fill="none" xmlns="http://www.w3.org/2000/svg">
<g clip-path="url(#clip0_764_5931)">
<path d="M16.511 4.78589C9.86914 4.78589 4.5 10.155 4.5 16.7969C4.5 22.1063 7.94023 26.6005 12.7128 28.1914C13.3094 28.3107 13.5281 27.9329 13.5281 27.6147C13.5281 27.3363 13.5082 26.3818 13.5082 25.3875C10.1674 26.1034 9.47143 23.9557 9.47143 23.9557C8.93451 22.5637 8.13909 22.2058 8.13909 22.2058C7.04537 21.47 8.21863 21.47 8.21863 21.47C9.43166 21.5495 10.068 22.7029 10.068 22.7029C11.1418 24.5324 12.8719 24.0154 13.5679 23.6972C13.6673 22.9217 13.9855 22.3847 14.3235 22.0865C11.6589 21.8081 8.85497 20.774 8.85497 16.1605C8.85497 14.8481 9.33223 13.7742 10.0879 12.939C9.96857 12.6407 9.55097 11.4078 10.2072 9.75732C10.2072 9.75732 11.2214 9.43914 13.5082 10.9902C14.4627 10.7317 15.4968 10.5925 16.511 10.5925C17.5251 10.5925 18.5592 10.7317 19.5137 10.9902C21.8006 9.43914 22.8147 9.75732 22.8147 9.75732C23.471 11.4078 23.0534 12.6407 22.9341 12.939C23.7096 13.7742 24.167 14.8481 24.167 16.1605C24.167 20.774 21.3631 21.7882 18.6785 22.0865C19.116 22.4643 19.4938 23.1802 19.4938 24.3137C19.4938 25.9244 19.4739 27.217 19.4739 27.6147C19.4739 27.9329 19.6927 28.3107 20.2893 28.1914C25.0618 26.6005 28.5021 22.1063 28.5021 16.7969C28.5219 10.155 23.1329 4.78589 16.511 4.78589Z" fill="#191717"/>
<path d="M9.05374 22.0266C9.03386 22.0862 8.93443 22.1061 8.85489 22.0663C8.77534 22.0266 8.71569 21.947 8.75546 21.8874C8.77534 21.8277 8.87477 21.8078 8.95431 21.8476C9.03386 21.8874 9.07363 21.9669 9.05374 22.0266ZM9.531 22.5635C9.47134 22.6231 9.35203 22.5834 9.29237 22.5038C9.21283 22.4243 9.19294 22.305 9.2526 22.2453C9.31226 22.1857 9.41169 22.2254 9.49123 22.305C9.57077 22.4044 9.59066 22.5237 9.531 22.5635ZM10.0083 23.2595C9.92871 23.3191 9.8094 23.2595 9.74974 23.1601C9.6702 23.0606 9.6702 22.9214 9.74974 22.8817C9.82929 22.822 9.9486 22.8817 10.0083 22.9811C10.0878 23.0805 10.0878 23.1998 10.0083 23.2595ZM10.6645 23.9356C10.6048 24.0151 10.4656 23.9953 10.3463 23.8958C10.2469 23.7964 10.2071 23.6572 10.2867 23.5975C10.3463 23.518 10.4855 23.5379 10.6048 23.6373C10.7043 23.7169 10.7241 23.8561 10.6645 23.9356ZM11.5593 24.3134C11.5395 24.4129 11.4003 24.4526 11.2611 24.4129C11.1219 24.3731 11.0423 24.2538 11.0622 24.1742C11.0821 24.0748 11.2213 24.035 11.3605 24.0748C11.4997 24.1146 11.5792 24.214 11.5593 24.3134ZM12.5337 24.393C12.5337 24.4924 12.4144 24.5719 12.2752 24.5719C12.136 24.5719 12.0167 24.4924 12.0167 24.393C12.0167 24.2935 12.136 24.214 12.2752 24.214C12.4144 24.214 12.5337 24.2935 12.5337 24.393ZM13.4485 24.2339C13.4684 24.3333 13.3689 24.4327 13.2297 24.4526C13.0905 24.4725 12.9712 24.4129 12.9513 24.3134C12.9315 24.214 13.0309 24.1146 13.1701 24.0947C13.3093 24.0748 13.4286 24.1345 13.4485 24.2339Z" fill="#191717"/>
</g>
<defs>
<clipPath id="clip0_764_5931">
<rect width="24" height="23.428" fill="white" transform="translate(4.5 4.78589)"/>
</clipPath>
</defs>
</svg>
