<svg width="33" height="33" viewBox="0 0 33 33" fill="none" xmlns="http://www.w3.org/2000/svg">
<path d="M28.5 16.5728C28.5 9.94575 23.127 4.57275 16.5 4.57275C9.873 4.57275 4.5 9.94575 4.5 16.5728C4.5 22.5623 8.8875 27.5273 14.625 28.4273V20.0423H11.5785V16.5728H14.625V13.9298C14.625 10.9223 16.416 9.26025 19.158 9.26025C20.4705 9.26025 21.8445 9.49425 21.8445 9.49425V12.4478H20.331C18.84 12.4478 18.375 13.3733 18.375 14.3213V16.5728H21.7035L21.171 20.0423H18.375V28.4273C24.1125 27.5273 28.5 22.5623 28.5 16.5728Z" fill="url(#paint0_linear_764_5828)"/>
<defs>
<linearGradient id="paint0_linear_764_5828" x1="16.5" y1="28.427" x2="16.5" y2="4.57275" gradientUnits="userSpaceOnUse">
<stop stop-color="#1569CB"/>
<stop offset="1" stop-color="#29AEF3"/>
</linearGradient>
</defs>
</svg>
