<svg width="16" height="16" viewBox="0 0 16 16" fill="none" xmlns="http://www.w3.org/2000/svg">
<path d="M11.3673 5.67871L14.231 2.815L13.185 1.76902L10.3213 4.63273L11.3673 5.67871ZM15.7362 2.815C15.7362 2.99088 15.6776 3.13757 15.5605 3.25506L2.99124 15.8243C2.87411 15.9414 2.72742 16 2.55118 16C2.37493 16 2.22824 15.9414 2.11111 15.8243L0.175698 13.8889C0.0585659 13.7718 0 13.6251 0 13.4488C0 13.2726 0.0585659 13.1259 0.175698 13.0088L12.7449 0.439518C12.8621 0.322386 13.0088 0.26382 13.185 0.26382C13.3612 0.26382 13.5079 0.322386 13.6251 0.439518L15.5605 2.37493C15.6776 2.49206 15.7362 2.63875 15.7362 2.815ZM2.53147 0.957854L3.48933 1.25123L2.53147 1.54461L2.2381 2.50246L1.94472 1.54461L0.986864 1.25123L1.94472 0.957854L2.2381 0L2.53147 0.957854ZM5.95238 2.54132L7.86809 3.12753L5.95238 3.71374L5.36617 5.62945L4.77997 3.71374L2.86426 3.12753L4.77997 2.54132L5.36617 0.625616L5.95238 2.54132ZM15.0421 7.21346L16 7.50684L15.0421 7.80022L14.7488 8.75807L14.4554 7.80022L13.4975 7.50684L14.4554 7.21346L14.7488 6.25561L15.0421 7.21346ZM8.78708 0.957854L9.74494 1.25123L8.78708 1.54461L8.4937 2.50246L8.20033 1.54461L7.24247 1.25123L8.20033 0.957854L8.4937 0L8.78708 0.957854Z" fill="black"/>
</svg>
