<svg width="33" height="33" viewBox="0 0 33 33" fill="none" xmlns="http://www.w3.org/2000/svg">
<path fill-rule="evenodd" clip-rule="evenodd" d="M28.5 24.9C28.5 26.892 26.892 28.5 24.9 28.5H8.1C6.108 28.5 4.5 26.892 4.5 24.9V8.1C4.5 6.108 6.108 4.5 8.1 4.5H24.9C26.892 4.5 28.5 6.108 28.5 8.1V24.9ZM19.8964 13.809C18.2769 13.896 16.8648 14.3846 15.7203 15.4955C14.5625 16.6199 14.0338 17.9918 14.1811 19.6917C14.0137 19.6706 13.8505 19.6489 13.6902 19.6277L13.6902 19.6277C13.2417 19.5684 12.8164 19.5121 12.3875 19.4775C12.1867 19.4575 11.9525 19.4842 11.7785 19.5779C11.3649 19.8143 10.9622 20.0687 10.5224 20.3466L10.5224 20.3466C10.3643 20.4464 10.2016 20.5493 10.0317 20.6554C10.0738 20.4709 10.1101 20.2937 10.1453 20.1222L10.1453 20.1222C10.2109 19.8022 10.2725 19.5018 10.3597 19.2098C10.4601 18.8819 10.4132 18.7012 10.1121 18.4871C8.17793 17.1151 7.35476 15.0605 7.97047 12.9457C8.53933 10.9915 9.93136 9.80023 11.8253 9.18452C14.4086 8.34127 17.3198 9.2046 18.8859 11.2525C19.4547 11.9887 19.8027 12.8252 19.8964 13.809ZM12.441 13.1465C12.4544 12.7583 12.1198 12.4103 11.7249 12.3969C11.3167 12.3835 10.9821 12.6981 10.9687 13.0996C10.9553 13.5079 11.2699 13.8358 11.6781 13.8425C12.0796 13.8559 12.421 13.548 12.441 13.1465ZM16.3294 12.4036C15.9278 12.4103 15.5932 12.7516 15.5999 13.1398C15.6066 13.5413 15.9412 13.8559 16.3494 13.8559C16.7644 13.8492 17.0722 13.5346 17.0722 13.1197C17.0655 12.7115 16.7376 12.3902 16.3294 12.4036ZM23.0659 23.6741C23.2199 23.755 23.3761 23.837 23.5368 23.9079C23.5261 23.8653 23.5182 23.8227 23.5104 23.7807C23.4936 23.6909 23.4774 23.604 23.4364 23.5265C23.1152 22.9442 23.2959 22.5761 23.7978 22.1344C25.5178 20.6019 25.6851 18.1792 24.273 16.3588C22.6534 14.2708 19.2804 13.7689 16.9849 15.2747C14.4016 16.9679 14.0803 20.1401 16.3156 22.2081C17.4868 23.2922 18.9123 23.7339 20.5051 23.5733C20.7197 23.5513 20.9343 23.4897 21.1475 23.4285C21.4529 23.3409 21.7555 23.254 22.0511 23.2855C22.3965 23.3224 22.726 23.4955 23.0659 23.6741ZM18.3033 17.6773C18.2899 17.9985 18.0222 18.2528 17.6943 18.2528C17.373 18.2528 17.0986 17.9918 17.0919 17.6706C17.0786 17.3359 17.3596 17.0482 17.701 17.0482C18.0423 17.0482 18.3167 17.3359 18.3033 17.6773ZM20.8598 17.6237C20.8732 17.3025 21.1476 17.0482 21.4621 17.0482C21.7967 17.0482 22.0644 17.3359 22.0444 17.6706C22.0377 17.9985 21.7767 18.2461 21.4487 18.2461C21.1141 18.2461 20.8464 17.965 20.8598 17.6237Z" fill="#2DC100"/>
</svg>
