<svg width="33" height="33" viewBox="0 0 33 33" fill="none" xmlns="http://www.w3.org/2000/svg">
    <path fill-rule="evenodd" clip-rule="evenodd" d="M14.6252 28.3559V19.9711H11.5775V16.5015H14.6252V13.8571C14.6252 10.8483 16.4173 9.18776 19.1579 9.18776C20.4707 9.18776 21.8444 9.42233 21.8444 9.42233V12.3755H20.3307C18.8389 12.3755 18.3748 13.3019 18.3748 14.2503V16.5015H21.7026L21.1711 19.9711H18.3748V28.3559C24.1117 27.4558 28.5 22.4911 28.5 16.5015C28.5 9.87405 23.1274 4.50146 16.5 4.50146C9.87258 4.50146 4.5 9.87405 4.5 16.5015C4.5 22.4911 8.88827 27.4558 14.6252 28.3559ZM16.761 28.4987C17.1993 28.4893 17.6319 28.4565 18.0575 28.4013C17.6319 28.456 17.1994 28.4892 16.761 28.4987Z" fill="#1977F3" />
</svg>