<svg width="33" height="33" viewBox="0 0 33 33" fill="none" xmlns="http://www.w3.org/2000/svg">
<path fill-rule="evenodd" clip-rule="evenodd" d="M28.5 16.5C28.5 23.1274 23.1274 28.5 16.5 28.5C9.87258 28.5 4.5 23.1274 4.5 16.5C4.5 9.87258 9.87258 4.5 16.5 4.5C23.1274 4.5 28.5 9.87258 28.5 16.5ZM22.7449 14.7457C23.7133 14.7457 24.4992 15.5316 24.4992 16.5C24.4992 17.2158 24.0642 17.8334 23.4887 18.1141C23.5168 18.2825 23.5308 18.4509 23.5308 18.6334C23.5308 21.3281 20.401 23.5035 16.5273 23.5035C12.6536 23.5035 9.5238 21.3281 9.5238 18.6334C9.5238 18.4509 9.53784 18.2685 9.56591 18.1C8.94837 17.8193 8.52731 17.2158 8.52731 16.5C8.52731 15.5316 9.31328 14.7457 10.2817 14.7457C10.7449 14.7457 11.1799 14.9421 11.4887 15.2369C12.6957 14.3527 14.3659 13.8053 16.2326 13.7492L17.1168 9.5667C17.1449 9.48249 17.187 9.41232 17.2571 9.37021C17.3273 9.32811 17.4115 9.31407 17.4957 9.32811L20.401 9.94565C20.5975 9.5246 21.0185 9.2439 21.5098 9.2439C22.1975 9.2439 22.7589 9.8053 22.7589 10.493C22.7589 11.1807 22.1975 11.7421 21.5098 11.7421C20.8361 11.7421 20.2887 11.2088 20.2606 10.5492L17.6642 10.0018L16.8642 13.7492C18.6887 13.8193 20.3449 14.3807 21.5378 15.2369C21.8466 14.9281 22.2677 14.7457 22.7449 14.7457ZM13.7484 16.5C13.0606 16.5 12.4992 17.0614 12.4992 17.7492C12.4992 18.4369 13.0606 18.9983 13.7484 18.9983C14.4361 18.9983 14.9975 18.4369 14.9975 17.7492C14.9975 17.0614 14.4361 16.5 13.7484 16.5ZM16.5133 21.9597C16.9905 21.9597 18.6185 21.9035 19.4747 21.0474C19.601 20.9211 19.601 20.7246 19.5028 20.5842C19.3764 20.4579 19.1659 20.4579 19.0396 20.5842C18.4922 21.1176 17.3554 21.3141 16.5273 21.3141C15.6992 21.3141 14.5484 21.1176 14.015 20.5842C13.8887 20.4579 13.6782 20.4579 13.5519 20.5842C13.4256 20.7106 13.4256 20.9211 13.5519 21.0474C14.394 21.8895 16.0361 21.9597 16.5133 21.9597ZM18.001 17.7492C18.001 18.4369 18.5624 18.9983 19.2501 18.9983C19.9378 18.9983 20.4992 18.4369 20.4992 17.7492C20.4992 17.0614 19.9378 16.5 19.2501 16.5C18.5624 16.5 18.001 17.0614 18.001 17.7492Z" fill="#FF4500"/>
</svg>
