<svg width="145" height="27" viewBox="0 0 145 27" fill="none" xmlns="http://www.w3.org/2000/svg">
    <path fill-rule="evenodd" clip-rule="evenodd" d="M73.1566 23.57C72.2032 23.57 71.3292 23.3689 70.5347 22.9665C70.0864 22.7343 69.6969 22.4585 69.3661 22.1389C69.1571 21.937 68.7337 22.074 68.7337 22.3633V22.795C68.7337 22.9912 68.5732 23.1502 68.3752 23.1502H66.6556C66.4577 23.1502 66.2971 22.9912 66.2971 22.795V4.71652C66.2971 4.52036 66.4577 4.36133 66.6556 4.36133H68.3671C68.5651 4.36133 68.7256 4.52035 68.7256 4.71652V11.0795C68.7256 11.3687 69.1501 11.5066 69.3597 11.3052C69.693 10.9851 70.0857 10.7087 70.5347 10.4762C71.3292 10.0739 72.2032 9.87269 73.1566 9.87269C74.8693 9.87269 76.3171 10.5374 77.5001 11.8669C78.7184 13.2139 79.3275 14.8321 79.3275 16.7214C79.3275 18.6281 78.7184 20.2463 77.5001 21.5758C76.3171 22.9053 74.8693 23.57 73.1566 23.57ZM72.7594 21.3659C73.9247 21.3659 74.9046 20.9285 75.6992 20.0539C76.4937 19.1967 76.891 18.0859 76.891 16.7214C76.891 15.3744 76.4937 14.2635 75.6992 13.3889C74.9046 12.5142 73.9247 12.0769 72.7594 12.0769C71.5764 12.0769 70.5876 12.5142 69.7931 13.3889C69.0162 14.2635 68.6278 15.3744 68.6278 16.7214C68.6278 18.0859 69.0162 19.2054 69.7931 20.0801C70.5876 20.9373 71.5764 21.3659 72.7594 21.3659ZM57.9245 23.57C56.0176 23.57 54.4462 22.9228 53.2103 21.6283C51.9743 20.3338 51.3564 18.6981 51.3564 16.7214C51.3564 14.7621 51.9567 13.1352 53.1573 11.8407C54.3579 10.5287 55.894 9.87268 57.7656 9.87268C59.6902 9.87268 61.2174 10.4937 62.3474 11.7357C63.5652 13.0351 64.1474 14.9893 64.0711 16.7668C64.0614 16.9947 63.8671 17.1674 63.6369 17.1674H54.2836C54.0439 17.1674 53.8495 17.364 53.8743 17.6002C53.9859 18.6614 54.4002 19.5318 55.1172 20.2113C55.9294 20.981 56.9004 21.3659 58.0305 21.3659C59.4721 21.3659 60.625 20.7032 61.489 19.3779C61.6045 19.2007 61.8344 19.1288 62.0257 19.2212L63.4816 19.9249C63.6868 20.024 63.769 20.2728 63.6501 20.466C63.0874 21.3802 62.3442 22.1087 61.4205 22.6516C60.3964 23.2639 59.2311 23.57 57.9245 23.57ZM54.1723 14.6665C54.0861 14.9225 54.2897 15.1732 54.562 15.1732H61.013C61.2613 15.1732 61.4597 14.9625 61.4093 14.7217C61.2647 14.0301 60.9153 13.4458 60.3611 12.969C59.7078 12.3742 58.825 12.0769 57.7126 12.0769C56.7945 12.0769 56 12.3567 55.329 12.9165C54.7972 13.3723 54.4116 13.9556 54.1723 14.6665ZM50.6094 10.7857C50.6887 10.5421 50.5053 10.2925 50.2469 10.2925H48.5652C48.3963 10.2925 48.2476 10.4027 48.1999 10.5633L45.7196 18.9049C45.6201 19.2394 45.1443 19.2464 45.0349 18.9149L42.2748 10.5526C42.2236 10.3975 42.0775 10.2925 41.9127 10.2925H39.9484C39.784 10.2925 39.6381 10.397 39.5866 10.5517L36.8015 18.9204C36.6914 19.2513 36.2165 19.2437 36.1171 18.9096L33.6355 10.5633C33.5877 10.4027 33.439 10.2925 33.2701 10.2925H31.5355C31.2771 10.2925 31.0936 10.5421 31.173 10.7857L35.1119 22.8886C35.1626 23.0445 35.3091 23.1502 35.4744 23.1502H37.3825C37.5479 23.1502 37.6944 23.0444 37.7451 22.8884L40.5248 14.3303C40.6314 14.0022 41.0997 14.0016 41.2071 14.3295L44.0104 22.8893C44.0613 23.0448 44.2076 23.1502 44.3727 23.1502H46.3079C46.4733 23.1502 46.6197 23.0445 46.6705 22.8886L50.6094 10.7857ZM126.101 22.3892C126.807 23.0365 127.69 23.3601 128.749 23.3601C129.45 23.3601 130.079 23.2823 130.635 23.1267C130.825 23.0736 130.921 22.8704 130.855 22.6863L130.335 21.2295C130.266 21.0342 130.043 20.9399 129.843 21.0024C129.789 21.0193 129.734 21.0355 129.676 21.051C129.5 21.086 129.314 21.1035 129.12 21.1035C128.696 21.1035 128.317 20.9548 127.981 20.6574C127.646 20.3425 127.478 19.7565 127.478 18.8993V12.8519C127.478 12.6557 127.639 12.4967 127.837 12.4967H130.298C130.496 12.4967 130.656 12.3377 130.656 12.1415V10.6477C130.656 10.4516 130.496 10.2925 130.298 10.2925H127.837C127.639 10.2925 127.478 10.1335 127.478 9.93734V4.71652C127.478 4.52036 127.318 4.36133 127.12 4.36133H125.4C125.202 4.36133 125.042 4.52035 125.042 4.71652V9.93734C125.042 10.1335 124.881 10.2925 124.683 10.2925H123.122C122.924 10.2925 122.764 10.4516 122.764 10.6477V12.1415C122.764 12.3377 122.924 12.4967 123.122 12.4967H124.683C124.881 12.4967 125.042 12.6557 125.042 12.8519V19.6865C125.059 20.8411 125.412 21.742 126.101 22.3892ZM91.3032 21.9956C92.4862 20.946 93.0776 19.634 93.0776 18.0596C93.0776 17.0975 92.804 16.2315 92.2566 15.4618C92.0048 15.0959 91.6429 14.6307 90.5816 14.0411C90.3573 13.9166 90.3515 13.5847 90.5635 13.4407C91.8335 12.5784 92.4685 11.2728 92.4685 9.74149C92.4685 8.28953 91.93 7.10873 90.8529 6.19907C89.7582 5.25442 88.4075 4.7821 86.8008 4.7821C85.5119 4.7821 84.3907 5.12322 83.4373 5.80547C82.5877 6.41339 81.9554 7.18799 81.5404 8.12927C81.4544 8.32431 81.5532 8.54711 81.751 8.63011L83.2566 9.26188C83.4698 9.35134 83.7134 9.2438 83.809 9.03489C84.4022 7.73912 85.3994 7.09123 86.8008 7.09123C87.7542 7.09123 88.5223 7.33614 89.105 7.82596C89.6876 8.31577 89.9789 8.95428 89.9789 9.74149C89.9789 10.5987 89.67 11.2984 89.052 11.8407C88.434 12.3655 87.6395 12.6279 86.6684 12.6279H85.6945C85.4718 12.6279 85.2912 12.8068 85.2912 13.0275V14.485C85.2912 14.7057 85.4718 14.8846 85.6945 14.8846H86.8538C87.8778 14.8846 88.7518 15.1907 89.4757 15.803C90.2173 16.4152 90.5881 17.1674 90.5881 18.0596C90.5881 18.9518 90.235 19.7127 89.5287 20.3425C88.8048 20.9548 87.9485 21.2609 86.9597 21.2609C86.0592 21.2609 85.2824 20.9985 84.6291 20.4737C84.088 20.0121 83.6749 19.3857 83.3897 18.5946C83.3083 18.3687 83.055 18.2459 82.8315 18.3381L81.3584 18.9462C81.1696 19.0242 81.0683 19.2305 81.1345 19.4223C81.5463 20.6147 82.2609 21.595 83.2784 22.363C84.3731 23.1677 85.6002 23.57 86.9597 23.57C88.69 23.57 90.1379 23.0452 91.3032 21.9956ZM97.4012 19.2142C97.4012 18.5144 97.7279 17.9284 98.3812 17.4561C99.0521 16.9838 99.882 16.7476 100.871 16.7476C102.139 16.7476 103.146 17.0065 103.892 17.5243C103.993 17.5944 104.05 17.7111 104.044 17.8332C103.995 18.767 103.591 19.586 102.831 20.29C102.036 21.0422 101.127 21.4184 100.103 21.4184C99.3788 21.4184 98.7431 21.2084 98.1958 20.7886C97.6661 20.3687 97.4012 19.8439 97.4012 19.2142ZM104.817 11.3159C103.775 10.3538 102.354 9.87269 100.553 9.87269C98.3816 9.87269 96.7083 10.6126 95.5328 12.0925C95.4062 12.2519 95.4539 12.4821 95.6271 12.5902L97.1638 13.5488C97.3262 13.6501 97.5392 13.6055 97.6591 13.4571C98.4306 12.5019 99.4393 12.0244 100.685 12.0244C101.586 12.0244 102.372 12.3218 103.042 12.9165C103.718 13.4975 103.957 14.1957 104.025 14.9844C104.049 15.2555 103.75 15.4308 103.497 15.326C102.658 14.9792 101.65 14.8058 100.473 14.8058C98.7784 14.8058 97.4189 15.1994 96.3948 15.9866C95.3884 16.7738 94.8852 17.8322 94.8852 19.1617C94.8852 20.4212 95.3619 21.4708 96.3154 22.3105C97.2865 23.1502 98.4871 23.57 99.9173 23.57C101.595 23.57 102.937 22.8353 103.943 21.3659V22.795C103.943 22.9912 104.103 23.1502 104.301 23.1502H106.021C106.219 23.1502 106.38 22.9912 106.38 22.795V15.2257C106.38 13.5638 105.859 12.2605 104.817 11.3159ZM120.516 22.7728C120.516 22.9812 120.345 23.1502 120.135 23.1502H118.46C118.25 23.1502 118.079 22.9812 118.079 22.7728V22.3513C118.079 22.0793 117.664 21.9489 117.468 22.1397C117.161 22.4392 116.791 22.7061 116.358 22.9403C115.599 23.3601 114.804 23.57 113.974 23.57C112.385 23.57 111.158 23.124 110.293 22.2318C109.446 21.3221 109.022 20.0364 109.022 18.3745V10.6699C109.022 10.4615 109.192 10.2925 109.403 10.2925H111.077C111.288 10.2925 111.458 10.4615 111.458 10.6699V18.2171C111.511 20.3163 112.579 21.3659 114.663 21.3659C115.634 21.3659 116.446 20.981 117.1 20.2113C117.753 19.4241 118.079 18.4882 118.079 17.4036V10.6699C118.079 10.4615 118.25 10.2925 118.46 10.2925H120.135C120.345 10.2925 120.516 10.4615 120.516 10.6699V22.7728ZM133.103 4.71652C133.103 4.52036 133.264 4.36133 133.462 4.36133H135.182C135.379 4.36133 135.54 4.52035 135.54 4.71652V11.0915C135.54 11.3634 135.954 11.4927 136.148 11.3007C136.45 11.0021 136.813 10.736 137.235 10.5025C138.012 10.0826 138.815 9.87269 139.645 9.87269C141.234 9.87269 142.452 10.3275 143.3 11.2372C144.165 12.1293 144.598 13.4064 144.598 15.0682V22.795C144.598 22.9912 144.437 23.1502 144.239 23.1502H142.52C142.322 23.1502 142.161 22.9912 142.161 22.795V15.5406C142.161 13.2314 141.128 12.0769 139.062 12.0769C138.074 12.0769 137.235 12.488 136.546 13.3101C135.875 14.1148 135.54 15.0595 135.54 16.1441V22.795C135.54 22.9912 135.379 23.1502 135.182 23.1502H133.462C133.264 23.1502 133.103 22.9912 133.103 22.795V4.71652Z" fill="#0F1222" />
    <path d="M21.5958 21.1121C21.7376 21.6453 22.4886 21.6453 22.6305 21.1121L26.7133 5.76215C26.9013 5.05538 26.3727 4.36133 25.6463 4.36133H23.129C22.629 4.36133 22.1914 4.69962 22.062 5.18612L19.7596 13.8422C19.7277 13.9622 19.7277 14.0887 19.7596 14.2087L21.5958 21.1121Z" fill="#0364FF" />
    <path d="M7.3269 13.831C7.35884 13.951 7.35884 14.0775 7.3269 14.1975L5.49071 21.1008C5.34889 21.634 4.59785 21.634 4.45602 21.1008L0.376139 5.76215C0.188147 5.05538 0.716813 4.36133 1.44316 4.36133H3.96047C4.46044 4.36133 4.89809 4.69962 5.02749 5.18612L7.3269 13.831Z" fill="#0364FF" />
    <path d="M10.7686 24.4862C10.6437 24.9574 10.221 25.2851 9.73818 25.2851H7.1621C6.46064 25.2851 5.95009 24.6128 6.13164 23.9282L11.0889 5.23516C11.2256 4.71973 11.6878 4.36133 12.2159 4.36133H15.2121C15.7402 4.36133 16.2025 4.71973 16.3392 5.23515L21.2964 23.9282C21.478 24.6128 20.9674 25.2851 20.266 25.2851H17.6899C17.207 25.2851 16.7844 24.9574 16.6594 24.4862L14.2132 15.2617C14.0763 14.7457 13.3517 14.7457 13.2149 15.2617L10.7686 24.4862Z" fill="#0364FF" />
    <path d="M12.8093 22.541C12.625 22.541 12.4908 22.3735 12.5385 22.2028L13.4433 18.967C13.5175 18.7015 13.9106 18.7015 13.9848 18.967L14.8896 22.2028C14.9373 22.3735 14.8031 22.541 14.6188 22.541H12.8093Z" fill="#0364FF" />
</svg>
    