<svg width="175" height="33" viewBox="0 0 175 33" fill="none" xmlns="http://www.w3.org/2000/svg">
    <path fill-rule="evenodd" clip-rule="evenodd" d="M88.2931 28.7533C87.1424 28.7533 86.0876 28.5042 85.1286 28.006C84.5876 27.7186 84.1175 27.377 83.7183 26.9814C83.4661 26.7314 82.9551 26.9011 82.9551 27.2592V27.7937C82.9551 28.0366 82.7614 28.2335 82.5224 28.2335H80.4471C80.2081 28.2335 80.0144 28.0366 80.0144 27.7937V5.41082C80.0144 5.16794 80.2081 4.97105 80.4471 4.97105H82.5126C82.7516 4.97105 82.9453 5.16794 82.9453 5.41082V13.2887C82.9453 13.6469 83.4576 13.8175 83.7106 13.5683C84.1128 13.1719 84.5868 12.8297 85.1286 12.5419C86.0876 12.0437 87.1424 11.7946 88.2931 11.7946C90.3601 11.7946 92.1075 12.6177 93.5352 14.2637C95.0055 15.9314 95.7407 17.9348 95.7407 20.274C95.7407 22.6347 95.0055 24.6381 93.5352 26.2842C92.1075 27.9302 90.3601 28.7533 88.2931 28.7533ZM87.8136 26.0243C89.22 26.0243 90.4027 25.4828 91.3616 24.3999C92.3206 23.3386 92.8 21.9633 92.8 20.274C92.8 18.6063 92.3206 17.2309 91.3616 16.148C90.4027 15.0651 89.22 14.5236 87.8136 14.5236C86.3859 14.5236 85.1926 15.0651 84.2336 16.148C83.296 17.2309 82.8272 18.6063 82.8272 20.274C82.8272 21.9633 83.296 23.3495 84.2336 24.4324C85.1926 25.4937 86.3859 26.0243 87.8136 26.0243ZM69.9095 28.7533C67.6081 28.7533 65.7115 27.9519 64.2199 26.3492C62.7282 24.7464 61.9824 22.7214 61.9824 20.274C61.9824 17.8482 62.7069 15.834 64.1559 14.2312C65.605 12.6068 67.4589 11.7946 69.7177 11.7946C72.0404 11.7946 73.8837 12.5635 75.2475 14.1013C76.7172 15.71 77.4199 18.1295 77.3278 20.3302C77.316 20.6123 77.0816 20.8262 76.8037 20.8262H65.5153C65.2259 20.8262 64.9913 21.0695 65.0213 21.3621C65.156 22.676 65.6559 23.7535 66.5213 24.5948C67.5015 25.5478 68.6735 26.0243 70.0373 26.0243C71.7773 26.0243 73.1686 25.2039 74.2115 23.563C74.3509 23.3436 74.6283 23.2545 74.8592 23.369L76.6162 24.2402C76.8639 24.363 76.9632 24.671 76.8197 24.9101C76.1405 26.042 75.2435 26.944 74.1287 27.6162C72.8928 28.3742 71.4864 28.7533 69.9095 28.7533ZM65.3809 17.7298C65.2769 18.0468 65.5226 18.3572 65.8513 18.3572H73.637C73.9366 18.3572 74.176 18.0964 74.1152 17.7982C73.9407 16.9419 73.519 16.2185 72.8502 15.6282C72.0617 14.8918 70.9963 14.5236 69.6538 14.5236C68.5457 14.5236 67.5868 14.8701 66.777 15.5632C66.1351 16.1275 65.6697 16.8497 65.3809 17.7298ZM61.0809 12.9251C61.1766 12.6234 60.9552 12.3144 60.6433 12.3144H58.6138C58.4099 12.3144 58.2304 12.4509 58.1728 12.6497L55.1794 22.9774C55.0593 23.3916 54.4851 23.4002 54.3531 22.9898L51.0218 12.6365C50.96 12.4444 50.7837 12.3144 50.5849 12.3144H48.2141C48.0157 12.3144 47.8397 12.4438 47.7775 12.6354L44.4162 22.9966C44.2833 23.4062 43.7101 23.3969 43.5902 22.9832L40.5951 12.6497C40.5375 12.4509 40.358 12.3144 40.1541 12.3144H38.0606C37.7488 12.3144 37.5274 12.6234 37.6231 12.9251L42.377 27.9096C42.4382 28.1026 42.615 28.2335 42.8145 28.2335H45.1174C45.317 28.2335 45.4938 28.1025 45.555 27.9093L48.9098 17.3135C49.0385 16.9073 49.6037 16.9066 49.7333 17.3125L53.1165 27.9104C53.178 28.103 53.3546 28.2335 53.5538 28.2335H55.8895C56.089 28.2335 56.2658 28.1026 56.327 27.9096L61.0809 12.9251ZM152.191 27.2913C153.044 28.0927 154.109 28.4934 155.388 28.4934C156.234 28.4934 156.993 28.397 157.664 28.2044C157.893 28.1387 158.009 27.8871 157.929 27.6592L157.302 25.8554C157.218 25.6137 156.949 25.4969 156.708 25.5742C156.643 25.5952 156.576 25.6153 156.507 25.6344C156.293 25.6778 156.07 25.6994 155.835 25.6994C155.324 25.6994 154.866 25.5153 154.461 25.1471C154.056 24.7573 153.854 24.0317 153.854 22.9704V15.4832C153.854 15.2403 154.047 15.0434 154.286 15.0434H157.257C157.496 15.0434 157.689 14.8465 157.689 14.6037V12.7542C157.689 12.5113 157.496 12.3144 157.257 12.3144H154.286C154.047 12.3144 153.854 12.1176 153.854 11.8747V5.41082C153.854 5.16794 153.66 4.97105 153.421 4.97105H151.346C151.107 4.97105 150.913 5.16794 150.913 5.41082V11.8747C150.913 12.1176 150.719 12.3144 150.48 12.3144H148.597C148.358 12.3144 148.164 12.5113 148.164 12.7542V14.6037C148.164 14.8465 148.358 15.0434 148.597 15.0434H150.48C150.719 15.0434 150.913 15.2403 150.913 15.4832V23.9451C150.934 25.3745 151.36 26.49 152.191 27.2913ZM110.194 26.804C111.622 25.5045 112.336 23.8801 112.336 21.9308C112.336 20.7396 112.005 19.6675 111.345 18.7145C111.041 18.2614 110.604 17.6855 109.323 16.9556C109.053 16.8013 109.045 16.3905 109.301 16.2122C110.834 15.1446 111.6 13.5281 111.6 11.6322C111.6 9.83455 110.951 8.3726 109.651 7.24635C108.329 6.07679 106.699 5.49201 104.76 5.49201C103.205 5.49201 101.851 5.91435 100.701 6.75904C99.6754 7.5117 98.9123 8.47073 98.4114 9.63613C98.3076 9.87761 98.4269 10.1534 98.6656 10.2562L100.483 11.0384C100.74 11.1492 101.034 11.016 101.149 10.7574C101.865 9.15308 103.069 8.35094 104.76 8.35094C105.911 8.35094 106.838 8.65416 107.541 9.2606C108.244 9.86703 108.596 10.6576 108.596 11.6322C108.596 12.6935 108.223 13.5598 107.477 14.2312C106.731 14.881 105.772 15.2059 104.6 15.2059H103.425C103.156 15.2059 102.938 15.4274 102.938 15.7006V17.5051C102.938 17.7783 103.156 17.9998 103.425 17.9998H104.824C106.06 17.9998 107.115 18.3788 107.989 19.1369C108.884 19.8949 109.331 20.8263 109.331 21.9308C109.331 23.0354 108.905 23.9776 108.052 24.7573C107.179 25.5153 106.145 25.8943 104.952 25.8943C103.865 25.8943 102.928 25.5695 102.139 24.9197C101.486 24.3482 100.988 23.5727 100.643 22.5932C100.545 22.3135 100.239 22.1614 99.9697 22.2756L98.1918 23.0285C97.9638 23.1251 97.8416 23.3805 97.9216 23.618C98.4186 25.0943 99.281 26.3079 100.509 27.2588C101.83 28.2551 103.311 28.7533 104.952 28.7533C107.04 28.7533 108.788 28.1035 110.194 26.804ZM117.554 23.3603C117.554 22.494 117.948 21.7684 118.736 21.1836C119.546 20.5988 120.548 20.3064 121.741 20.3064C123.272 20.3064 124.488 20.627 125.388 21.268C125.51 21.3548 125.578 21.4994 125.571 21.6505C125.512 22.8067 125.024 23.8206 124.106 24.6923C123.148 25.6236 122.05 26.0893 120.814 26.0893C119.94 26.0893 119.173 25.8294 118.513 25.3096C117.873 24.7898 117.554 24.14 117.554 23.3603ZM126.504 13.5815C125.247 12.3903 123.531 11.7946 121.358 11.7946C118.737 11.7946 116.717 12.7108 115.299 14.543C115.146 14.7403 115.204 15.0254 115.413 15.1592L117.267 16.346C117.463 16.4715 117.72 16.4163 117.865 16.2325C118.796 15.0499 120.014 14.4586 121.517 14.4586C122.604 14.4586 123.552 14.8268 124.362 15.5632C125.177 16.2825 125.465 17.147 125.548 18.1234C125.577 18.459 125.216 18.6761 124.91 18.5463C123.898 18.117 122.682 17.9023 121.262 17.9023C119.216 17.9023 117.575 18.3897 116.339 19.3643C115.125 20.3389 114.517 21.6493 114.517 23.2953C114.517 24.8547 115.093 26.1542 116.243 27.1939C117.415 28.2335 118.864 28.7533 120.59 28.7533C122.615 28.7533 124.234 27.8436 125.449 26.0243V27.7937C125.449 28.0366 125.643 28.2335 125.882 28.2335H127.957C128.196 28.2335 128.39 28.0366 128.39 27.7937V18.4222C128.39 16.3646 127.761 14.751 126.504 13.5815ZM145.451 27.7662C145.451 28.0243 145.245 28.2335 144.991 28.2335H142.97C142.716 28.2335 142.51 28.0243 142.51 27.7662V27.2443C142.51 26.9076 142.009 26.7462 141.773 26.9824C141.402 27.3532 140.956 27.6836 140.433 27.9736C139.516 28.4934 138.557 28.7533 137.556 28.7533C135.638 28.7533 134.157 28.201 133.113 27.0964C132.09 25.9701 131.579 24.3782 131.579 22.3207V12.7817C131.579 12.5236 131.784 12.3144 132.038 12.3144H134.06C134.313 12.3144 134.519 12.5236 134.519 12.7817V22.1258C134.583 24.7248 135.872 26.0243 138.387 26.0243C139.559 26.0243 140.539 25.5478 141.328 24.5948C142.116 23.6202 142.51 22.4615 142.51 21.1186V12.7817C142.51 12.5236 142.716 12.3144 142.97 12.3144H144.991C145.245 12.3144 145.451 12.5236 145.451 12.7817V27.7662ZM160.643 5.41082C160.643 5.16794 160.836 4.97105 161.075 4.97105H163.151C163.39 4.97105 163.583 5.16794 163.583 5.41082V13.3036C163.583 13.6403 164.083 13.8004 164.317 13.5626C164.682 13.193 165.119 12.8636 165.629 12.5744C166.567 12.0545 167.536 11.7946 168.538 11.7946C170.456 11.7946 171.926 12.3578 172.949 13.484C173.993 14.5886 174.515 16.1697 174.515 18.2272V27.7937C174.515 28.0366 174.321 28.2335 174.082 28.2335H172.007C171.768 28.2335 171.574 28.0366 171.574 27.7937V18.812C171.574 15.9531 170.328 14.5236 167.835 14.5236C166.641 14.5236 165.629 15.0326 164.798 16.0505C163.988 17.0468 163.583 18.2164 163.583 19.5592V27.7937C163.583 28.0366 163.39 28.2335 163.151 28.2335H161.075C160.836 28.2335 160.643 28.0366 160.643 27.7937V5.41082Z" fill="#B7B8BD" />
    <path d="M26.0649 25.7101C26.236 26.3702 27.1425 26.3702 27.3136 25.7101L32.2412 6.70541C32.4681 5.83036 31.8301 4.97105 30.9535 4.97105H27.9153C27.3119 4.97105 26.7837 5.38989 26.6275 5.99223L23.8488 16.7093C23.8102 16.8579 23.8102 17.0144 23.8488 17.1631L26.0649 25.7101Z" fill="#B7B8BD" />
    <path d="M8.84382 16.6954C8.88237 16.844 8.88237 17.0005 8.84382 17.1492L6.62773 25.6962C6.45656 26.3563 5.55014 26.3563 5.37897 25.6962L0.454975 6.70541C0.228089 5.83036 0.866133 4.97105 1.74275 4.97105H4.78089C5.38431 4.97105 5.9125 5.38989 6.06867 5.99223L8.84382 16.6954Z" fill="#B7B8BD" />
    <path d="M12.9976 29.8875C12.8468 30.471 12.3367 30.8767 11.754 30.8767H8.64493C7.79834 30.8767 7.18215 30.0443 7.40127 29.1967L13.3841 6.05294C13.5491 5.41479 14.107 4.97105 14.7444 4.97105H18.3605C18.9979 4.97105 19.5558 5.41479 19.7207 6.05293L25.7036 29.1967C25.9227 30.0443 25.3065 30.8767 24.4599 30.8767H21.3509C20.7681 30.8767 20.258 30.471 20.1072 29.8875L17.1548 18.4667C16.9897 17.8279 16.1152 17.8279 15.95 18.4667L12.9976 29.8875Z" fill="#B7B8BD" />
    <path d="M15.4605 27.4792C15.2381 27.4792 15.0761 27.2718 15.1337 27.0605L16.2256 23.0543C16.3152 22.7256 16.7897 22.7256 16.8793 23.0543L17.9712 27.0605C18.0288 27.2718 17.8668 27.4792 17.6444 27.4792H15.4605Z" fill="#B7B8BD" />
</svg>
    