<svg width="74" height="24" viewBox="0 0 74 24" fill="none" xmlns="http://www.w3.org/2000/svg">
<path d="M12.4632 3.89974C12.665 3.89974 12.8083 4.09644 12.7463 4.28852L10.212 12.1481C10.1724 12.271 10.058 12.3543 9.92887 12.3543H8.73984C8.61092 12.3543 8.49666 12.2713 8.45688 12.1487L6.70272 6.7424C6.61363 6.46782 6.225 6.46829 6.13657 6.74309L4.39723 12.148C4.35765 12.271 4.24323 12.3543 4.11404 12.3543H2.94282C2.8137 12.3543 2.69932 12.271 2.65969 12.1481L0.125363 4.28852C0.0634253 4.09644 0.206671 3.89974 0.408495 3.89974H1.43392C1.56584 3.89974 1.682 3.98662 1.71928 4.11316L3.53465 10.2754C3.53612 10.2804 3.54069 10.2838 3.54589 10.2838V10.2838C3.55095 10.2838 3.55544 10.2806 3.55702 10.2757L5.5751 4.10476C5.61509 3.98246 5.72918 3.89974 5.85785 3.89974H7.0656C7.19427 3.89974 7.30835 3.98246 7.34835 4.10476L9.36643 10.2758C9.36801 10.2806 9.37249 10.2838 9.37755 10.2838V10.2838C9.38275 10.2838 9.38732 10.2804 9.38878 10.2754L11.1873 4.11387C11.2243 3.98697 11.3407 3.89974 11.4729 3.89974H12.4632Z" fill="white"/>
<path d="M17.5328 12.6304C16.2905 12.6304 15.2667 12.2048 14.4615 11.3536C13.6563 10.5024 13.2537 9.42686 13.2537 8.12704C13.2537 6.83872 13.6448 5.76895 14.427 4.91774C15.2092 4.05503 16.2099 3.62367 17.4292 3.62367C18.6831 3.62367 19.678 4.03202 20.4142 4.84872C21.1619 5.65392 21.5358 6.78695 21.5358 8.24782V8.24782C21.526 8.34577 21.4435 8.42036 21.3451 8.42036H15.1815C15.0139 8.42036 14.878 8.55892 14.8963 8.72545C14.9721 9.41397 15.2413 9.97944 15.7038 10.4219C16.2329 10.928 16.8656 11.181 17.6018 11.181C18.5311 11.181 19.2762 10.7544 19.8372 9.9012C19.9234 9.76997 20.0928 9.71629 20.2339 9.78514L21.1207 10.2177C21.2721 10.2916 21.3329 10.4768 21.2441 10.6199C20.8798 11.2067 20.4018 11.6756 19.8103 12.0265C19.1432 12.4291 18.384 12.6304 17.5328 12.6304ZM15.0963 6.75203C15.0346 6.93208 15.1769 7.10903 15.3672 7.10903H19.5231C19.6966 7.10903 19.8354 6.9604 19.7985 6.79089C19.7017 6.34538 19.4756 5.96831 19.1202 5.65968C18.6946 5.26858 18.1194 5.07303 17.3947 5.07303C16.7966 5.07303 16.279 5.25708 15.8418 5.62517C15.5012 5.91975 15.2527 6.29537 15.0963 6.75203Z" fill="white"/>
<path d="M27.4563 12.6304C26.8351 12.6304 26.2657 12.4981 25.7481 12.2336C25.25 11.9732 24.8633 11.6292 24.588 11.2017C24.5797 11.1889 24.5655 11.181 24.5503 11.181V11.181C24.5257 11.181 24.5058 11.201 24.5058 11.2255V12.0568C24.5058 12.2211 24.3726 12.3543 24.2083 12.3543H23.2849C23.1206 12.3543 22.9874 12.2211 22.9874 12.0568V0.297762C22.9874 0.133464 23.1206 0.000274658 23.2849 0.000274658H24.2773C24.4416 0.000274658 24.5748 0.133464 24.5748 0.297762V3.89974L24.5084 5.02769C24.507 5.05229 24.5266 5.07303 24.5512 5.07303V5.07303C24.5659 5.07303 24.5795 5.06548 24.5875 5.05312C24.8628 4.62526 25.2497 4.28106 25.7481 4.02052C26.2657 3.75595 26.8351 3.62367 27.4563 3.62367C28.572 3.62367 29.5153 4.06078 30.286 4.935C31.0797 5.82072 31.4765 6.88473 31.4765 8.12704C31.4765 9.38085 31.0797 10.4449 30.286 11.3191C29.5153 12.1933 28.572 12.6304 27.4563 12.6304ZM27.1974 11.181C27.9566 11.181 28.595 10.8935 29.1127 10.3183C29.6303 9.75469 29.8891 9.02426 29.8891 8.12704C29.8891 7.24132 29.6303 6.51089 29.1127 5.93574C28.595 5.3606 27.9566 5.07303 27.1974 5.07303C26.4268 5.07303 25.7826 5.3606 25.265 5.93574C24.7588 6.51089 24.5058 7.24132 24.5058 8.12704C24.5058 9.02426 24.7588 9.76044 25.265 10.3356C25.7826 10.8992 26.4268 11.181 27.1974 11.181Z" fill="white"/>
<path d="M40.4344 9.007C40.4344 10.0423 40.0491 10.905 39.2784 11.5951C38.5192 12.2853 37.576 12.6304 36.4487 12.6304C35.563 12.6304 34.7635 12.3658 34.0504 11.8367C33.3958 11.338 32.9336 10.7031 32.6638 9.93222C32.6139 9.78977 32.6888 9.63616 32.8281 9.57811L33.723 9.20521C33.8879 9.13654 34.0746 9.22812 34.1363 9.39566C34.3215 9.8985 34.5862 10.2981 34.9303 10.5944C35.3559 10.9395 35.8621 11.112 36.4487 11.112C37.0929 11.112 37.6508 10.9107 38.1224 10.5081C38.5825 10.094 38.8125 9.59365 38.8125 9.007C38.8125 8.42036 38.571 7.92574 38.0879 7.52314C37.6162 7.12054 37.0469 6.91924 36.3797 6.91924H35.6592C35.4949 6.91924 35.3617 6.78605 35.3617 6.62175V5.73286C35.3617 5.56856 35.4949 5.43537 35.6592 5.43537H36.2589C36.8916 5.43537 37.4092 5.26283 37.8118 4.91774C38.2144 4.56115 38.4157 4.10104 38.4157 3.5374C38.4157 3.01977 38.2259 2.59992 37.8463 2.27784C37.4667 1.95576 36.9663 1.79472 36.3452 1.79472C35.4442 1.79472 34.7996 2.20962 34.4114 3.03943C34.3391 3.19412 34.1596 3.27431 34.0024 3.20771L33.0857 2.81949C32.9398 2.75769 32.8668 2.59178 32.9314 2.44711C33.2019 1.84177 33.6094 1.34249 34.1539 0.94926C34.775 0.500648 35.5055 0.276342 36.3452 0.276342C37.3919 0.276342 38.2719 0.586919 38.9851 1.20807C39.6868 1.80622 40.0376 2.58266 40.0376 3.5374C40.0376 4.66559 39.5183 5.50589 38.4796 6.0583C38.4617 6.06782 38.4502 6.0865 38.4502 6.10679V6.10679C38.4502 6.12863 38.4633 6.14834 38.4833 6.15707C39.0885 6.42115 39.5606 6.80174 39.8996 7.29883C40.2561 7.80496 40.4344 8.37435 40.4344 9.007Z" fill="white"/>
<path d="M43.2513 9.76583C43.2513 10.1799 43.4238 10.525 43.7689 10.8011C44.1255 11.0771 44.5396 11.2152 45.0112 11.2152C45.6784 11.2152 46.2708 10.9679 46.7884 10.4733C47.2791 10.0145 47.5423 9.48165 47.5779 8.87456C47.5833 8.78375 47.5412 8.69667 47.4663 8.64503C46.9818 8.31096 46.3302 8.14392 45.5116 8.14392C44.8674 8.14392 44.3268 8.29921 43.8897 8.60979C43.4641 8.92037 43.2513 9.30571 43.2513 9.76583ZM45.3045 3.6233C46.4778 3.6233 47.4038 3.93963 48.0825 4.57229C48.7612 5.19344 49.1005 6.05041 49.1005 7.14318V12.0565C49.1005 12.2208 48.9673 12.354 48.803 12.354H47.8796C47.7153 12.354 47.5821 12.2208 47.5821 12.0565V11.2258C47.5821 11.2009 47.5619 11.1807 47.537 11.1807V11.1807C47.522 11.1807 47.508 11.1882 47.4995 11.2005C46.8454 12.1535 45.9757 12.63 44.8904 12.63C43.9587 12.63 43.1765 12.354 42.5439 11.8018C41.9227 11.2497 41.6121 10.5595 41.6121 9.73132C41.6121 8.8571 41.94 8.16118 42.5956 7.64355C43.2628 7.12592 44.1485 6.86711 45.2528 6.86711C46.0361 6.86711 46.7044 6.9861 47.2576 7.22408C47.4063 7.28802 47.5821 7.18423 47.5821 7.0224V7.0224C47.5821 6.47026 47.3636 6.00439 46.9264 5.6248C46.4893 5.2337 45.9775 5.03816 45.3908 5.03816C44.5997 5.03816 43.9555 5.33638 43.458 5.93283C43.356 6.05513 43.1796 6.0928 43.0448 6.00795L42.1522 5.44592C42.0085 5.35543 41.9688 5.16224 42.076 5.03052C42.8394 4.09238 43.9156 3.6233 45.3045 3.6233Z" fill="white"/>
<path d="M58.3102 12.0565C58.3102 12.2208 58.177 12.354 58.0127 12.354H57.0893C56.925 12.354 56.7918 12.2208 56.7918 12.0565V11.2245C56.7918 11.2003 56.7722 11.1807 56.748 11.1807V11.1807C56.7324 11.1807 56.718 11.189 56.71 11.2023C56.4681 11.6068 56.0986 11.9447 55.6013 12.2159C55.1067 12.492 54.5891 12.63 54.0484 12.63C53.0132 12.63 52.2137 12.3367 51.6501 11.7501C51.0979 11.1519 50.8219 10.3065 50.8219 9.21369V4.19686C50.8219 4.03256 50.9551 3.89937 51.1194 3.89937H52.1118C52.2761 3.89937 52.4093 4.03256 52.4093 4.19686V9.11016C52.4438 10.4905 53.1397 11.1807 54.497 11.1807C55.1297 11.1807 55.6588 10.9276 56.0844 10.4215C56.51 9.90386 56.7228 9.28846 56.7228 8.57528V4.19686C56.7228 4.03256 56.856 3.89937 57.0203 3.89937H58.0127C58.177 3.89937 58.3102 4.03256 58.3102 4.19686V12.0565Z" fill="white"/>
<path d="M63.6741 12.492C62.984 12.492 62.4088 12.2792 61.9487 11.8536C61.5001 11.428 61.27 10.8356 61.2585 10.0764V5.64622C61.2585 5.48192 61.1254 5.34873 60.9611 5.34873H60.0722C59.9079 5.34873 59.7747 5.21554 59.7747 5.05124V4.19686C59.7747 4.03256 59.9079 3.89937 60.0722 3.89937H60.9611C61.1254 3.89937 61.2585 3.76618 61.2585 3.60189V0.299775C61.2585 0.135477 61.3917 0.00228783 61.556 0.00228783H62.5484C62.7127 0.00228783 62.8459 0.135477 62.8459 0.299775V3.60189C62.8459 3.76618 62.9791 3.89937 63.1434 3.89937H64.619C64.7833 3.89937 64.9164 4.03256 64.9164 4.19686V5.05125C64.9164 5.21554 64.7833 5.34873 64.619 5.34873H63.1434C62.9791 5.34873 62.8459 5.48192 62.8459 5.64622V9.55877C62.8459 10.1224 62.9552 10.5078 63.1738 10.7148C63.3923 10.9104 63.6396 11.0081 63.9157 11.0081C64.0422 11.0081 64.163 10.9966 64.278 10.9736C64.2924 10.9697 64.3066 10.9657 64.3206 10.9617C64.4873 10.9135 64.6726 10.9926 64.7304 11.1562L65.025 11.9891C65.0795 12.1433 64.9995 12.3137 64.8413 12.3552C64.4944 12.4464 64.1053 12.492 63.6741 12.492Z" fill="white"/>
<path d="M66.5107 0.297395C66.5107 0.133098 66.6439 -9.15527e-05 66.8082 -9.15527e-05H67.8006C67.9649 -9.15527e-05 68.0981 0.133098 68.0981 0.297396V3.89937L68.0317 5.02797C68.0303 5.05222 68.0496 5.07266 68.0739 5.07266V5.07266C68.0889 5.07266 68.1027 5.06468 68.1104 5.05179C68.3521 4.64695 68.7161 4.30882 69.2024 4.03741C69.7085 3.76134 70.2319 3.6233 70.7725 3.6233C71.8078 3.6233 72.6015 3.92238 73.1536 4.52053C73.7172 5.10717 73.9991 5.94688 73.9991 7.03965V12.0565C73.9991 12.2208 73.8659 12.354 73.7016 12.354H72.7092C72.5449 12.354 72.4117 12.2208 72.4117 12.0565V7.35023C72.4117 5.83185 71.7388 5.07266 70.3929 5.07266C69.7488 5.07266 69.2024 5.34298 68.7538 5.88361C68.3167 6.41275 68.0981 7.0339 68.0981 7.74708V12.0565C68.0981 12.2208 67.9649 12.354 67.8006 12.354H66.8082C66.6439 12.354 66.5107 12.2208 66.5107 12.0565V0.297395Z" fill="white"/>
<path fill-rule="evenodd" clip-rule="evenodd" d="M57.6562 21.2683C57.8139 20.8156 57.8913 20.338 57.8849 19.8579C57.8911 19.3793 57.8137 18.9034 57.6562 18.4522C57.5158 18.0506 57.2968 17.6819 57.0125 17.3685C56.7334 17.0669 56.3937 16.8298 56.0165 16.6733C55.6095 16.5068 55.1742 16.4239 54.7355 16.4295C54.2975 16.4237 53.8629 16.5076 53.4574 16.6762C53.0817 16.8339 52.7429 17.0705 52.4633 17.3704C52.1788 17.683 51.9598 18.051 51.8195 18.4522C51.6621 18.9034 51.5847 19.3793 51.5909 19.8579C51.5844 20.338 51.6619 20.8156 51.8195 21.2683C51.9598 21.6695 52.1788 22.0375 52.4633 22.3501C52.7425 22.65 53.0814 22.8861 53.4574 23.0424C54.2805 23.3675 55.1934 23.3675 56.0165 23.0424C56.3932 22.8863 56.7327 22.6503 57.0125 22.3501C57.297 22.0375 57.516 21.6695 57.6562 21.2683ZM57.1998 18.5961C57.3311 19.0031 57.3945 19.4296 57.3872 19.8579C57.3949 20.2869 57.3315 20.7141 57.1998 21.1216C57.0845 21.4713 56.8998 21.7931 56.6572 22.0673C56.4237 22.3271 56.1354 22.5299 55.8139 22.6606C55.1202 22.9311 54.3525 22.9311 53.6587 22.6606C53.3377 22.5291 53.0496 22.3264 52.8154 22.0673C52.5717 21.7933 52.3858 21.4715 52.2691 21.1216C52.135 20.7145 52.0697 20.2872 52.0761 19.8579C52.071 19.4308 52.1365 19.0058 52.2701 18.6008C52.3859 18.2486 52.5718 17.9245 52.8164 17.6485C53.0509 17.3895 53.3389 17.1862 53.6597 17.0533C54.3527 16.779 55.1218 16.779 55.8148 17.0533C56.136 17.1854 56.4242 17.3888 56.6582 17.6485C56.9006 17.9233 57.085 18.2459 57.1998 18.5961Z" fill="white"/>
<path fill-rule="evenodd" clip-rule="evenodd" d="M62.7897 23.286C62.9463 23.286 63.0349 23.1049 62.9395 22.9796L60.9144 20.3186C60.8596 20.2428 60.7918 20.1782 60.7145 20.1281C60.9822 20.0982 61.2443 20.0283 61.4929 19.9205C61.7107 19.8251 61.9104 19.6896 62.0823 19.5205C62.2433 19.3591 62.3704 19.1645 62.4555 18.9491C62.5445 18.7216 62.5888 18.4777 62.586 18.232C62.5842 17.6409 62.395 17.1927 62.0185 16.8873C61.6419 16.5819 61.0762 16.4292 60.3213 16.4292H58.8294C58.7251 16.4292 58.6405 16.5145 58.6405 16.6197V23.0956C58.6405 23.2008 58.7251 23.286 58.8294 23.286H58.9298C59.0341 23.286 59.1186 23.2008 59.1186 23.0956V20.3757C59.1186 20.2705 59.2032 20.1852 59.3075 20.1852H59.98C60.0352 20.1847 60.0904 20.1882 60.1452 20.1957C60.1851 20.2 60.2242 20.2106 60.261 20.2271C60.2947 20.2411 60.3257 20.2615 60.3523 20.2871C60.3805 20.3165 60.4061 20.3483 60.4289 20.3824L62.5367 23.1641C62.5613 23.2044 62.5956 23.2372 62.6362 23.2594C62.6778 23.2785 62.723 23.2876 62.7685 23.286H62.7897ZM61.035 19.7072C60.7809 19.7837 60.5174 19.8206 60.253 19.8167H59.3076C59.2033 19.8167 59.1188 19.7314 59.1188 19.6262V17.0121C59.1188 16.9069 59.2033 16.8216 59.3076 16.8216H60.3223C60.9057 16.8222 61.3495 16.9403 61.6536 17.1759C61.9578 17.4114 62.1098 17.773 62.1098 18.2606C62.1131 18.4824 62.0705 18.7023 61.9848 18.9053C61.9012 19.0958 61.7763 19.2634 61.6199 19.3948C61.4466 19.5383 61.2478 19.6445 61.035 19.7072Z" fill="white"/>
<path d="M66.446 22.8494C66.741 22.8549 67.0338 22.7972 67.3055 22.68C67.55 22.5719 67.7686 22.4113 67.9464 22.209C68.1256 22.0018 68.2622 21.7601 68.3481 21.4982C68.4416 21.214 68.4877 20.9158 68.4845 20.6161V16.6709C68.4845 16.5374 68.5918 16.4292 68.7242 16.4292C68.8565 16.4292 68.9638 16.5374 68.9638 16.6709V20.6161C68.9668 20.9727 68.908 21.3271 68.79 21.6628C68.6801 21.9762 68.5098 22.2642 68.2893 22.5097C68.0676 22.7551 67.7972 22.9497 67.4961 23.0806C66.8219 23.3547 66.0701 23.3547 65.3959 23.0806C65.0947 22.95 64.8242 22.7553 64.6028 22.5097C64.3818 22.2644 64.2116 21.9764 64.102 21.6628C63.984 21.3271 63.9252 20.9727 63.9282 20.6161V16.6719C63.9282 16.5379 64.0359 16.4292 64.1688 16.4292C64.3017 16.4292 64.4094 16.5379 64.4094 16.6719V20.6104C64.4067 20.9105 64.4534 21.209 64.5476 21.4934C64.6337 21.7549 64.7695 21.9965 64.9475 22.2043C65.1237 22.4082 65.3415 22.5705 65.5856 22.68C65.8573 22.7982 66.1506 22.856 66.446 22.8494Z" fill="white"/>
<path d="M73.7052 17.3198C73.6847 17.369 73.6375 17.4009 73.5852 17.4008C73.5253 17.3905 73.4705 17.3596 73.43 17.3132C73.3492 17.2431 73.2635 17.1795 73.1734 17.1227C73.0461 17.0416 72.91 16.9757 72.768 16.9266C72.3683 16.8003 71.9403 16.8036 71.5425 16.9361C71.3738 16.9985 71.2194 17.0958 71.0888 17.2218C70.9681 17.3391 70.8731 17.4812 70.8099 17.6388C70.7473 17.7966 70.7157 17.9655 70.7169 18.1359C70.709 18.3338 70.7578 18.5297 70.8573 18.6996C70.9541 18.8516 71.0808 18.9813 71.2292 19.0804C71.3934 19.1893 71.5698 19.2775 71.7545 19.3432C71.9498 19.4137 72.1515 19.4842 72.3579 19.5537C72.5643 19.6232 72.7661 19.7003 72.9614 19.7831C73.1499 19.8628 73.3267 19.9688 73.4867 20.0983C73.641 20.2257 73.7677 20.3846 73.8586 20.5649C73.9587 20.7798 74.0069 21.0163 73.999 21.2543C74.0014 21.5252 73.9544 21.7942 73.8605 22.0475C73.7695 22.29 73.6298 22.5103 73.4504 22.694C73.2628 22.8828 73.0394 23.0303 72.794 23.1272C72.5102 23.2373 72.2085 23.2909 71.9051 23.2853C71.5206 23.2958 71.1389 23.2157 70.7894 23.0511C70.5501 22.9306 70.3306 22.7739 70.1381 22.5864C70.0341 22.4852 70.0236 22.3241 70.1004 22.2008C70.13 22.1573 70.178 22.1308 70.2297 22.1293C70.2705 22.1357 70.3081 22.1558 70.3366 22.1865L70.4937 22.3255C70.5551 22.3817 70.6295 22.4417 70.7159 22.5064C70.8101 22.5763 70.9107 22.6365 71.0163 22.6864C71.2977 22.8194 71.6045 22.8864 71.9144 22.8825C72.1513 22.8867 72.3868 22.8457 72.609 22.7616C72.8007 22.6874 72.9756 22.574 73.1231 22.4283C73.2635 22.2888 73.3729 22.1199 73.4439 21.9332C73.5191 21.738 73.557 21.5298 73.5555 21.32C73.5634 21.115 73.5144 20.912 73.4142 20.7344C73.3186 20.5813 73.1917 20.4514 73.0423 20.3535C72.8782 20.2463 72.7021 20.1596 72.5179 20.0955C72.3217 20.026 72.1208 19.9584 71.9135 19.8917C71.7062 19.825 71.5063 19.7517 71.3101 19.6689C71.1209 19.5911 70.9439 19.4852 70.7847 19.3547C70.6291 19.2249 70.5022 19.0626 70.4128 18.8786C70.3114 18.6539 70.263 18.408 70.2715 18.1606C70.2715 17.9379 70.3138 17.7173 70.3961 17.5112C70.4795 17.3036 70.6039 17.1159 70.7615 16.9599C70.9334 16.794 71.1356 16.6646 71.3566 16.579C71.6141 16.4769 71.8884 16.4261 72.1645 16.4295C72.4767 16.4246 72.787 16.4808 73.0785 16.5952C73.2813 16.6798 73.4701 16.7949 73.6387 16.9365C73.75 17.0299 73.7714 17.19 73.7052 17.3198Z" fill="white"/>
<path fill-rule="evenodd" clip-rule="evenodd" d="M45.4286 16.4282C45.0771 16.4282 44.7922 16.7156 44.7922 17.0702V17.818C44.7922 18.1725 45.0771 18.4599 45.4286 18.4599H46.5547V22.6433C46.5547 22.9978 46.8396 23.2852 47.1912 23.2852H47.9326C48.2841 23.2852 48.569 22.9978 48.569 22.6433V17.8234C48.569 17.8216 48.569 17.8198 48.569 17.818V17.0702C48.569 16.7156 48.2841 16.4282 47.9326 16.4282H47.1912H45.4286Z" fill="white"/>
<path d="M50.0799 18.4606C50.6361 18.4606 51.087 18.0058 51.087 17.4448C51.087 16.8837 50.6361 16.4289 50.0799 16.4289C49.5237 16.4289 49.0727 16.8837 49.0727 17.4448C49.0727 18.0058 49.5237 18.4606 50.0799 18.4606Z" fill="white"/>
<path d="M41.2258 18.3071C41.1095 18.3071 41.0029 18.2821 40.906 18.2322C40.8112 18.1823 40.738 18.1161 40.6863 18.0336H40.6734V18.255H40.3891V15.9239H40.6863V16.6597L40.6734 16.8811H40.6863C40.738 16.7986 40.8112 16.7324 40.906 16.6825C41.0029 16.6326 41.1095 16.6076 41.2258 16.6076C41.4346 16.6076 41.6112 16.6901 41.7555 16.855C41.9041 17.0222 41.9784 17.2229 41.9784 17.4574C41.9784 17.6939 41.9041 17.8947 41.7555 18.0597C41.6112 18.2246 41.4346 18.3071 41.2258 18.3071ZM41.1773 18.0336C41.3194 18.0336 41.4389 17.9794 41.5358 17.8708C41.6328 17.7645 41.6812 17.6267 41.6812 17.4574C41.6812 17.2902 41.6328 17.1524 41.5358 17.0439C41.4389 16.9353 41.3194 16.8811 41.1773 16.8811C41.033 16.8811 40.9124 16.9353 40.8155 17.0439C40.7208 17.1524 40.6734 17.2902 40.6734 17.4574C40.6734 17.6267 40.7208 17.7656 40.8155 17.8741C40.9124 17.9804 41.033 18.0336 41.1773 18.0336Z" fill="white"/>
<path d="M43.602 16.6597L42.6103 18.9583H42.3035L42.6717 18.1541L42.0192 16.6597H42.3422L42.8138 17.8057H42.8203L43.279 16.6597H43.602Z" fill="white"/>
</svg>
